<svg width="157" height="52" viewBox="0 0 157 52" fill="none" xmlns="http://www.w3.org/2000/svg">
<rect x="0.5" y="0.469238" width="156" height="51" rx="5" fill="black"/>
<g clip-path="url(#clip0_820_10408)">
<path d="M27.5515 21.2181L28.6379 20.7719C29.5202 20.4219 30.6606 20.0646 32.0067 20.2906C34.7644 20.7544 36.6661 22.2433 37.7992 24.2179C38.2367 24.9792 37.8838 25.9825 37.0671 26.3019C36.3675 26.5756 35.7694 27.0586 35.3547 27.685C34.94 28.3114 34.7288 29.0506 34.75 29.8016C34.7712 30.5525 35.0238 31.2786 35.4733 31.8806C35.9227 32.4826 36.5471 32.9311 37.2611 33.1648C38.0165 33.4127 38.4423 34.2513 38.1944 35.0067C37.5498 36.9638 36.6223 38.7706 35.5242 40.229C34.4392 41.6698 33.115 42.8656 31.6406 43.4504C30.6781 43.8296 29.6456 43.6881 28.6584 43.4431L28.0721 43.2871L27.2015 43.0348C26.8063 42.9196 26.3994 42.8204 25.9998 42.8204C25.5988 42.8204 25.1934 42.9196 24.7981 43.0348L23.9275 43.2871L23.3413 43.4431C22.354 43.6881 21.32 43.831 20.359 43.4504C18.5025 42.7154 16.8648 41.0004 15.6267 38.9777C14.2879 36.7495 13.4037 34.2782 13.025 31.7065C12.694 29.4402 12.8734 26.8954 13.9219 24.7429C15.0011 22.5248 16.9786 20.7981 19.9929 20.2906C21.2179 20.085 22.2709 20.3606 23.1138 20.6771L23.5965 20.8667L24.4481 21.2181C25.0315 21.4471 25.4909 21.5813 25.9998 21.5813C26.5073 21.5813 26.9681 21.4471 27.5515 21.2181ZM25.6615 15.5058C27.0848 14.0811 29.2709 13.9586 29.7856 14.4748C30.3019 14.9896 30.1794 17.1756 28.7546 18.599C27.3313 20.0223 25.1452 20.1448 24.6304 19.63C24.1142 19.1152 24.2367 16.9292 25.6615 15.5058Z" fill="white"/>
</g>
<path d="M52.25 21.4692H49.5568V12.742H52.3693C53.2159 12.742 53.9403 12.9167 54.5426 13.2661C55.1449 13.6127 55.6065 14.1113 55.9276 14.7619C56.2486 15.4096 56.4091 16.1851 56.4091 17.0886C56.4091 17.9976 56.2472 18.7803 55.9233 19.4366C55.5994 20.09 55.1278 20.5928 54.5085 20.9451C53.8892 21.2945 53.1364 21.4692 52.25 21.4692ZM50.6136 20.5317H52.1818C52.9034 20.5317 53.5014 20.3925 53.9759 20.1141C54.4503 19.8357 54.804 19.4394 55.0369 18.9252C55.2699 18.411 55.3864 17.7988 55.3864 17.0886C55.3864 16.384 55.2713 15.7775 55.0412 15.269C54.8111 14.7576 54.4673 14.3655 54.0099 14.0928C53.5526 13.8172 52.983 13.6795 52.3011 13.6795H50.6136V20.5317ZM60.5845 21.6056C59.9936 21.6056 59.4752 21.465 59.0291 21.1837C58.586 20.9025 58.2394 20.509 57.9894 20.0033C57.7422 19.4976 57.6186 18.9067 57.6186 18.2306C57.6186 17.5488 57.7422 16.9536 57.9894 16.4451C58.2394 15.9366 58.586 15.5417 59.0291 15.2604C59.4752 14.9792 59.9936 14.8386 60.5845 14.8386C61.1755 14.8386 61.6925 14.9792 62.1357 15.2604C62.5817 15.5417 62.9283 15.9366 63.1755 16.4451C63.4255 16.9536 63.5505 17.5488 63.5505 18.2306C63.5505 18.9067 63.4255 19.4976 63.1755 20.0033C62.9283 20.509 62.5817 20.9025 62.1357 21.1837C61.6925 21.465 61.1755 21.6056 60.5845 21.6056ZM60.5845 20.7022C61.0334 20.7022 61.4027 20.5871 61.6925 20.357C61.9823 20.1269 62.1968 19.8244 62.336 19.4494C62.4752 19.0744 62.5448 18.6681 62.5448 18.2306C62.5448 17.7931 62.4752 17.3854 62.336 17.0076C62.1968 16.6297 61.9823 16.3244 61.6925 16.0914C61.4027 15.8584 61.0334 15.742 60.5845 15.742C60.1357 15.742 59.7664 15.8584 59.4766 16.0914C59.1868 16.3244 58.9723 16.6297 58.8331 17.0076C58.6939 17.3854 58.6243 17.7931 58.6243 18.2306C58.6243 18.6681 58.6939 19.0744 58.8331 19.4494C58.9723 19.8244 59.1868 20.1269 59.4766 20.357C59.7664 20.5871 60.1357 20.7022 60.5845 20.7022ZM66.2259 21.4692L64.2316 14.9238H65.2884L66.7032 19.9351H66.7714L68.1691 14.9238H69.243L70.6236 19.9181H70.6918L72.1066 14.9238H73.1634L71.1691 21.4692H70.1805L68.7486 16.4408H68.6464L67.2145 21.4692H66.2259ZM75.3786 17.5317V21.4692H74.373V14.9238H75.3445V15.9465H75.4298C75.5832 15.6141 75.8161 15.3471 76.1286 15.1454C76.4411 14.9408 76.8445 14.8386 77.3389 14.8386C77.782 14.8386 78.1698 14.9295 78.5022 15.1113C78.8346 15.2903 79.0931 15.563 79.2778 15.9295C79.4624 16.2931 79.5548 16.7533 79.5548 17.3101V21.4692H78.5491V17.3783C78.5491 16.8641 78.4156 16.4636 78.1485 16.1766C77.8815 15.8869 77.515 15.742 77.0491 15.742C76.7281 15.742 76.4411 15.8116 76.1883 15.9508C75.9383 16.09 75.7409 16.2931 75.596 16.5601C75.4511 16.8272 75.3786 17.1511 75.3786 17.5317ZM82.2782 12.742V21.4692H81.2725V12.742H82.2782ZM86.6592 21.6056C86.0683 21.6056 85.5499 21.465 85.1038 21.1837C84.6607 20.9025 84.3141 20.509 84.0641 20.0033C83.8169 19.4976 83.6933 18.9067 83.6933 18.2306C83.6933 17.5488 83.8169 16.9536 84.0641 16.4451C84.3141 15.9366 84.6607 15.5417 85.1038 15.2604C85.5499 14.9792 86.0683 14.8386 86.6592 14.8386C87.2501 14.8386 87.7672 14.9792 88.2104 15.2604C88.6564 15.5417 89.003 15.9366 89.2501 16.4451C89.5001 16.9536 89.6251 17.5488 89.6251 18.2306C89.6251 18.9067 89.5001 19.4976 89.2501 20.0033C89.003 20.509 88.6564 20.9025 88.2104 21.1837C87.7672 21.465 87.2501 21.6056 86.6592 21.6056ZM86.6592 20.7022C87.1081 20.7022 87.4774 20.5871 87.7672 20.357C88.057 20.1269 88.2715 19.8244 88.4107 19.4494C88.5499 19.0744 88.6195 18.6681 88.6195 18.2306C88.6195 17.7931 88.5499 17.3854 88.4107 17.0076C88.2715 16.6297 88.057 16.3244 87.7672 16.0914C87.4774 15.8584 87.1081 15.742 86.6592 15.742C86.2104 15.742 85.8411 15.8584 85.5513 16.0914C85.2615 16.3244 85.047 16.6297 84.9078 17.0076C84.7686 17.3854 84.699 17.7931 84.699 18.2306C84.699 18.6681 84.7686 19.0744 84.9078 19.4494C85.047 19.8244 85.2615 20.1269 85.5513 20.357C85.8411 20.5871 86.2104 20.7022 86.6592 20.7022ZM92.9664 21.6226C92.5517 21.6226 92.1752 21.5445 91.8372 21.3883C91.4991 21.2292 91.2306 21.0005 91.0318 20.7022C90.8329 20.4011 90.7335 20.0374 90.7335 19.6113C90.7335 19.2363 90.8073 18.9323 90.9551 18.6994C91.1028 18.4636 91.3002 18.2789 91.5474 18.1454C91.7946 18.0119 92.0673 17.9124 92.3656 17.8471C92.6667 17.7789 92.9693 17.7249 93.2733 17.6851C93.671 17.634 93.9934 17.5957 94.2406 17.5701C94.4906 17.5417 94.6724 17.4948 94.786 17.4295C94.9025 17.3641 94.9608 17.2505 94.9608 17.0886V17.0545C94.9608 16.634 94.8457 16.3073 94.6156 16.0744C94.3883 15.8414 94.0431 15.7249 93.5801 15.7249C93.1 15.7249 92.7235 15.83 92.4508 16.0403C92.1781 16.2505 91.9863 16.4749 91.8755 16.7136L90.921 16.3726C91.0914 15.9749 91.3187 15.6653 91.6028 15.4437C91.8897 15.2192 92.2022 15.063 92.5403 14.9749C92.8812 14.884 93.2164 14.8386 93.546 14.8386C93.7562 14.8386 93.9977 14.8641 94.2704 14.9153C94.546 14.9636 94.8116 15.0644 95.0673 15.2178C95.3258 15.3712 95.5403 15.6028 95.7108 15.9124C95.8812 16.2221 95.9664 16.6369 95.9664 17.1567V21.4692H94.9608V20.5829H94.9096C94.8414 20.7249 94.7278 20.8769 94.5687 21.0388C94.4096 21.2008 94.198 21.3386 93.9338 21.4522C93.6696 21.5658 93.3471 21.6226 92.9664 21.6226ZM93.1198 20.7192C93.5176 20.7192 93.8528 20.6411 94.1255 20.4849C94.4011 20.3286 94.6085 20.1269 94.7477 19.8797C94.8897 19.6326 94.9608 19.3726 94.9608 19.0999V18.1795C94.9181 18.2306 94.8244 18.2775 94.6795 18.3201C94.5375 18.3599 94.3727 18.3954 94.1852 18.4266C94.0005 18.455 93.8201 18.4806 93.644 18.5033C93.4707 18.5232 93.3301 18.5403 93.2221 18.5545C92.9608 18.5886 92.7164 18.644 92.4892 18.7207C92.2647 18.7945 92.0829 18.9067 91.9437 19.0573C91.8073 19.205 91.7392 19.4067 91.7392 19.6624C91.7392 20.0119 91.8684 20.2761 92.1269 20.455C92.3883 20.6312 92.7193 20.7192 93.1198 20.7192ZM100.154 21.6056C99.6082 21.6056 99.1266 21.4678 98.709 21.1922C98.2914 20.9138 97.9647 20.5218 97.7289 20.0161C97.4931 19.5076 97.3752 18.9067 97.3752 18.2136C97.3752 17.5261 97.4931 16.9295 97.7289 16.4238C97.9647 15.9181 98.2928 15.5275 98.7133 15.2519C99.1337 14.9763 99.6195 14.8386 100.171 14.8386C100.597 14.8386 100.933 14.9096 101.181 15.0516C101.431 15.1908 101.621 15.3499 101.752 15.5289C101.885 15.705 101.989 15.8499 102.063 15.9636H102.148V12.742H103.154V21.4692H102.182V20.4636H102.063C101.989 20.5829 101.884 20.7334 101.747 20.9153C101.611 21.0942 101.416 21.2547 101.164 21.3968C100.911 21.536 100.574 21.6056 100.154 21.6056ZM100.29 20.7022C100.693 20.7022 101.034 20.5971 101.313 20.3869C101.591 20.1738 101.803 19.8797 101.948 19.5047C102.093 19.1269 102.165 18.6908 102.165 18.1965C102.165 17.7079 102.094 17.2803 101.952 16.9138C101.81 16.5445 101.6 16.2576 101.321 16.053C101.043 15.8457 100.699 15.742 100.29 15.742C99.8638 15.742 99.5087 15.8513 99.2246 16.0701C98.9434 16.286 98.7317 16.58 98.5897 16.9522C98.4505 17.3215 98.3809 17.7363 98.3809 18.1965C98.3809 18.6624 98.4519 19.0857 98.5939 19.4664C98.7388 19.8442 98.9519 20.1454 99.2332 20.3698C99.5172 20.5914 99.8695 20.7022 100.29 20.7022ZM115.77 17.1056C115.77 18.0261 115.604 18.8215 115.272 19.492C114.939 20.1624 114.483 20.6795 113.904 21.0431C113.324 21.4067 112.662 21.5886 111.918 21.5886C111.174 21.5886 110.512 21.4067 109.932 21.0431C109.353 20.6795 108.897 20.1624 108.564 19.492C108.232 18.8215 108.066 18.0261 108.066 17.1056C108.066 16.1851 108.232 15.3897 108.564 14.7192C108.897 14.0488 109.353 13.5317 109.932 13.1681C110.512 12.8045 111.174 12.6226 111.918 12.6226C112.662 12.6226 113.324 12.8045 113.904 13.1681C114.483 13.5317 114.939 14.0488 115.272 14.7192C115.604 15.3897 115.77 16.1851 115.77 17.1056ZM114.747 17.1056C114.747 16.3499 114.621 15.7121 114.368 15.1922C114.118 14.6724 113.779 14.2789 113.35 14.0119C112.924 13.7448 112.446 13.6113 111.918 13.6113C111.389 13.6113 110.911 13.7448 110.482 14.0119C110.056 14.2789 109.716 14.6724 109.463 15.1922C109.213 15.7121 109.088 16.3499 109.088 17.1056C109.088 17.8613 109.213 18.4991 109.463 19.019C109.716 19.5388 110.056 19.9323 110.482 20.1994C110.911 20.4664 111.389 20.5999 111.918 20.5999C112.446 20.5999 112.924 20.4664 113.35 20.1994C113.779 19.9323 114.118 19.5388 114.368 19.019C114.621 18.4991 114.747 17.8613 114.747 17.1056ZM118.296 17.5317V21.4692H117.291V14.9238H118.262V15.9465H118.348C118.501 15.6141 118.734 15.3471 119.046 15.1454C119.359 14.9408 119.762 14.8386 120.257 14.8386C120.7 14.8386 121.088 14.9295 121.42 15.1113C121.752 15.2903 122.011 15.563 122.196 15.9295C122.38 16.2931 122.473 16.7533 122.473 17.3101V21.4692H121.467V17.3783C121.467 16.8641 121.333 16.4636 121.066 16.1766C120.799 15.8869 120.433 15.742 119.967 15.742C119.646 15.742 119.359 15.8116 119.106 15.9508C118.856 16.09 118.659 16.2931 118.514 16.5601C118.369 16.8272 118.296 17.1511 118.296 17.5317ZM127.104 13.6795V12.742H133.65V13.6795H130.906V21.4692H129.849V13.6795H127.104ZM136.03 17.5317V21.4692H135.025V12.742H136.03V15.9465H136.115C136.269 15.6084 136.499 15.34 136.806 15.1411C137.115 14.9394 137.527 14.8386 138.042 14.8386C138.488 14.8386 138.878 14.928 139.213 15.107C139.549 15.2832 139.809 15.5545 139.993 15.9209C140.181 16.2846 140.275 16.7476 140.275 17.3101V21.4692H139.269V17.3783C139.269 16.8584 139.134 16.4565 138.864 16.1724C138.597 15.8854 138.226 15.742 137.752 15.742C137.422 15.742 137.127 15.8116 136.865 15.9508C136.607 16.09 136.402 16.2931 136.252 16.5601C136.104 16.8272 136.03 17.1511 136.03 17.5317ZM144.739 21.6056C144.108 21.6056 143.564 21.4664 143.107 21.188C142.652 20.9067 142.301 20.5147 142.054 20.0119C141.81 19.5062 141.688 18.9181 141.688 18.2476C141.688 17.5772 141.81 16.9863 142.054 16.4749C142.301 15.9607 142.645 15.5601 143.085 15.2732C143.528 14.9834 144.045 14.8386 144.636 14.8386C144.977 14.8386 145.314 14.8954 145.646 15.009C145.979 15.1226 146.281 15.3073 146.554 15.563C146.827 15.8158 147.044 16.1511 147.206 16.5687C147.368 16.9863 147.449 17.5005 147.449 18.1113V18.5374H142.403V17.6681H146.426C146.426 17.2988 146.352 16.9692 146.205 16.6795C146.06 16.3897 145.852 16.161 145.582 15.9934C145.315 15.8258 145 15.742 144.636 15.742C144.236 15.742 143.889 15.8414 143.597 16.0403C143.307 16.2363 143.084 16.492 142.928 16.8073C142.771 17.1226 142.693 17.4607 142.693 17.8215V18.4011C142.693 18.8954 142.778 19.3144 142.949 19.6582C143.122 19.9991 143.362 20.259 143.669 20.438C143.976 20.6141 144.332 20.7022 144.739 20.7022C145.003 20.7022 145.242 20.6653 145.455 20.5914C145.67 20.5147 145.857 20.4011 146.013 20.2505C146.169 20.0971 146.29 19.9067 146.375 19.6795L147.347 19.9522C147.244 20.2817 147.072 20.5715 146.831 20.8215C146.59 21.0687 146.291 21.2619 145.936 21.4011C145.581 21.5374 145.182 21.6056 144.739 21.6056Z" fill="white"/>
<path d="M51.8026 41.4692H48.9901L54.1108 26.9238H57.3636L62.4915 41.4692H59.679L55.794 29.9067H55.6804L51.8026 41.4692ZM51.8949 35.7661H59.5653V37.8826H51.8949V35.7661ZM64.0937 45.5601V30.5601H66.6221V32.3641H66.7712C66.9038 32.099 67.0908 31.8172 67.3323 31.519C67.5738 31.2159 67.9005 30.9579 68.3124 30.7448C68.7244 30.527 69.2499 30.4181 69.8891 30.4181C70.7319 30.4181 71.4919 30.6335 72.169 31.0644C72.8508 31.4905 73.3906 32.1226 73.7883 32.9607C74.1907 33.794 74.392 34.8168 74.392 36.0289C74.392 37.2268 74.1955 38.2448 73.8025 39.0829C73.4095 39.9209 72.8745 40.5601 72.1974 41.0005C71.5203 41.4408 70.7532 41.661 69.8962 41.661C69.2712 41.661 68.7528 41.5568 68.3408 41.3485C67.9289 41.1402 67.5975 40.8892 67.3465 40.5957C67.1003 40.2974 66.9085 40.0156 66.7712 39.7505H66.6647V45.5601H64.0937ZM66.615 36.0147C66.615 36.7202 66.7144 37.3381 66.9133 37.8684C67.1169 38.3987 67.4081 38.813 67.7869 39.1113C68.1704 39.4048 68.6344 39.5516 69.1789 39.5516C69.7471 39.5516 70.2229 39.4001 70.6065 39.0971C70.99 38.7893 71.2788 38.3703 71.4729 37.84C71.6718 37.3049 71.7712 36.6965 71.7712 36.0147C71.7712 35.3376 71.6742 34.7363 71.48 34.2107C71.2859 33.6851 70.9971 33.2732 70.6136 32.9749C70.23 32.6766 69.7518 32.5275 69.1789 32.5275C68.6297 32.5275 68.1633 32.6719 67.7798 32.9607C67.3962 33.2495 67.105 33.6544 66.9062 34.1752C66.7121 34.696 66.615 35.3092 66.615 36.0147ZM76.3937 45.5601V30.5601H78.9221V32.3641H79.0712C79.2038 32.099 79.3908 31.8172 79.6323 31.519C79.8738 31.2159 80.2005 30.9579 80.6124 30.7448C81.0244 30.527 81.5499 30.4181 82.1891 30.4181C83.0319 30.4181 83.7919 30.6335 84.469 31.0644C85.1508 31.4905 85.6906 32.1226 86.0883 32.9607C86.4907 33.794 86.692 34.8168 86.692 36.0289C86.692 37.2268 86.4955 38.2448 86.1025 39.0829C85.7095 39.9209 85.1745 40.5601 84.4974 41.0005C83.8203 41.4408 83.0532 41.661 82.1962 41.661C81.5712 41.661 81.0528 41.5568 80.6408 41.3485C80.2289 41.1402 79.8975 40.8892 79.6465 40.5957C79.4003 40.2974 79.2085 40.0156 79.0712 39.7505H78.9647V45.5601H76.3937ZM78.915 36.0147C78.915 36.7202 79.0144 37.3381 79.2133 37.8684C79.4169 38.3987 79.7081 38.813 80.0869 39.1113C80.4704 39.4048 80.9344 39.5516 81.4789 39.5516C82.0471 39.5516 82.5229 39.4001 82.9065 39.0971C83.29 38.7893 83.5788 38.3703 83.7729 37.84C83.9718 37.3049 84.0712 36.6965 84.0712 36.0147C84.0712 35.3376 83.9742 34.7363 83.78 34.2107C83.5859 33.6851 83.2971 33.2732 82.9136 32.9749C82.53 32.6766 82.0518 32.5275 81.4789 32.5275C80.9297 32.5275 80.4633 32.6719 80.0798 32.9607C79.6962 33.2495 79.405 33.6544 79.2062 34.1752C79.0121 34.696 78.915 35.3092 78.915 36.0147ZM101.473 30.9224C101.407 30.3021 101.127 29.8191 100.635 29.4735C100.147 29.1279 99.5129 28.955 98.7316 28.955C98.1824 28.955 97.7112 29.0379 97.3183 29.2036C96.9253 29.3693 96.6246 29.5942 96.4163 29.8783C96.2079 30.1624 96.1014 30.4868 96.0967 30.8513C96.0967 31.1544 96.1653 31.4172 96.3026 31.6397C96.4447 31.8622 96.6364 32.0516 96.8779 32.2079C97.1194 32.3594 97.3869 32.4872 97.6805 32.5914C97.974 32.6956 98.27 32.7832 98.5683 32.8542L99.9319 33.1951C100.481 33.3229 101.009 33.4958 101.516 33.7136C102.027 33.9314 102.484 34.206 102.886 34.5374C103.294 34.8689 103.616 35.269 103.852 35.7377C104.089 36.2065 104.207 36.7557 104.207 37.3854C104.207 38.2377 103.99 38.9882 103.554 39.6369C103.118 40.2808 102.489 40.7851 101.665 41.1496C100.846 41.5095 99.8538 41.6894 98.689 41.6894C97.5574 41.6894 96.5749 41.5142 95.7415 41.1638C94.913 40.8135 94.2643 40.3021 93.7955 39.6297C93.3315 38.9574 93.0806 38.1383 93.0427 37.1724H95.635C95.6729 37.679 95.8291 38.1004 96.1038 38.4366C96.3784 38.7727 96.7359 39.0237 97.1762 39.1894C97.6213 39.3551 98.1184 39.438 98.6677 39.438C99.2406 39.438 99.7425 39.3528 100.173 39.1823C100.609 39.0071 100.95 38.7656 101.196 38.4579C101.442 38.1454 101.568 37.7808 101.573 37.3641C101.568 36.9853 101.457 36.6728 101.239 36.4266C101.021 36.1757 100.716 35.9673 100.323 35.8016C99.9343 35.6312 99.4797 35.4797 98.9589 35.3471L97.304 34.9209C96.1061 34.6132 95.1592 34.1468 94.4631 33.5218C93.7719 32.8921 93.4262 32.0564 93.4262 31.0147C93.4262 30.1577 93.6582 29.4072 94.1222 28.7633C94.591 28.1193 95.2278 27.6198 96.0327 27.2647C96.8377 26.9048 97.7491 26.7249 98.7671 26.7249C99.7993 26.7249 100.704 26.9048 101.48 27.2647C102.261 27.6198 102.875 28.1146 103.32 28.7491C103.765 29.3788 103.994 30.1032 104.009 30.9224H101.473ZM111.69 30.5601V32.5488H105.419V30.5601H111.69ZM106.967 27.9465H109.538V38.188C109.538 38.5336 109.59 38.7988 109.695 38.9834C109.804 39.1634 109.946 39.2865 110.121 39.3528C110.296 39.419 110.49 39.4522 110.703 39.4522C110.864 39.4522 111.011 39.4404 111.143 39.4167C111.281 39.393 111.385 39.3717 111.456 39.3528L111.889 41.3627C111.752 41.4101 111.555 41.4621 111.3 41.519C111.049 41.5758 110.741 41.6089 110.376 41.6184C109.732 41.6373 109.152 41.5403 108.636 41.3272C108.12 41.1094 107.711 40.7732 107.408 40.3187C107.109 39.8641 106.963 39.2959 106.967 38.6141V27.9465ZM118.282 41.6823C117.217 41.6823 116.293 41.4479 115.512 40.9792C114.731 40.5104 114.125 39.8547 113.694 39.0119C113.268 38.169 113.055 37.1842 113.055 36.0573C113.055 34.9304 113.268 33.9432 113.694 33.0957C114.125 32.2481 114.731 31.59 115.512 31.1212C116.293 30.6525 117.217 30.4181 118.282 30.4181C119.347 30.4181 120.271 30.6525 121.052 31.1212C121.833 31.59 122.437 32.2481 122.863 33.0957C123.294 33.9432 123.509 34.9304 123.509 36.0573C123.509 37.1842 123.294 38.169 122.863 39.0119C122.437 39.8547 121.833 40.5104 121.052 40.9792C120.271 41.4479 119.347 41.6823 118.282 41.6823ZM118.296 39.6226C118.874 39.6226 119.357 39.464 119.745 39.1468C120.133 38.8248 120.422 38.394 120.611 37.8542C120.806 37.3144 120.903 36.7131 120.903 36.0502C120.903 35.3826 120.806 34.7789 120.611 34.2391C120.422 33.6946 120.133 33.2614 119.745 32.9394C119.357 32.6174 118.874 32.4565 118.296 32.4565C117.704 32.4565 117.212 32.6174 116.819 32.9394C116.431 33.2614 116.139 33.6946 115.945 34.2391C115.756 34.7789 115.661 35.3826 115.661 36.0502C115.661 36.7131 115.756 37.3144 115.945 37.8542C116.139 38.394 116.431 38.8248 116.819 39.1468C117.212 39.464 117.704 39.6226 118.296 39.6226ZM125.491 41.4692V30.5601H127.984V32.3783H128.098C128.297 31.7486 128.638 31.2633 129.121 30.9224C129.608 30.5767 130.165 30.4039 130.79 30.4039C130.932 30.4039 131.09 30.411 131.265 30.4252C131.445 30.4347 131.595 30.4512 131.713 30.4749V32.84C131.604 32.8021 131.431 32.769 131.194 32.7405C130.962 32.7074 130.738 32.6908 130.52 32.6908C130.051 32.6908 129.63 32.7926 129.256 32.9962C128.886 33.1951 128.595 33.4721 128.382 33.8272C128.169 34.1823 128.062 34.5919 128.062 35.0559V41.4692H125.491ZM137.601 41.6823C136.508 41.6823 135.563 41.455 134.768 41.0005C133.977 40.5412 133.368 39.8925 132.942 39.0545C132.516 38.2117 132.303 37.2197 132.303 36.0786C132.303 34.9565 132.516 33.9716 132.942 33.1241C133.373 32.2718 133.974 31.6089 134.746 31.1354C135.518 30.6572 136.425 30.4181 137.466 30.4181C138.139 30.4181 138.773 30.527 139.37 30.7448C139.971 30.9579 140.501 31.2893 140.961 31.7391C141.425 32.1889 141.789 32.7619 142.054 33.4579C142.32 34.1492 142.452 34.973 142.452 35.9295V36.7178H133.51V34.9849H139.988C139.983 34.4924 139.876 34.0545 139.668 33.6709C139.46 33.2827 139.169 32.9773 138.795 32.7547C138.425 32.5322 137.994 32.4209 137.502 32.4209C136.976 32.4209 136.515 32.5488 136.117 32.8045C135.719 33.0554 135.409 33.3869 135.187 33.7988C134.969 34.206 134.858 34.6534 134.853 35.1411V36.6539C134.853 37.2884 134.969 37.8329 135.201 38.2874C135.433 38.7372 135.757 39.0829 136.174 39.3244C136.59 39.5611 137.078 39.6795 137.637 39.6795C138.011 39.6795 138.349 39.6274 138.652 39.5232C138.956 39.4143 139.218 39.2557 139.441 39.0474C139.663 38.839 139.831 38.581 139.945 38.2732L142.346 38.5431C142.194 39.1776 141.905 39.7315 141.479 40.205C141.058 40.6738 140.518 41.0384 139.86 41.2988C139.202 41.5545 138.449 41.6823 137.601 41.6823Z" fill="white"/>
<defs>
<clipPath id="clip0_820_10408">
<rect width="35" height="35" fill="white" transform="translate(8.5 11.4692)"/>
</clipPath>
</defs>
</svg>
