<svg width="28" height="28" viewBox="0 0 28 28" fill="none" xmlns="http://www.w3.org/2000/svg">
<mask id="mask0_1201_287" style="mask-type:alpha" maskUnits="userSpaceOnUse" x="0" y="0" width="29" height="28">
<rect x="0.933105" width="28" height="28" fill="#D9D9D9"/>
</mask>
<g mask="url(#mask0_1201_287)">
<path d="M28 8.17878V23.8138C28 24.4821 27.7762 25.0401 27.3286 25.4878C26.8809 25.9354 26.3229 26.1592 25.6546 26.1592H4.21217C3.54383 26.1592 2.98584 25.9354 2.53818 25.4878C2.09053 25.0401 1.8667 24.4821 1.8667 23.8138V8.17878C1.8667 7.51044 2.09053 6.95245 2.53818 6.50479C2.98584 6.05714 3.54383 5.83331 4.21217 5.83331H25.6546C26.3229 5.83331 26.8809 6.05714 27.3286 6.50479C27.7762 6.95245 28 7.51044 28 8.17878ZM3.31855 11.3616H26.5482V8.17878C26.5482 7.95519 26.4551 7.75036 26.2691 7.56428C26.083 7.3782 25.8782 7.28516 25.6546 7.28516H4.21217C3.98858 7.28516 3.78375 7.3782 3.59767 7.56428C3.41159 7.75036 3.31855 7.95519 3.31855 8.17878V11.3616ZM3.31855 14.8235V23.8138C3.31855 24.0374 3.41159 24.2422 3.59767 24.4283C3.78375 24.6143 3.98858 24.7074 4.21217 24.7074H25.6546C25.8782 24.7074 26.083 24.6143 26.2691 24.4283C26.4551 24.2422 26.5482 24.0374 26.5482 23.8138V14.8235H3.31855Z" fill="#0018A8"/>
</g>
</svg>
