<svg width="31" height="31" viewBox="0 0 31 31" fill="none" xmlns="http://www.w3.org/2000/svg">
<path d="M4.25 15.4316L6.75 12.9316M6.75 12.9316L15.5 4.18164L24.25 12.9316M6.75 12.9316V25.4316C6.75 26.122 7.30964 26.6816 8 26.6816H11.75M24.25 12.9316L26.75 15.4316M24.25 12.9316V25.4316C24.25 26.122 23.6904 26.6816 23 26.6816H19.25M11.75 26.6816C12.4404 26.6816 13 26.122 13 25.4316V20.4316C13 19.7413 13.5596 19.1816 14.25 19.1816H16.75C17.4404 19.1816 18 19.7413 18 20.4316V25.4316C18 26.122 18.5596 26.6816 19.25 26.6816M11.75 26.6816H19.25" stroke="#0018A8" stroke-width="2" stroke-linecap="round" stroke-linejoin="round"/>
</svg>
