<svg width="60" height="60" viewBox="0 0 60 60" fill="none" xmlns="http://www.w3.org/2000/svg">
<path d="M31.5001 37.4999C30.0167 37.4999 28.5667 37.9398 27.3333 38.7639C26.0999 39.588 25.1386 40.7594 24.571 42.1298C24.0033 43.5003 23.8548 45.0083 24.1442 46.4631C24.4336 47.918 25.1479 49.2543 26.1968 50.3032C27.2457 51.3521 28.582 52.0664 30.0369 52.3558C31.4917 52.6452 32.9997 52.4967 34.3702 51.929C35.7406 51.3614 36.912 50.4001 37.7361 49.1667C38.5602 47.9333 39.0001 46.4833 39.0001 44.9999C38.9987 43.0112 38.2081 41.1044 36.8019 39.6981C35.3957 38.2919 33.4888 37.5013 31.5001 37.4999Z" fill="#0018A8"/>
<path d="M15.091 27.7288C14.3897 28.2787 13.9973 29.0235 14 29.7991C14.0028 30.5747 14.4004 31.3177 15.1056 31.8647C15.8107 32.4116 16.7655 32.7177 17.76 32.7156C18.7544 32.7134 19.7071 32.4033 20.4083 31.8533C23.2346 29.7103 27.0209 28.5115 30.9625 28.5115C34.9042 28.5115 38.6905 29.7103 41.5167 31.8533C41.8641 32.1277 42.2782 32.3454 42.7347 32.4935C43.1912 32.6417 43.681 32.7173 44.1754 32.7161C44.9161 32.716 45.6401 32.5448 46.2561 32.2241C46.8722 31.9035 47.3527 31.4477 47.6371 30.9143C47.9215 30.3809 47.997 29.7938 47.8541 29.2269C47.7112 28.6601 47.3563 28.139 46.8341 27.7293C38.3233 21.0452 23.6017 21.0452 15.091 27.7288Z" fill="#0018A8"/>
<path d="M55.9206 15.12C52.4785 12.7077 48.3686 10.791 43.832 9.48248C39.2955 8.17397 34.4236 7.49994 29.5021 7.49994C24.5807 7.49994 19.7088 8.17397 15.1722 9.48248C10.6357 10.791 6.52581 12.7077 3.08371 15.12C2.38441 15.6049 1.99463 16.2605 2.00012 16.9425C2.00561 17.6246 2.40592 18.2771 3.11299 18.7567C3.82006 19.2363 4.77596 19.5037 5.77041 19.4999C6.76486 19.4961 7.71641 19.2216 8.41571 18.7367C19.739 10.8805 39.2653 10.8805 50.5886 18.7367C51.2879 19.2216 52.2394 19.4961 53.2339 19.4999C54.2283 19.5037 55.1842 19.2363 55.8913 18.7567C56.5984 18.2771 56.9987 17.6246 57.0042 16.9425C57.0097 16.2605 56.6199 15.6049 55.9206 15.12Z" fill="#0018A8"/>
</svg>
