<svg width="60" height="60" viewBox="0 0 60 60" fill="none" xmlns="http://www.w3.org/2000/svg">
<mask id="mask0_1074_12922" style="mask-type:alpha" maskUnits="userSpaceOnUse" x="0" y="0" width="60" height="60">
<rect width="60" height="60" fill="#D9D9D9"/>
</mask>
<g mask="url(#mask0_1074_12922)">
<path d="M42.1669 31.4169L28.5831 17.8331L42.1669 4.25L55.75 17.8331L42.1669 31.4169ZM7.5 26.75V7.54187H26.7081V26.75H7.5ZM33.25 52.5V33.2919H52.4581V52.5H33.25ZM7.5 52.5V33.2919H26.7081V52.5H7.5ZM11.6669 22.5831H22.5419V11.7081H11.6669V22.5831ZM42.3125 25.7081L50.0419 17.9794L42.3125 10.25L34.5831 17.9794L42.3125 25.7081ZM37.4169 48.3331H48.2919V37.4581H37.4169V48.3331ZM11.6669 48.3331H22.5419V37.4581H11.6669V48.3331Z" fill="#0018A8"/>
</g>
</svg>
