<svg width="60" height="61" viewBox="0 0 60 61" fill="none" xmlns="http://www.w3.org/2000/svg">
<mask id="mask0_1074_12890" style="mask-type:alpha" maskUnits="userSpaceOnUse" x="0" y="0" width="60" height="61">
<rect y="0.5" width="60" height="60" fill="#D9D9D9"/>
</mask>
<g mask="url(#mask0_1074_12890)">
<path d="M17.5 58C16.125 58 14.9479 57.5104 13.9688 56.5312C12.9896 55.5521 12.5 54.375 12.5 53V8C12.5 6.625 12.9896 5.44792 13.9688 4.46875C14.9479 3.48958 16.125 3 17.5 3H42.5C43.875 3 45.0521 3.48958 46.0312 4.46875C47.0104 5.44792 47.5 6.625 47.5 8V53C47.5 54.375 47.0104 55.5521 46.0312 56.5312C45.0521 57.5104 43.875 58 42.5 58H17.5ZM17.5 45.5V53H42.5V45.5H17.5ZM30 51.75C30.7083 51.75 31.3021 51.5104 31.7812 51.0312C32.2604 50.5521 32.5 49.9583 32.5 49.25C32.5 48.5417 32.2604 47.9479 31.7812 47.4688C31.3021 46.9896 30.7083 46.75 30 46.75C29.2917 46.75 28.6979 46.9896 28.2188 47.4688C27.7396 47.9479 27.5 48.5417 27.5 49.25C27.5 49.9583 27.7396 50.5521 28.2188 51.0312C28.6979 51.5104 29.2917 51.75 30 51.75ZM17.5 40.5H42.5V15.5H17.5V40.5ZM17.5 10.5H42.5V8H17.5V10.5Z" fill="#0018A8"/>
</g>
</svg>
