<svg width="173" height="52" viewBox="0 0 173 52" fill="none" xmlns="http://www.w3.org/2000/svg">
<rect x="0.5" y="0.469238" width="172" height="51" rx="5" fill="black"/>
<g clip-path="url(#clip0_820_10417)">
<path d="M24.5103 25.1975L10.6255 39.7446C10.7814 40.2972 11.0616 40.8068 11.4447 41.2344C11.8277 41.6621 12.3035 41.9966 12.8356 42.2122C13.3678 42.4278 13.9421 42.519 14.5149 42.4786C15.0876 42.4382 15.6435 42.2674 16.1401 41.9793L31.7631 33.0815L24.5103 25.1975Z" fill="#EA4335"/>
<path d="M38.55 22.7249L31.7941 18.8552L24.1895 25.5285L31.825 33.0607L38.5295 29.2325C39.1234 28.9215 39.6209 28.4539 39.968 27.8803C40.3151 27.3067 40.4986 26.6491 40.4986 25.9787C40.4986 25.3082 40.3151 24.6506 39.968 24.077C39.6209 23.5034 39.1234 23.0358 38.5295 22.7248L38.55 22.7249Z" fill="#FBBC04"/>
<path d="M10.6252 12.1406C10.5413 12.4509 10.4996 12.7711 10.501 13.0925V38.7928C10.5018 39.1141 10.5436 39.434 10.6252 39.7447L24.986 25.5702L10.6252 12.1406Z" fill="#4285F4"/>
<path d="M24.6137 25.9426L31.7942 18.8554L16.1919 9.91609C15.6049 9.57231 14.9372 9.39025 14.257 9.38843C12.5688 9.38515 11.0846 10.5056 10.6255 12.1303L24.6137 25.9426Z" fill="#34A853"/>
</g>
<path d="M56.5227 15.4692C56.429 15.1823 56.3054 14.9252 56.152 14.6979C56.0014 14.4678 55.821 14.2718 55.6108 14.1099C55.4034 13.9479 55.1676 13.8244 54.9034 13.7391C54.6392 13.6539 54.3494 13.6113 54.0341 13.6113C53.517 13.6113 53.0469 13.7448 52.6236 14.0119C52.2003 14.2789 51.8636 14.6724 51.6136 15.1922C51.3636 15.7121 51.2386 16.3499 51.2386 17.1056C51.2386 17.8613 51.3651 18.4991 51.6179 19.019C51.8707 19.5388 52.2131 19.9323 52.6449 20.1994C53.0767 20.4664 53.5625 20.5999 54.1023 20.5999C54.6023 20.5999 55.0426 20.4934 55.4233 20.2803C55.8068 20.0644 56.1051 19.7604 56.3182 19.3684C56.5341 18.9735 56.642 18.509 56.642 17.9749L56.9659 18.0431H54.3409V17.1056H57.6648V18.0431C57.6648 18.7619 57.5114 19.3869 57.2045 19.9181C56.9006 20.4494 56.4801 20.8613 55.9432 21.1539C55.4091 21.4437 54.7955 21.5886 54.1023 21.5886C53.3295 21.5886 52.6506 21.4067 52.0653 21.0431C51.483 20.6795 51.0284 20.1624 50.7017 19.492C50.3778 18.8215 50.2159 18.0261 50.2159 17.1056C50.2159 16.4153 50.3082 15.7945 50.4929 15.2434C50.6804 14.6894 50.9446 14.2178 51.2855 13.8286C51.6264 13.4394 52.0298 13.1411 52.4957 12.9337C52.9616 12.7263 53.4744 12.6226 54.0341 12.6226C54.4943 12.6226 54.9233 12.6922 55.321 12.8315C55.7216 12.9678 56.0781 13.1624 56.3906 13.4153C56.706 13.6653 56.9688 13.965 57.179 14.3144C57.3892 14.661 57.5341 15.0459 57.6136 15.4692H56.5227ZM59.3548 21.4692V12.742H64.6218V13.6795H60.4116V16.6283H64.3491V17.5658H60.4116V20.5317H64.69V21.4692H59.3548ZM65.9294 13.6795V12.742H72.4748V13.6795H69.7305V21.4692H68.6737V13.6795H65.9294ZM78.2977 12.742V21.4692H77.2409V12.742H78.2977ZM79.8194 13.6795V12.742H86.3648V13.6795H83.6205V21.4692H82.5637V13.6795H79.8194ZM98.4945 17.1056C98.4945 18.0261 98.3283 18.8215 97.9959 19.492C97.6636 20.1624 97.2076 20.6795 96.628 21.0431C96.0485 21.4067 95.3866 21.5886 94.6422 21.5886C93.8979 21.5886 93.236 21.4067 92.6564 21.0431C92.0769 20.6795 91.6209 20.1624 91.2886 19.492C90.9562 18.8215 90.79 18.0261 90.79 17.1056C90.79 16.1851 90.9562 15.3897 91.2886 14.7192C91.6209 14.0488 92.0769 13.5317 92.6564 13.1681C93.236 12.8045 93.8979 12.6226 94.6422 12.6226C95.3866 12.6226 96.0485 12.8045 96.628 13.1681C97.2076 13.5317 97.6636 14.0488 97.9959 14.7192C98.3283 15.3897 98.4945 16.1851 98.4945 17.1056ZM97.4718 17.1056C97.4718 16.3499 97.3454 15.7121 97.0925 15.1922C96.8425 14.6724 96.503 14.2789 96.0741 14.0119C95.6479 13.7448 95.1707 13.6113 94.6422 13.6113C94.1138 13.6113 93.6351 13.7448 93.2062 14.0119C92.78 14.2789 92.4405 14.6724 92.1877 15.1922C91.9377 15.7121 91.8127 16.3499 91.8127 17.1056C91.8127 17.8613 91.9377 18.4991 92.1877 19.019C92.4405 19.5388 92.78 19.9323 93.2062 20.1994C93.6351 20.4664 94.1138 20.5999 94.6422 20.5999C95.1707 20.5999 95.6479 20.4664 96.0741 20.1994C96.503 19.9323 96.8425 19.5388 97.0925 19.019C97.3454 18.4991 97.4718 17.8613 97.4718 17.1056ZM107.072 12.742V21.4692H106.049L101.294 14.617H101.208V21.4692H100.152V12.742H101.174L105.947 19.6113H106.032V12.742H107.072Z" fill="white"/>
<path d="M60.679 31.5687C60.5606 31.1851 60.3973 30.8419 60.1889 30.5388C59.9853 30.2311 59.7391 29.9683 59.4503 29.7505C59.1662 29.5327 58.8395 29.3693 58.4702 29.2604C58.1009 29.1468 57.6984 29.09 57.2628 29.09C56.4815 29.09 55.7855 29.2865 55.1747 29.6795C54.5639 30.0725 54.0833 30.6501 53.733 31.4124C53.3873 32.17 53.2145 33.0933 53.2145 34.1823C53.2145 35.2808 53.3873 36.2112 53.733 36.9735C54.0786 37.7358 54.5592 38.3158 55.1747 38.7136C55.7902 39.1065 56.5052 39.303 57.3196 39.303C58.0582 39.303 58.6974 39.161 59.2372 38.8769C59.7817 38.5928 60.2008 38.1904 60.4943 37.6695C60.7879 37.144 60.9347 36.5284 60.9347 35.8229L61.5312 35.9153H57.5824V33.8556H63.4844V35.6028C63.4844 36.848 63.2192 37.9252 62.6889 38.8343C62.1586 39.7434 61.4295 40.4441 60.5014 40.9366C59.5734 41.4243 58.508 41.6681 57.3054 41.6681C55.9654 41.6681 54.7888 41.3674 53.7756 40.7661C52.767 40.1601 51.9787 39.3007 51.4105 38.188C50.8471 37.0706 50.5653 35.7448 50.5653 34.2107C50.5653 33.0365 50.7311 31.9877 51.0625 31.0644C51.3987 30.1411 51.8674 29.3575 52.4688 28.7136C53.0701 28.0649 53.7756 27.5725 54.5852 27.2363C55.3949 26.8954 56.2756 26.7249 57.2273 26.7249C58.0322 26.7249 58.7827 26.8433 59.4787 27.08C60.1747 27.312 60.7926 27.6435 61.3324 28.0744C61.8769 28.5052 62.3243 29.0166 62.6747 29.6084C63.0251 30.2003 63.2547 30.8537 63.3636 31.5687H60.679ZM70.4772 41.6823C69.4119 41.6823 68.4886 41.4479 67.7073 40.9792C66.9261 40.5104 66.32 39.8547 65.8891 39.0119C65.463 38.169 65.2499 37.1842 65.2499 36.0573C65.2499 34.9304 65.463 33.9432 65.8891 33.0957C66.32 32.2481 66.9261 31.59 67.7073 31.1212C68.4886 30.6525 69.4119 30.4181 70.4772 30.4181C71.5425 30.4181 72.4658 30.6525 73.2471 31.1212C74.0283 31.59 74.632 32.2481 75.0582 33.0957C75.489 33.9432 75.7045 34.9304 75.7045 36.0573C75.7045 37.1842 75.489 38.169 75.0582 39.0119C74.632 39.8547 74.0283 40.5104 73.2471 40.9792C72.4658 41.4479 71.5425 41.6823 70.4772 41.6823ZM70.4914 39.6226C71.0691 39.6226 71.552 39.464 71.9403 39.1468C72.3285 38.8248 72.6174 38.394 72.8067 37.8542C73.0009 37.3144 73.0979 36.7131 73.0979 36.0502C73.0979 35.3826 73.0009 34.7789 72.8067 34.2391C72.6174 33.6946 72.3285 33.2614 71.9403 32.9394C71.552 32.6174 71.0691 32.4565 70.4914 32.4565C69.8996 32.4565 69.4071 32.6174 69.0141 32.9394C68.6259 33.2614 68.3347 33.6946 68.1406 34.2391C67.9512 34.7789 67.8565 35.3826 67.8565 36.0502C67.8565 36.7131 67.9512 37.3144 68.1406 37.8542C68.3347 38.394 68.6259 38.8248 69.0141 39.1468C69.4071 39.464 69.8996 39.6226 70.4914 39.6226ZM82.4452 41.6823C81.3798 41.6823 80.4565 41.4479 79.6753 40.9792C78.894 40.5104 78.288 39.8547 77.8571 39.0119C77.431 38.169 77.2179 37.1842 77.2179 36.0573C77.2179 34.9304 77.431 33.9432 77.8571 33.0957C78.288 32.2481 78.894 31.59 79.6753 31.1212C80.4565 30.6525 81.3798 30.4181 82.4452 30.4181C83.5105 30.4181 84.4338 30.6525 85.2151 31.1212C85.9963 31.59 86.6 32.2481 87.0261 33.0957C87.457 33.9432 87.6724 34.9304 87.6724 36.0573C87.6724 37.1842 87.457 38.169 87.0261 39.0119C86.6 39.8547 85.9963 40.5104 85.2151 40.9792C84.4338 41.4479 83.5105 41.6823 82.4452 41.6823ZM82.4594 39.6226C83.037 39.6226 83.52 39.464 83.9082 39.1468C84.2965 38.8248 84.5853 38.394 84.7747 37.8542C84.9688 37.3144 85.0659 36.7131 85.0659 36.0502C85.0659 35.3826 84.9688 34.7789 84.7747 34.2391C84.5853 33.6946 84.2965 33.2614 83.9082 32.9394C83.52 32.6174 83.037 32.4565 82.4594 32.4565C81.8675 32.4565 81.3751 32.6174 80.9821 32.9394C80.5938 33.2614 80.3027 33.6946 80.1085 34.2391C79.9191 34.7789 79.8244 35.3826 79.8244 36.0502C79.8244 36.7131 79.9191 37.3144 80.1085 37.8542C80.3027 38.394 80.5938 38.8248 80.9821 39.1468C81.3751 39.464 81.8675 39.6226 82.4594 39.6226ZM94.3989 45.7874C93.4756 45.7874 92.6826 45.6619 92.0197 45.411C91.3568 45.1648 90.8241 44.8333 90.4217 44.4167C90.0192 44 89.7398 43.5384 89.5836 43.0317L91.8989 42.4707C92.0031 42.6837 92.1546 42.8944 92.3535 43.1028C92.5523 43.3158 92.8199 43.491 93.156 43.6283C93.4969 43.7704 93.9255 43.8414 94.4416 43.8414C95.1707 43.8414 95.7744 43.6638 96.2526 43.3087C96.7308 42.9583 96.97 42.3807 96.97 41.5758V39.509H96.8421C96.7095 39.7742 96.5154 40.0464 96.2597 40.3258C96.0088 40.6051 95.675 40.8395 95.2583 41.0289C94.8464 41.2183 94.3279 41.313 93.7029 41.313C92.8648 41.313 92.1049 41.1165 91.4231 40.7235C90.746 40.3258 90.2062 39.7339 89.8038 38.9479C89.406 38.1572 89.2072 37.1676 89.2072 35.9792C89.2072 34.7813 89.406 33.7704 89.8038 32.9465C90.2062 32.1179 90.7484 31.4905 91.4302 31.0644C92.112 30.6335 92.8719 30.4181 93.71 30.4181C94.3492 30.4181 94.8748 30.527 95.2867 30.7448C95.7034 30.9579 96.0348 31.2159 96.281 31.519C96.5273 31.8172 96.7143 32.099 96.8421 32.3641H96.9842V30.5601H99.5197V41.6468C99.5197 42.5796 99.2971 43.3513 98.8521 43.9621C98.407 44.5729 97.7986 45.0298 97.0268 45.3329C96.255 45.6359 95.3791 45.7874 94.3989 45.7874ZM94.4202 39.2959C94.9648 39.2959 95.4288 39.1634 95.8123 38.8982C96.1958 38.6331 96.487 38.2519 96.6859 37.7547C96.8847 37.2576 96.9842 36.661 96.9842 35.965C96.9842 35.2784 96.8847 34.6771 96.6859 34.161C96.4917 33.6449 96.2029 33.2448 95.8194 32.9607C95.4406 32.6719 94.9742 32.5275 94.4202 32.5275C93.8473 32.5275 93.3691 32.6766 92.9856 32.9749C92.6021 33.2732 92.3132 33.6828 92.1191 34.2036C91.925 34.7197 91.8279 35.3068 91.8279 35.965C91.8279 36.6326 91.925 37.2173 92.1191 37.7192C92.318 38.2164 92.6092 38.6047 92.9927 38.884C93.3809 39.1586 93.8568 39.2959 94.4202 39.2959ZM104.526 26.9238V41.4692H101.955V26.9238H104.526ZM111.799 41.6823C110.705 41.6823 109.761 41.455 108.965 41.0005C108.174 40.5412 107.566 39.8925 107.14 39.0545C106.714 38.2117 106.501 37.2197 106.501 36.0786C106.501 34.9565 106.714 33.9716 107.14 33.1241C107.571 32.2718 108.172 31.6089 108.944 31.1354C109.716 30.6572 110.622 30.4181 111.664 30.4181C112.336 30.4181 112.971 30.527 113.567 30.7448C114.169 30.9579 114.699 31.2893 115.158 31.7391C115.622 32.1889 115.987 32.7619 116.252 33.4579C116.517 34.1492 116.65 34.973 116.65 35.9295V36.7178H107.708V34.9849H114.185C114.181 34.4924 114.074 34.0545 113.866 33.6709C113.657 33.2827 113.366 32.9773 112.992 32.7547C112.623 32.5322 112.192 32.4209 111.7 32.4209C111.174 32.4209 110.712 32.5488 110.315 32.8045C109.917 33.0554 109.607 33.3869 109.384 33.7988C109.166 34.206 109.055 34.6534 109.05 35.1411V36.6539C109.05 37.2884 109.166 37.8329 109.398 38.2874C109.63 38.7372 109.955 39.0829 110.371 39.3244C110.788 39.5611 111.276 39.6795 111.835 39.6795C112.209 39.6795 112.547 39.6274 112.85 39.5232C113.153 39.4143 113.416 39.2557 113.638 39.0474C113.861 38.839 114.029 38.581 114.143 38.2732L116.543 38.5431C116.392 39.1776 116.103 39.7315 115.677 40.205C115.255 40.6738 114.716 41.0384 114.058 41.2988C113.399 41.5545 112.647 41.6823 111.799 41.6823ZM123.5 41.4692V26.9238H128.954C130.071 26.9238 131.009 27.1321 131.767 27.5488C132.529 27.9654 133.104 28.5384 133.492 29.2675C133.885 29.992 134.082 30.8158 134.082 31.7391C134.082 32.6719 133.885 33.5005 133.492 34.2249C133.099 34.9494 132.519 35.5199 131.752 35.9366C130.985 36.3485 130.041 36.5545 128.919 36.5545H125.303V34.3883H128.563C129.217 34.3883 129.752 34.2746 130.169 34.0474C130.585 33.8201 130.893 33.5076 131.092 33.1099C131.295 32.7121 131.397 32.2552 131.397 31.7391C131.397 31.223 131.295 30.7685 131.092 30.3755C130.893 29.9825 130.583 29.6771 130.161 29.4593C129.745 29.2368 129.207 29.1255 128.549 29.1255H126.134V41.4692H123.5ZM138.628 26.9238V41.4692H136.057V26.9238H138.628ZM144.211 41.6894C143.52 41.6894 142.897 41.5663 142.343 41.3201C141.794 41.0691 141.358 40.6998 141.036 40.2121C140.719 39.7244 140.56 39.1231 140.56 38.4082C140.56 37.7926 140.674 37.2836 140.901 36.8812C141.129 36.4787 141.439 36.1567 141.832 35.9153C142.225 35.6738 142.667 35.4915 143.16 35.3684C143.657 35.2405 144.171 35.1482 144.701 35.0914C145.34 35.0251 145.859 34.9659 146.256 34.9138C146.654 34.857 146.943 34.7718 147.123 34.6582C147.308 34.5398 147.4 34.3575 147.4 34.1113V34.0687C147.4 33.5336 147.241 33.1193 146.924 32.8258C146.607 32.5322 146.15 32.3854 145.553 32.3854C144.924 32.3854 144.424 32.5227 144.055 32.7974C143.69 33.072 143.444 33.3963 143.316 33.7704L140.916 33.4295C141.105 32.7666 141.417 32.2126 141.853 31.7675C142.289 31.3177 142.821 30.9815 143.451 30.759C144.081 30.5317 144.777 30.4181 145.539 30.4181C146.065 30.4181 146.588 30.4797 147.109 30.6028C147.63 30.7259 148.105 30.9295 148.536 31.2136C148.967 31.4929 149.313 31.8741 149.573 32.357C149.838 32.84 149.971 33.4437 149.971 34.1681V41.4692H147.499V39.9707H147.414C147.258 40.2737 147.038 40.5578 146.754 40.8229C146.474 41.0833 146.122 41.294 145.695 41.455C145.274 41.6113 144.779 41.6894 144.211 41.6894ZM144.879 39.8002C145.395 39.8002 145.842 39.6984 146.221 39.4948C146.6 39.2865 146.891 39.0119 147.095 38.6709C147.303 38.33 147.407 37.9583 147.407 37.5559V36.2704C147.327 36.3367 147.189 36.3982 146.995 36.455C146.806 36.5119 146.593 36.5616 146.356 36.6042C146.119 36.6468 145.885 36.6847 145.653 36.7178C145.421 36.751 145.22 36.7794 145.049 36.803C144.666 36.8551 144.322 36.9404 144.019 37.0587C143.716 37.1771 143.477 37.3428 143.302 37.5559C143.127 37.7642 143.039 38.0341 143.039 38.3655C143.039 38.839 143.212 39.1965 143.558 39.438C143.903 39.6795 144.344 39.8002 144.879 39.8002ZM153.564 45.5601C153.213 45.5601 152.889 45.5317 152.591 45.4749C152.297 45.4228 152.063 45.3613 151.887 45.2903L152.484 43.2874C152.858 43.3963 153.192 43.4484 153.485 43.4437C153.779 43.4389 154.037 43.3466 154.26 43.1667C154.487 42.9915 154.679 42.6979 154.835 42.286L155.055 41.6965L151.099 30.5601H153.826L156.341 38.7988H156.454L158.975 30.5601H161.71L157.342 42.7903C157.138 43.3679 156.868 43.8627 156.532 44.2746C156.196 44.6913 155.784 45.0085 155.297 45.2263C154.814 45.4489 154.236 45.5601 153.564 45.5601Z" fill="white"/>
<defs>
<clipPath id="clip0_820_10417">
<rect width="30" height="33.1614" fill="white" transform="translate(10.5 9.38843)"/>
</clipPath>
</defs>
</svg>
