<svg width="153" height="42" viewBox="0 0 153 42" fill="none" xmlns="http://www.w3.org/2000/svg">
<g clip-path="url(#clip0_820_10418)">
<path d="M14.5103 20.1975L0.625488 34.7446C0.781413 35.2972 1.06161 35.8068 1.44467 36.2344C1.82773 36.6621 2.30351 36.9966 2.83563 37.2122C3.36775 37.4278 3.94213 37.519 4.51486 37.4786C5.08759 37.4382 5.64351 37.2674 6.14012 36.9793L21.7631 28.0815L14.5103 20.1975Z" fill="#EA4335"/>
<path d="M28.55 17.7249L21.7941 13.8552L14.1895 20.5285L21.825 28.0607L28.5295 24.2325C29.1234 23.9215 29.6209 23.4539 29.968 22.8803C30.3151 22.3067 30.4986 21.6491 30.4986 20.9787C30.4986 20.3082 30.3151 19.6506 29.968 19.077C29.6209 18.5034 29.1234 18.0358 28.5295 17.7248L28.55 17.7249Z" fill="#FBBC04"/>
<path d="M0.625222 7.14062C0.541345 7.4509 0.499568 7.77105 0.501013 8.09246V33.7928C0.501841 34.1141 0.54358 34.434 0.625222 34.7447L14.986 20.5702L0.625222 7.14062Z" fill="#4285F4"/>
<path d="M14.6137 20.9426L21.7942 13.8554L6.19191 4.91609C5.60488 4.57231 4.93723 4.39025 4.25695 4.38843C2.56877 4.38515 1.08459 5.50561 0.625488 7.13028L14.6137 20.9426Z" fill="#34A853"/>
</g>
<path d="M46.5227 10.4692C46.429 10.1823 46.3054 9.9252 46.152 9.69793C46.0014 9.46782 45.821 9.27179 45.6108 9.10986C45.4034 8.94793 45.1676 8.82435 44.9034 8.73912C44.6392 8.6539 44.3494 8.61128 44.0341 8.61128C43.517 8.61128 43.0469 8.74481 42.6236 9.01185C42.2003 9.2789 41.8636 9.67236 41.6136 10.1922C41.3636 10.7121 41.2386 11.3499 41.2386 12.1056C41.2386 12.8613 41.3651 13.4991 41.6179 14.019C41.8707 14.5388 42.2131 14.9323 42.6449 15.1994C43.0767 15.4664 43.5625 15.5999 44.1023 15.5999C44.6023 15.5999 45.0426 15.4934 45.4233 15.2803C45.8068 15.0644 46.1051 14.7604 46.3182 14.3684C46.5341 13.9735 46.642 13.509 46.642 12.9749L46.9659 13.0431H44.3409V12.1056H47.6648V13.0431C47.6648 13.7619 47.5114 14.3869 47.2045 14.9181C46.9006 15.4494 46.4801 15.8613 45.9432 16.1539C45.4091 16.4437 44.7955 16.5886 44.1023 16.5886C43.3295 16.5886 42.6506 16.4067 42.0653 16.0431C41.483 15.6795 41.0284 15.1624 40.7017 14.492C40.3778 13.8215 40.2159 13.0261 40.2159 12.1056C40.2159 11.4153 40.3082 10.7945 40.4929 10.2434C40.6804 9.68941 40.9446 9.21782 41.2855 8.82861C41.6264 8.43941 42.0298 8.14111 42.4957 7.93373C42.9616 7.72634 43.4744 7.62265 44.0341 7.62265C44.4943 7.62265 44.9233 7.69225 45.321 7.83145C45.7216 7.96782 46.0781 8.16242 46.3906 8.41526C46.706 8.66526 46.9688 8.96498 47.179 9.31441C47.3892 9.661 47.5341 10.0459 47.6136 10.4692H46.5227ZM49.3548 16.4692V7.74197H54.6218V8.67947H50.4116V11.6283H54.3491V12.5658H50.4116V15.5317H54.69V16.4692H49.3548ZM55.9294 8.67947V7.74197H62.4748V8.67947H59.7305V16.4692H58.6737V8.67947H55.9294ZM68.2977 7.74197V16.4692H67.2409V7.74197H68.2977ZM69.8194 8.67947V7.74197H76.3648V8.67947H73.6205V16.4692H72.5637V8.67947H69.8194ZM88.4945 12.1056C88.4945 13.0261 88.3283 13.8215 87.9959 14.492C87.6636 15.1624 87.2076 15.6795 86.628 16.0431C86.0485 16.4067 85.3866 16.5886 84.6422 16.5886C83.8979 16.5886 83.236 16.4067 82.6564 16.0431C82.0769 15.6795 81.6209 15.1624 81.2886 14.492C80.9562 13.8215 80.79 13.0261 80.79 12.1056C80.79 11.1851 80.9562 10.3897 81.2886 9.71924C81.6209 9.04878 82.0769 8.53174 82.6564 8.1681C83.236 7.80447 83.8979 7.62265 84.6422 7.62265C85.3866 7.62265 86.0485 7.80447 86.628 8.1681C87.2076 8.53174 87.6636 9.04878 87.9959 9.71924C88.3283 10.3897 88.4945 11.1851 88.4945 12.1056ZM87.4718 12.1056C87.4718 11.3499 87.3454 10.7121 87.0925 10.1922C86.8425 9.67236 86.503 9.2789 86.0741 9.01185C85.6479 8.74481 85.1707 8.61128 84.6422 8.61128C84.1138 8.61128 83.6351 8.74481 83.2062 9.01185C82.78 9.2789 82.4405 9.67236 82.1877 10.1922C81.9377 10.7121 81.8127 11.3499 81.8127 12.1056C81.8127 12.8613 81.9377 13.4991 82.1877 14.019C82.4405 14.5388 82.78 14.9323 83.2062 15.1994C83.6351 15.4664 84.1138 15.5999 84.6422 15.5999C85.1707 15.5999 85.6479 15.4664 86.0741 15.1994C86.503 14.9323 86.8425 14.5388 87.0925 14.019C87.3454 13.4991 87.4718 12.8613 87.4718 12.1056ZM97.072 7.74197V16.4692H96.0492L91.2936 9.61697H91.2083V16.4692H90.1515V7.74197H91.1742L95.947 14.6113H96.0322V7.74197H97.072Z" fill="white"/>
<path d="M50.679 26.5687C50.5606 26.1851 50.3973 25.8419 50.1889 25.5388C49.9853 25.2311 49.7391 24.9683 49.4503 24.7505C49.1662 24.5327 48.8395 24.3693 48.4702 24.2604C48.1009 24.1468 47.6984 24.09 47.2628 24.09C46.4815 24.09 45.7855 24.2865 45.1747 24.6795C44.5639 25.0725 44.0833 25.6501 43.733 26.4124C43.3873 27.17 43.2145 28.0933 43.2145 29.1823C43.2145 30.2808 43.3873 31.2112 43.733 31.9735C44.0786 32.7358 44.5592 33.3158 45.1747 33.7136C45.7902 34.1065 46.5052 34.303 47.3196 34.303C48.0582 34.303 48.6974 34.161 49.2372 33.8769C49.7817 33.5928 50.2008 33.1904 50.4943 32.6695C50.7879 32.144 50.9347 31.5284 50.9347 30.8229L51.5312 30.9153H47.5824V28.8556H53.4844V30.6028C53.4844 31.848 53.2192 32.9252 52.6889 33.8343C52.1586 34.7434 51.4295 35.4441 50.5014 35.9366C49.5734 36.4243 48.508 36.6681 47.3054 36.6681C45.9654 36.6681 44.7888 36.3674 43.7756 35.7661C42.767 35.1601 41.9787 34.3007 41.4105 33.188C40.8471 32.0706 40.5653 30.7448 40.5653 29.2107C40.5653 28.0365 40.7311 26.9877 41.0625 26.0644C41.3987 25.1411 41.8674 24.3575 42.4688 23.7136C43.0701 23.0649 43.7756 22.5725 44.5852 22.2363C45.3949 21.8954 46.2756 21.7249 47.2273 21.7249C48.0322 21.7249 48.7827 21.8433 49.4787 22.08C50.1747 22.312 50.7926 22.6435 51.3324 23.0744C51.8769 23.5052 52.3243 24.0166 52.6747 24.6084C53.0251 25.2003 53.2547 25.8537 53.3636 26.5687H50.679ZM60.4772 36.6823C59.4119 36.6823 58.4886 36.4479 57.7073 35.9792C56.9261 35.5104 56.32 34.8547 55.8891 34.0119C55.463 33.169 55.2499 32.1842 55.2499 31.0573C55.2499 29.9304 55.463 28.9432 55.8891 28.0957C56.32 27.2481 56.9261 26.59 57.7073 26.1212C58.4886 25.6525 59.4119 25.4181 60.4772 25.4181C61.5425 25.4181 62.4658 25.6525 63.2471 26.1212C64.0283 26.59 64.632 27.2481 65.0582 28.0957C65.489 28.9432 65.7045 29.9304 65.7045 31.0573C65.7045 32.1842 65.489 33.169 65.0582 34.0119C64.632 34.8547 64.0283 35.5104 63.2471 35.9792C62.4658 36.4479 61.5425 36.6823 60.4772 36.6823ZM60.4914 34.6226C61.0691 34.6226 61.552 34.464 61.9403 34.1468C62.3285 33.8248 62.6174 33.394 62.8067 32.8542C63.0009 32.3144 63.0979 31.7131 63.0979 31.0502C63.0979 30.3826 63.0009 29.7789 62.8067 29.2391C62.6174 28.6946 62.3285 28.2614 61.9403 27.9394C61.552 27.6174 61.0691 27.4565 60.4914 27.4565C59.8996 27.4565 59.4071 27.6174 59.0141 27.9394C58.6259 28.2614 58.3347 28.6946 58.1406 29.2391C57.9512 29.7789 57.8565 30.3826 57.8565 31.0502C57.8565 31.7131 57.9512 32.3144 58.1406 32.8542C58.3347 33.394 58.6259 33.8248 59.0141 34.1468C59.4071 34.464 59.8996 34.6226 60.4914 34.6226ZM72.4452 36.6823C71.3798 36.6823 70.4565 36.4479 69.6753 35.9792C68.894 35.5104 68.288 34.8547 67.8571 34.0119C67.431 33.169 67.2179 32.1842 67.2179 31.0573C67.2179 29.9304 67.431 28.9432 67.8571 28.0957C68.288 27.2481 68.894 26.59 69.6753 26.1212C70.4565 25.6525 71.3798 25.4181 72.4452 25.4181C73.5105 25.4181 74.4338 25.6525 75.2151 26.1212C75.9963 26.59 76.6 27.2481 77.0261 28.0957C77.457 28.9432 77.6724 29.9304 77.6724 31.0573C77.6724 32.1842 77.457 33.169 77.0261 34.0119C76.6 34.8547 75.9963 35.5104 75.2151 35.9792C74.4338 36.4479 73.5105 36.6823 72.4452 36.6823ZM72.4594 34.6226C73.037 34.6226 73.52 34.464 73.9082 34.1468C74.2965 33.8248 74.5853 33.394 74.7747 32.8542C74.9688 32.3144 75.0659 31.7131 75.0659 31.0502C75.0659 30.3826 74.9688 29.7789 74.7747 29.2391C74.5853 28.6946 74.2965 28.2614 73.9082 27.9394C73.52 27.6174 73.037 27.4565 72.4594 27.4565C71.8675 27.4565 71.3751 27.6174 70.9821 27.9394C70.5938 28.2614 70.3027 28.6946 70.1085 29.2391C69.9191 29.7789 69.8244 30.3826 69.8244 31.0502C69.8244 31.7131 69.9191 32.3144 70.1085 32.8542C70.3027 33.394 70.5938 33.8248 70.9821 34.1468C71.3751 34.464 71.8675 34.6226 72.4594 34.6226ZM84.3989 40.7874C83.4756 40.7874 82.6826 40.6619 82.0197 40.411C81.3568 40.1648 80.8241 39.8333 80.4217 39.4167C80.0192 39 79.7398 38.5384 79.5836 38.0317L81.8989 37.4707C82.0031 37.6837 82.1546 37.8944 82.3535 38.1028C82.5523 38.3158 82.8199 38.491 83.156 38.6283C83.4969 38.7704 83.9255 38.8414 84.4416 38.8414C85.1707 38.8414 85.7744 38.6638 86.2526 38.3087C86.7308 37.9583 86.97 37.3807 86.97 36.5758V34.509H86.8421C86.7095 34.7742 86.5154 35.0464 86.2597 35.3258C86.0088 35.6051 85.675 35.8395 85.2583 36.0289C84.8464 36.2183 84.3279 36.313 83.7029 36.313C82.8648 36.313 82.1049 36.1165 81.4231 35.7235C80.746 35.3258 80.2062 34.7339 79.8038 33.9479C79.406 33.1572 79.2072 32.1676 79.2072 30.9792C79.2072 29.7813 79.406 28.7704 79.8038 27.9465C80.2062 27.1179 80.7484 26.4905 81.4302 26.0644C82.112 25.6335 82.8719 25.4181 83.71 25.4181C84.3492 25.4181 84.8748 25.527 85.2867 25.7448C85.7034 25.9579 86.0348 26.2159 86.281 26.519C86.5273 26.8172 86.7143 27.099 86.8421 27.3641H86.9842V25.5601H89.5197V36.6468C89.5197 37.5796 89.2971 38.3513 88.8521 38.9621C88.407 39.5729 87.7986 40.0298 87.0268 40.3329C86.255 40.6359 85.3791 40.7874 84.3989 40.7874ZM84.4202 34.2959C84.9648 34.2959 85.4288 34.1634 85.8123 33.8982C86.1958 33.6331 86.487 33.2519 86.6859 32.7547C86.8847 32.2576 86.9842 31.661 86.9842 30.965C86.9842 30.2784 86.8847 29.6771 86.6859 29.161C86.4917 28.6449 86.2029 28.2448 85.8194 27.9607C85.4406 27.6719 84.9742 27.5275 84.4202 27.5275C83.8473 27.5275 83.3691 27.6766 82.9856 27.9749C82.6021 28.2732 82.3132 28.6828 82.1191 29.2036C81.925 29.7197 81.8279 30.3068 81.8279 30.965C81.8279 31.6326 81.925 32.2173 82.1191 32.7192C82.318 33.2164 82.6092 33.6047 82.9927 33.884C83.3809 34.1586 83.8568 34.2959 84.4202 34.2959ZM94.5256 21.9238V36.4692H91.9546V21.9238H94.5256ZM101.799 36.6823C100.705 36.6823 99.7607 36.455 98.9652 36.0005C98.1745 35.5412 97.5661 34.8925 97.1399 34.0545C96.7138 33.2117 96.5007 32.2197 96.5007 31.0786C96.5007 29.9565 96.7138 28.9716 97.1399 28.1241C97.5708 27.2718 98.1721 26.6089 98.9439 26.1354C99.7157 25.6572 100.622 25.4181 101.664 25.4181C102.336 25.4181 102.971 25.527 103.567 25.7448C104.169 25.9579 104.699 26.2893 105.158 26.7391C105.622 27.1889 105.987 27.7619 106.252 28.4579C106.517 29.1492 106.65 29.973 106.65 30.9295V31.7178H97.7081V29.9849H104.185C104.181 29.4924 104.074 29.0545 103.866 28.6709C103.657 28.2827 103.366 27.9773 102.992 27.7547C102.623 27.5322 102.192 27.4209 101.7 27.4209C101.174 27.4209 100.712 27.5488 100.315 27.8045C99.9169 28.0554 99.6068 28.3869 99.3842 28.7988C99.1664 29.206 99.0552 29.6534 99.0504 30.1411V31.6539C99.0504 32.2884 99.1664 32.8329 99.3984 33.2874C99.6304 33.7372 99.9548 34.0829 100.371 34.3244C100.788 34.5611 101.276 34.6795 101.835 34.6795C102.209 34.6795 102.547 34.6274 102.85 34.5232C103.153 34.4143 103.416 34.2557 103.638 34.0474C103.861 33.839 104.029 33.581 104.143 33.2732L106.543 33.5431C106.392 34.1776 106.103 34.7315 105.677 35.205C105.255 35.6738 104.716 36.0384 104.058 36.2988C103.399 36.5545 102.647 36.6823 101.799 36.6823ZM113.5 36.4692V21.9238H118.954C120.071 21.9238 121.009 22.1321 121.767 22.5488C122.529 22.9654 123.104 23.5384 123.492 24.2675C123.885 24.992 124.082 25.8158 124.082 26.7391C124.082 27.6719 123.885 28.5005 123.492 29.2249C123.099 29.9494 122.519 30.5199 121.752 30.9366C120.985 31.3485 120.041 31.5545 118.919 31.5545H115.303V29.3883H118.563C119.217 29.3883 119.752 29.2746 120.169 29.0474C120.585 28.8201 120.893 28.5076 121.092 28.1099C121.295 27.7121 121.397 27.2552 121.397 26.7391C121.397 26.223 121.295 25.7685 121.092 25.3755C120.893 24.9825 120.583 24.6771 120.161 24.4593C119.745 24.2368 119.207 24.1255 118.549 24.1255H116.134V36.4692H113.5ZM128.628 21.9238V36.4692H126.057V21.9238H128.628ZM134.211 36.6894C133.52 36.6894 132.897 36.5663 132.343 36.3201C131.794 36.0691 131.358 35.6998 131.036 35.2121C130.719 34.7244 130.56 34.1231 130.56 33.4082C130.56 32.7926 130.674 32.2836 130.901 31.8812C131.129 31.4787 131.439 31.1567 131.832 30.9153C132.225 30.6738 132.667 30.4915 133.16 30.3684C133.657 30.2405 134.171 30.1482 134.701 30.0914C135.34 30.0251 135.859 29.9659 136.256 29.9138C136.654 29.857 136.943 29.7718 137.123 29.6582C137.308 29.5398 137.4 29.3575 137.4 29.1113V29.0687C137.4 28.5336 137.241 28.1193 136.924 27.8258C136.607 27.5322 136.15 27.3854 135.553 27.3854C134.924 27.3854 134.424 27.5227 134.055 27.7974C133.69 28.072 133.444 28.3963 133.316 28.7704L130.916 28.4295C131.105 27.7666 131.417 27.2126 131.853 26.7675C132.289 26.3177 132.821 25.9815 133.451 25.759C134.081 25.5317 134.777 25.4181 135.539 25.4181C136.065 25.4181 136.588 25.4797 137.109 25.6028C137.63 25.7259 138.105 25.9295 138.536 26.2136C138.967 26.4929 139.313 26.8741 139.573 27.357C139.838 27.84 139.971 28.4437 139.971 29.1681V36.4692H137.499V34.9707H137.414C137.258 35.2737 137.038 35.5578 136.754 35.8229C136.474 36.0833 136.122 36.294 135.695 36.455C135.274 36.6113 134.779 36.6894 134.211 36.6894ZM134.879 34.8002C135.395 34.8002 135.842 34.6984 136.221 34.4948C136.6 34.2865 136.891 34.0119 137.095 33.6709C137.303 33.33 137.407 32.9583 137.407 32.5559V31.2704C137.327 31.3367 137.189 31.3982 136.995 31.455C136.806 31.5119 136.593 31.5616 136.356 31.6042C136.119 31.6468 135.885 31.6847 135.653 31.7178C135.421 31.751 135.22 31.7794 135.049 31.803C134.666 31.8551 134.322 31.9404 134.019 32.0587C133.716 32.1771 133.477 32.3428 133.302 32.5559C133.127 32.7642 133.039 33.0341 133.039 33.3655C133.039 33.839 133.212 34.1965 133.558 34.438C133.903 34.6795 134.344 34.8002 134.879 34.8002ZM143.564 40.5601C143.213 40.5601 142.889 40.5317 142.591 40.4749C142.297 40.4228 142.063 40.3613 141.887 40.2903L142.484 38.2874C142.858 38.3963 143.192 38.4484 143.485 38.4437C143.779 38.4389 144.037 38.3466 144.26 38.1667C144.487 37.9915 144.679 37.6979 144.835 37.286L145.055 36.6965L141.099 25.5601H143.826L146.341 33.7988H146.454L148.975 25.5601H151.71L147.342 37.7903C147.138 38.3679 146.868 38.8627 146.532 39.2746C146.196 39.6913 145.784 40.0085 145.297 40.2263C144.814 40.4489 144.236 40.5601 143.564 40.5601Z" fill="white"/>
<defs>
<clipPath id="clip0_820_10418">
<rect width="30" height="33.1614" fill="white" transform="translate(0.5 4.38843)"/>
</clipPath>
</defs>
</svg>
