<svg width="31" height="31" viewBox="0 0 31 31" fill="none" xmlns="http://www.w3.org/2000/svg">
<path d="M13.4058 5.82828C13.9388 3.63276 17.0612 3.63276 17.5942 5.82828C17.9385 7.24655 19.5634 7.91961 20.8098 7.1602C22.7391 5.98463 24.947 8.19252 23.7714 10.1219C23.012 11.3682 23.6851 12.9931 25.1034 13.3374C27.2989 13.8704 27.2989 16.9929 25.1034 17.5259C23.6851 17.8702 23.012 19.4951 23.7714 20.7414C24.947 22.6708 22.7391 24.8787 20.8098 23.7031C19.5634 22.9437 17.9385 23.6167 17.5942 25.035C17.0612 27.2305 13.9388 27.2305 13.4058 25.035C13.0615 23.6167 11.4366 22.9437 10.1902 23.7031C8.26088 24.8787 6.05299 22.6708 7.22856 20.7414C7.98797 19.4951 7.31491 17.8702 5.89664 17.5259C3.70112 16.9929 3.70112 13.8704 5.89664 13.3374C7.31491 12.9931 7.98797 11.3682 7.22856 10.1219C6.05299 8.19252 8.26088 5.98463 10.1902 7.1602C11.4366 7.91961 13.0615 7.24655 13.4058 5.82828Z" stroke="white" stroke-width="2" stroke-linecap="round" stroke-linejoin="round"/>
<path d="M19.25 15.4316C19.25 17.5027 17.5711 19.1816 15.5 19.1816C13.4289 19.1816 11.75 17.5027 11.75 15.4316C11.75 13.3606 13.4289 11.6816 15.5 11.6816C17.5711 11.6816 19.25 13.3606 19.25 15.4316Z" stroke="white" stroke-width="2" stroke-linecap="round" stroke-linejoin="round"/>
</svg>
