<svg width="250" height="250" viewBox="0 0 250 250" fill="none" xmlns="http://www.w3.org/2000/svg">
<path d="M250 191.199H0V191.324H250V191.199Z" fill="#EBEBEB"/>
<path d="M224.951 199.247H208.39V199.372H224.951V199.247Z" fill="#EBEBEB"/>
<path d="M165.61 200.604H161.264V200.729H165.61V200.604Z" fill="#EBEBEB"/>
<path d="M207.889 194.604H198.293V194.729H207.889V194.604Z" fill="#EBEBEB"/>
<path d="M47.826 195.444H26.2295V195.569H47.826V195.444Z" fill="#EBEBEB"/>
<path d="M55.4443 195.444H52.2778V195.569H55.4443V195.444Z" fill="#EBEBEB"/>
<path d="M112.573 197.555H65.7354V197.68H112.573V197.555Z" fill="#EBEBEB"/>
<path d="M118.507 168.9H21.9575C20.384 168.9 19.1035 167.619 19.1035 166.046V30.33C19.1035 28.7565 20.384 27.476 21.9575 27.476H118.507C120.08 27.476 121.361 28.7565 121.361 30.33V166.046C121.361 167.619 120.08 168.9 118.507 168.9ZM21.9575 27.6015C20.4525 27.6015 19.2285 28.8255 19.2285 30.3305V166.046C19.2285 167.551 20.4525 168.775 21.9575 168.775H118.507C120.012 168.775 121.236 167.551 121.236 166.046V30.33C121.236 28.8255 120.012 27.601 118.507 27.601L21.9575 27.6015Z" fill="#EBEBEB"/>
<path d="M226.655 168.9H130.106C128.532 168.9 127.252 167.619 127.252 166.046V30.33C127.252 28.7565 128.533 27.476 130.106 27.476H226.655C228.229 27.476 229.509 28.7565 229.509 30.33V166.046C229.509 167.619 228.229 168.9 226.655 168.9ZM130.106 27.6015C128.601 27.6015 127.377 28.8255 127.377 30.3305V166.046C127.377 167.551 128.601 168.775 130.106 168.775H226.655C228.16 168.775 229.384 167.551 229.384 166.046V30.33C229.384 28.8255 228.16 27.601 226.655 27.601L130.106 27.6015Z" fill="#EBEBEB"/>
<path d="M99.6152 154.395H95.4002H92.6172L100.41 160.844H101.842H103.114L101.297 158.081L106.605 160.844H107.886H109.397L99.6152 154.395Z" fill="#E0E0E0"/>
<path d="M44.3726 160.844H47.1641L53.3586 157.62L50.6551 160.844H53.3586L61.1521 154.395H54.1541L44.3726 160.844Z" fill="#E0E0E0"/>
<path d="M51.9271 160.844L58.3686 154.395H54.1541L44.3726 160.844H45.8836L53.3586 156.734L50.6551 160.844H51.9271Z" fill="#F0F0F0"/>
<path d="M30.1294 160.844V191.436H124.34V160.844H30.1294ZM122.8 172.825H47.1639V162.826H122.8V172.825Z" fill="#E0E0E0"/>
<path d="M45.1055 160.844V191.436H124.34V160.844H45.1055ZM122.8 172.825H47.164V162.826H122.8V172.825Z" fill="#EBEBEB"/>
<path d="M122.801 162.828H109.01V172.825H122.801V162.828Z" fill="#E0E0E0"/>
<path d="M67.1341 167.826H47.1641V172.824H67.1341V167.826Z" fill="#E0E0E0"/>
<path d="M81.2361 169.856H68.3921V172.825H81.2361V169.856Z" fill="#E0E0E0"/>
<path d="M99.3506 166.752H84.2056V172.825H99.3506V166.752Z" fill="#E0E0E0"/>
<path d="M62.2001 175.002L61.8331 176.196H56.9221L56.5556 175.002H47.1641V188.274H71.5916V175.002H62.2001Z" fill="#E0E0E0"/>
<path d="M87.7723 175.002L87.4058 176.196H82.4948L82.1283 175.002H72.7368V188.274H97.1643V175.002H87.7723Z" fill="#E0E0E0"/>
<path d="M113.346 175.002L112.979 176.196H108.068L107.702 175.002H98.3096V188.274H122.737V175.002H113.346Z" fill="#E0E0E0"/>
<path d="M107.745 155.249H42.8504C41.8754 155.249 41.0854 154.458 41.0854 153.484V115.669C41.0854 114.694 41.8759 113.904 42.8504 113.904H107.745C108.72 113.904 109.511 114.694 109.511 115.669V153.484C109.51 154.459 108.72 155.249 107.745 155.249Z" fill="#E0E0E0"/>
<path d="M109.353 155.249H44.4584C43.4834 155.249 42.6934 154.458 42.6934 153.484V115.669C42.6934 114.694 43.4839 113.904 44.4584 113.904H109.353C110.328 113.904 111.119 114.694 111.119 115.669V153.484C111.118 154.459 110.328 155.249 109.353 155.249Z" fill="#E6E6E6"/>
<path d="M109.108 153.239V115.914L44.7034 115.914V153.239H109.108Z" fill="#F0F0F0"/>
<path d="M188.484 68.2703C193.555 66.9879 196.625 61.838 195.343 56.7677C194.061 51.6973 188.911 48.6266 183.84 49.9089C178.77 51.1913 175.699 56.3412 176.982 61.4115C178.264 66.4819 183.414 69.5526 188.484 68.2703Z" fill="#E0E0E0"/>
<path d="M193.999 60.9493C195.021 56.6218 192.341 52.2852 188.013 51.2634C183.686 50.2415 179.349 52.9213 178.327 57.2489C177.305 61.5764 179.985 65.913 184.313 66.9348C188.64 67.9567 192.977 65.2769 193.999 60.9493Z" fill="#F0F0F0"/>
<path d="M185.778 53.5635V59.192L182.048 57.0815" fill="#F0F0F0"/>
<path d="M185.778 53.5635V59.192L182.048 57.0815" stroke="#E0E0E0" stroke-width="2" stroke-miterlimit="10" stroke-linecap="round" stroke-linejoin="round"/>
<path d="M57.1845 59.1185C57.1845 59.1185 56.7275 56.106 58.925 54.1745C61.122 52.243 60.929 51.094 60.3015 50.944C59.6735 50.794 59.094 52.726 58.1285 53.257C58.1285 53.257 58.098 50.5045 59.079 49.4905C60.06 48.4765 60.575 45.864 59.6415 45.818C58.708 45.772 58.6115 47.3695 58.4185 48.5025C58.2255 49.6355 57.185 51.229 57.185 51.229C57.185 51.229 56.982 48.766 56.348 47.752C55.714 46.738 57.404 44.42 56.7525 43.406C56.1005 42.392 54.9415 44.3235 55.038 46.4965C55.1345 48.6695 56.5835 50.9875 56.245 53.257C56.245 53.257 55.606 51.6635 55.032 51.5185C54.458 51.3735 53.8785 50.3195 53.4925 49.929C53.106 49.5385 52.6235 50.8905 53.4925 52.146C54.3615 53.4015 56.583 56.7605 56.245 59.4755L57.1845 59.1185Z" fill="#E6E6E6"/>
<path d="M58.4979 57.7479L59.2174 62.2629C59.4399 63.6574 58.3624 64.9199 56.9499 64.9199H56.1824C54.7704 64.9199 53.6929 63.6574 53.9154 62.2629L54.6349 57.7479H58.4979Z" fill="#E6E6E6"/>
<path d="M47.6151 65.8676H98.4756V63.2546L47.6151 63.2546V65.8676Z" fill="#E0E0E0"/>
<path d="M93.8943 63.2544H96.1348V53.6219H93.8943V63.2544Z" fill="#EBEBEB"/>
<path d="M83.0593 63.2544H85.2998V53.6219H83.0593V63.2544Z" fill="#EBEBEB"/>
<path d="M69.1201 62.8746L71.3281 63.255L72.9637 53.7622L70.7557 53.3817L69.1201 62.8746Z" fill="#EBEBEB"/>
<path d="M91.1174 63.2543H93.3584V54.8913H91.1174V63.2543Z" fill="#EBEBEB"/>
<path d="M85.9675 63.2543H88.208V54.8913H85.9675V63.2543Z" fill="#EBEBEB"/>
<path d="M72.9675 63.2543H75.2085V54.8913H72.9675V63.2543Z" fill="#EBEBEB"/>
<path d="M78.3026 62.7678L80.4897 63.2538L82.3037 55.0898L80.1165 54.6039L78.3026 62.7678Z" fill="#EBEBEB"/>
<path d="M89.1798 63.2542H90.3003V53.1432H89.1798V63.2542Z" fill="#EBEBEB"/>
<path d="M75.8522 63.2542H76.9727V53.1432H75.8522V63.2542Z" fill="#EBEBEB"/>
<path d="M98.4752 82.7625H47.6147V85.3755H98.4752V82.7625Z" fill="#E0E0E0"/>
<path d="M52.1961 73.13H49.9556V82.7625H52.1961V73.13Z" fill="#EBEBEB"/>
<path d="M63.0305 73.13H60.79V82.7625H63.0305V73.13Z" fill="#EBEBEB"/>
<path d="M75.3301 72.8942L73.1221 73.2747L74.7577 82.7675L76.9657 82.3871L75.3301 72.8942Z" fill="#EBEBEB"/>
<path d="M54.9729 74.3995H52.7324V82.7625H54.9729V74.3995Z" fill="#EBEBEB"/>
<path d="M60.1228 74.3995H57.8823V82.7625H60.1228V74.3995Z" fill="#EBEBEB"/>
<path d="M73.1228 74.3995H70.8823V82.7625H73.1228V74.3995Z" fill="#EBEBEB"/>
<path d="M65.9748 74.1124L63.7876 74.5984L65.6015 82.7624L67.7887 82.2764L65.9748 74.1124Z" fill="#EBEBEB"/>
<path d="M56.9105 72.6515H55.79V82.7625H56.9105V72.6515Z" fill="#EBEBEB"/>
<path d="M70.2382 72.6515H69.1177V82.7625H70.2382V72.6515Z" fill="#EBEBEB"/>
<path d="M93.5952 75.1384H82.6772V82.6759H93.5952V75.1384Z" fill="#EBEBEB"/>
<path d="M125 213.781C178.541 213.781 221.945 211.246 221.945 208.119C221.945 204.992 178.541 202.458 125 202.458C71.4592 202.458 28.0557 204.992 28.0557 208.119C28.0557 211.246 71.4592 213.781 125 213.781Z" fill="#F5F5F5"/>
<path d="M37.127 172.068C37.127 172.068 40.043 169.636 42.5435 172.068C45.044 174.499 45.5265 189.56 45.5265 189.56" stroke="#407BFF" stroke-miterlimit="10"/>
<path d="M45.7328 192.469C45.7328 192.469 44.0138 174.793 50.4858 167.365" stroke="#407BFF" stroke-miterlimit="10"/>
<path d="M45.1174 190.606C45.1174 190.606 46.4414 170.484 41.5874 166.02" stroke="#407BFF" stroke-miterlimit="10"/>
<path d="M45.7329 190.606C45.7329 190.606 45.8459 177.31 49.4529 175.243C53.0599 173.176 54.8984 179.917 54.8984 179.917" stroke="#407BFF" stroke-miterlimit="10"/>
<path d="M44.3082 190.606C44.3082 190.606 44.8967 180.399 42.1017 176.75C39.3067 173.102 36.3652 178.313 36.3652 178.313" stroke="#407BFF" stroke-miterlimit="10"/>
<path d="M45.282 191.974C45.282 191.974 43.4745 168.101 46.4655 164.056" stroke="#407BFF" stroke-miterlimit="10"/>
<path d="M52.5415 177.179C52.5415 177.179 50.743 177.842 51.2775 179.408C51.8125 180.973 57.4995 183.549 57.4995 183.549C57.4995 183.549 59.8815 181.366 57.694 177.815C55.5065 174.265 52.59 176.059 52.5415 177.179Z" fill="#407BFF"/>
<path opacity="0.2" d="M52.5415 177.179C52.5415 177.179 50.743 177.842 51.2775 179.408C51.8125 180.973 57.4995 183.549 57.4995 183.549C57.4995 183.549 59.8815 181.366 57.694 177.815C55.5065 174.265 52.59 176.059 52.5415 177.179Z" fill="white"/>
<path d="M44.723 174.199C44.723 174.199 46.6385 174.119 46.747 175.77C46.856 177.42 42.598 181.987 42.598 181.987C42.598 181.987 39.5595 180.888 40.212 176.769C40.865 172.651 44.247 173.184 44.723 174.199Z" fill="#407BFF"/>
<path opacity="0.2" d="M44.723 174.199C44.723 174.199 46.6385 174.119 46.747 175.77C46.856 177.42 42.598 181.987 42.598 181.987C42.598 181.987 39.5595 180.888 40.212 176.769C40.865 172.651 44.247 173.184 44.723 174.199Z" fill="white"/>
<path d="M43.1014 166.298C43.1014 166.298 44.3784 166.161 44.2754 165.383C44.1724 164.605 39.3114 162.604 36.4434 165.841C36.4434 165.841 38.2799 168.995 40.9344 169.036C43.5894 169.078 43.1014 166.298 43.1014 166.298Z" fill="#407BFF"/>
<path opacity="0.2" d="M43.1014 166.298C43.1014 166.298 44.3784 166.161 44.2754 165.383C44.1724 164.605 39.3114 162.604 36.4434 165.841C36.4434 165.841 38.2799 168.995 40.9344 169.036C43.5894 169.078 43.1014 166.298 43.1014 166.298Z" fill="white"/>
<path d="M45.4805 164.409C45.4805 164.409 44.3245 164.968 44 164.254C43.676 163.539 46.7425 159.269 50.8885 160.5C50.8885 160.5 50.9985 164.148 48.767 165.587C46.5365 167.026 45.4805 164.409 45.4805 164.409Z" fill="#407BFF"/>
<path opacity="0.2" d="M45.4805 164.409C45.4805 164.409 44.3245 164.968 44 164.254C43.676 163.539 46.7425 159.269 50.8885 160.5C50.8885 160.5 50.9985 164.148 48.767 165.587C46.5365 167.026 45.4805 164.409 45.4805 164.409Z" fill="white"/>
<path d="M39.4352 176.55C39.4352 176.55 40.3167 175.839 39.3657 175.491C38.4147 175.144 33.7482 175.243 33.6997 179.865C33.6997 179.865 39.1347 180.768 39.8072 179.008C40.4797 177.247 39.4352 176.55 39.4352 176.55Z" fill="#407BFF"/>
<path opacity="0.2" d="M39.4352 176.55C39.4352 176.55 40.3167 175.839 39.3657 175.491C38.4147 175.144 33.7482 175.243 33.6997 179.865C33.6997 179.865 39.1347 180.768 39.8072 179.008C40.4797 177.247 39.4352 176.55 39.4352 176.55Z" fill="white"/>
<path d="M50.5181 166.183C50.5181 166.183 49.6366 165.471 50.5876 165.124C51.5386 164.776 56.2051 164.875 56.2536 169.498C56.2536 169.498 50.8186 170.401 50.1461 168.64C49.4736 166.88 50.5181 166.183 50.5181 166.183Z" fill="#407BFF"/>
<path opacity="0.2" d="M50.5181 166.183C50.5181 166.183 49.6366 165.471 50.5876 165.124C51.5386 164.776 56.2051 164.875 56.2536 169.498C56.2536 169.498 50.8186 170.401 50.1461 168.64C49.4736 166.88 50.5181 166.183 50.5181 166.183Z" fill="white"/>
<path d="M47.6449 169.907C47.6449 169.907 47.5674 169.042 48.2659 169.381C48.9644 169.72 51.3969 172.344 48.8754 174.835C48.8754 174.835 45.4809 172.321 46.0929 171.011C46.7044 169.702 47.6449 169.907 47.6449 169.907Z" fill="#407BFF"/>
<path opacity="0.2" d="M47.6449 169.907C47.6449 169.907 47.5674 169.042 48.2659 169.381C48.9644 169.72 51.3969 172.344 48.8754 174.835C48.8754 174.835 45.4809 172.321 46.0929 171.011C46.7044 169.702 47.6449 169.907 47.6449 169.907Z" fill="white"/>
<path d="M38.6471 171.139C38.6471 171.139 39.1741 170.448 38.4026 170.363C37.6311 170.277 34.1736 171.2 34.9786 174.652C34.9786 174.652 39.1906 174.335 39.3716 172.901C39.5521 171.467 38.6471 171.139 38.6471 171.139Z" fill="#407BFF"/>
<path opacity="0.2" d="M38.6471 171.139C38.6471 171.139 39.1741 170.448 38.4026 170.363C37.6311 170.277 34.1736 171.2 34.9786 174.652C34.9786 174.652 39.1906 174.335 39.3716 172.901C39.5521 171.467 38.6471 171.139 38.6471 171.139Z" fill="white"/>
<path d="M52.8782 203.42H38.4252L36.8657 187.596H54.4372L52.8782 203.42Z" fill="#407BFF"/>
<path opacity="0.5" d="M52.8782 203.42H38.4252L36.8657 187.596H54.4372L52.8782 203.42Z" fill="white"/>
<path d="M55.2087 185.85H36.0942V189.342H55.2087V185.85Z" fill="#407BFF"/>
<path opacity="0.2" d="M55.2087 185.85H36.0942V189.342H55.2087V185.85Z" fill="white"/>
<path d="M170.009 203.42L170.04 203.235L170.887 193.345H174.487L171.913 203.42" fill="#263238"/>
<path d="M203.369 203.42L203.339 203.235L202.491 193.345H198.891L201.465 203.42" fill="#263238"/>
<path d="M165.261 203.42L165.292 203.235L166.931 193.345H170.531L167.166 203.42" fill="#263238"/>
<path d="M208.117 203.42L208.087 203.235L206.448 193.345H202.848L206.213 203.42" fill="#263238"/>
<g opacity="0.2">
<path d="M165.261 203.42L165.292 203.235L166.931 193.345H170.531L167.166 203.42" fill="white"/>
<path d="M208.117 203.42L208.087 203.235L206.448 193.345H202.848L206.213 203.42" fill="white"/>
</g>
<path d="M208.387 134.146H164.992C163.894 134.146 163.003 135.036 163.003 136.135V193.56C163.003 194.659 163.893 195.55 164.992 195.55H208.387C209.485 195.55 210.376 194.659 210.376 193.56V136.135C210.376 135.036 209.485 134.146 208.387 134.146Z" fill="#407BFF"/>
<path opacity="0.4" d="M208.387 134.146H164.992C163.894 134.146 163.003 135.036 163.003 136.135V193.56C163.003 194.659 163.893 195.55 164.992 195.55H208.387C209.485 195.55 210.376 194.659 210.376 193.56V136.135C210.376 135.036 209.485 134.146 208.387 134.146Z" fill="white"/>
<path opacity="0.5" d="M208.446 147.533H164.934V169.7H208.446V147.533Z" fill="white"/>
<path opacity="0.5" d="M208.446 171.177H164.934V193.345H208.446V171.177Z" fill="white"/>
<path opacity="0.5" d="M208.446 136.35H164.934V146.056H208.446V136.35Z" fill="white"/>
<path opacity="0.5" d="M190.247 137.963H183.131C182.696 137.963 182.298 137.715 182.107 137.324L181.629 136.35H191.75L191.272 137.324C191.08 137.715 190.683 137.963 190.247 137.963Z" fill="black"/>
<path opacity="0.5" d="M190.247 149.146H183.131C182.696 149.146 182.298 148.899 182.107 148.508L181.629 147.533H191.75L191.272 148.508C191.08 148.899 190.683 149.146 190.247 149.146Z" fill="black"/>
<path opacity="0.5" d="M190.247 172.791H183.131C182.696 172.791 182.298 172.543 182.107 172.152L181.629 171.178H191.75L191.272 172.152C191.08 172.543 190.683 172.791 190.247 172.791Z" fill="black"/>
<path d="M199.346 127.371L203.104 134.145H198.423L199.346 127.371Z" fill="#407BFF"/>
<path opacity="0.2" d="M199.346 127.371L203.104 134.145H198.423L199.346 127.371Z" fill="black"/>
<path d="M200.599 134.146H191.75L194.519 122.682H203.368L200.599 134.146Z" fill="#407BFF"/>
<path opacity="0.5" d="M192.97 133.236L195.3 123.592H202.149L199.819 133.236H192.97Z" fill="white"/>
<path d="M174.707 128.926L172.511 134.146H178.381L174.707 128.926Z" fill="#407BFF"/>
<path d="M186.692 134.145H175.449L172.811 126H184.055L186.692 134.145Z" fill="#407BFF"/>
<path opacity="0.2" d="M186.692 134.145H175.449L172.811 126H184.055L186.692 134.145Z" fill="white"/>
<path opacity="0.5" d="M176.068 132.971L174.192 127.175H183.435L185.312 132.971H176.068Z" fill="white"/>
<path d="M136.615 210.809H64.7806C61.9081 210.809 59.5796 208.48 59.5796 205.608V78.0955C59.5796 75.223 61.9081 72.8945 64.7806 72.8945H136.615C139.488 72.8945 141.816 75.223 141.816 78.0955V205.608C141.816 208.48 139.488 210.809 136.615 210.809Z" fill="#263238"/>
<path d="M139.041 77.8496V205.589C139.041 206.722 138.13 207.602 136.997 207.602H64.18C63.1385 207.602 62.3545 206.796 62.3545 205.755V77.6836C62.3545 76.7816 63.017 75.993 63.919 75.993H82.1235C82.6375 75.993 83.104 76.3285 83.2955 76.812L84.0495 78.6681C84.241 79.1476 84.7075 79.4786 85.2215 79.4786H116.214C116.728 79.4786 117.194 79.1606 117.386 78.6811L118.14 76.8161C118.331 76.3326 118.798 75.9926 119.312 75.9926H137.255C138.248 75.9931 139.041 76.8561 139.041 77.8496Z" fill="#407BFF"/>
<path opacity="0.3" d="M139.041 77.8496V205.589C139.041 206.722 138.13 207.602 136.997 207.602H64.18C63.1385 207.602 62.3545 206.796 62.3545 205.755V77.6836C62.3545 76.7816 63.017 75.993 63.919 75.993H82.1235C82.6375 75.993 83.104 76.3285 83.2955 76.812L84.0495 78.6681C84.241 79.1476 84.7075 79.4786 85.2215 79.4786H116.214C116.728 79.4786 117.194 79.1606 117.386 78.6811L118.14 76.8161C118.331 76.3326 118.798 75.9926 119.312 75.9926H137.255C138.248 75.9931 139.041 76.8561 139.041 77.8496Z" fill="black"/>
<path opacity="0.6" d="M139.041 84.5985H62.3545V198.203H139.041V84.5985Z" fill="white"/>
<path opacity="0.6" d="M70.8049 81.5437H71.7524V80.2807H70.8049V81.5437Z" fill="white"/>
<path opacity="0.6" d="M69.2615 81.5441H70.209V79.8601H69.2615V81.5441Z" fill="white"/>
<path opacity="0.6" d="M67.7175 81.5442H68.665V79.4387H67.7175V81.5442Z" fill="white"/>
<path opacity="0.6" d="M66.1741 81.5439H67.1216V79.0174H66.1741V81.5439Z" fill="white"/>
<path opacity="0.6" d="M130.362 79.8206H129.801V81.0836H130.362V79.8206Z" fill="white"/>
<path opacity="0.6" d="M130.748 81.5441H135.221V79.3596H130.748V81.5441Z" fill="white"/>
<path opacity="0.6" d="M100.685 76.1746C100.685 76.7561 100.214 77.2271 99.6326 77.2271C99.0516 77.2271 98.5801 76.7561 98.5801 76.1746C98.5801 75.5931 99.0516 75.1221 99.6326 75.1221C100.214 75.1221 100.685 75.5936 100.685 76.1746Z" fill="white"/>
<path opacity="0.6" d="M102.816 76.1746C102.816 76.5471 102.514 76.8486 102.141 76.8486C101.769 76.8486 101.467 76.5466 101.467 76.1746C101.467 75.8026 101.769 75.5001 102.141 75.5001C102.514 75.5001 102.816 75.8021 102.816 76.1746Z" fill="white"/>
<path d="M139.041 84.5985H62.3545V97.714H139.041V84.5985Z" fill="#407BFF"/>
<path d="M135.784 92.2275V91.2185H134.896C134.838 90.9605 134.735 90.721 134.598 90.504L135.227 89.874L134.514 89.1605L133.884 89.79C133.667 89.653 133.428 89.5505 133.17 89.492V88.6035H132.161V89.492C131.903 89.55 131.663 89.653 131.446 89.79L130.817 89.1605L130.103 89.874L130.733 90.5035C130.596 90.7205 130.493 90.96 130.435 91.218H129.547V92.227H130.435C130.493 92.485 130.596 92.7245 130.733 92.9415L130.103 93.571L130.817 94.2845L131.446 93.655C131.663 93.792 131.903 93.895 132.161 93.953V94.8415H133.17V93.953C133.428 93.895 133.667 93.792 133.884 93.655L134.514 94.2845L135.227 93.571L134.598 92.9415C134.735 92.7245 134.838 92.485 134.896 92.227H135.784V92.2275ZM132.665 92.6555C132.15 92.6555 131.733 92.238 131.733 91.723C131.733 91.208 132.15 90.7905 132.665 90.7905C133.18 90.7905 133.598 91.208 133.598 91.723C133.598 92.238 133.181 92.6555 132.665 92.6555Z" fill="white"/>
<path d="M68.9838 88.972L65.6118 92.176H66.6528V94.4745H71.3143V92.176H72.3558L68.9838 88.972Z" fill="white"/>
<path opacity="0.4" d="M114.948 119.734C114.948 123.301 113.637 126.563 111.468 129.065C108.857 132.08 105 133.987 100.701 133.987C96.3962 133.987 92.5392 132.08 89.9277 129.065C87.7592 126.563 86.4482 123.301 86.4482 119.734C86.4482 111.868 92.8287 105.487 100.701 105.487C108.567 105.487 114.948 111.868 114.948 119.734Z" fill="black"/>
<path opacity="0.8" d="M111.468 129.065C108.857 132.08 105 133.987 100.701 133.987C96.3962 133.987 92.5392 132.08 89.9277 129.065C90.9712 125.306 93.9267 122.356 97.6742 121.302C96.1772 120.319 95.1887 118.625 95.1887 116.697C95.1887 113.654 97.6522 111.185 100.701 111.185C103.743 111.185 106.207 113.654 106.207 116.697C106.207 118.626 105.219 120.319 103.722 121.302C107.469 122.356 110.424 125.306 111.468 129.065Z" fill="white"/>
<g opacity="0.5">
<path d="M73.9483 142.439V142.7H72.4253V140.602H73.9063V140.863H72.7253V141.507H73.7778V141.762H72.7253V142.44H73.9483V142.439Z" fill="black"/>
<path d="M74.2314 141.753H75.0379V142.001H74.2314V141.753Z" fill="black"/>
<path d="M78.1209 141.785V142.7H77.8329V141.818C77.8329 141.506 77.6829 141.353 77.4224 141.353C77.1344 141.353 76.9454 141.536 76.9454 141.881V142.7H76.6574V141.818C76.6574 141.506 76.5074 141.353 76.2464 141.353C75.9584 141.353 75.7699 141.536 75.7699 141.881V142.7H75.4819V141.11H75.7574V141.348C75.8714 141.186 76.0664 141.096 76.3064 141.096C76.5494 141.096 76.7529 141.191 76.8584 141.39C76.9784 141.21 77.2004 141.096 77.4699 141.096C77.8569 141.096 78.1209 141.318 78.1209 141.785Z" fill="black"/>
<path d="M79.9128 141.74V142.7H79.6398V142.49C79.5438 142.634 79.3673 142.718 79.1178 142.718C78.7578 142.718 78.5303 142.526 78.5303 142.25C78.5303 141.995 78.6953 141.785 79.1688 141.785H79.6248V141.728C79.6248 141.486 79.4838 141.344 79.1988 141.344C79.0098 141.344 78.8178 141.411 78.6953 141.515L78.5753 141.299C78.7403 141.167 78.9773 141.096 79.2323 141.096C79.6668 141.096 79.9128 141.306 79.9128 141.74ZM79.6248 142.214V141.993H79.1808C78.8958 141.993 78.8153 142.104 78.8153 142.238C78.8153 142.397 78.9473 142.496 79.1663 142.496C79.3818 142.496 79.5528 142.397 79.6248 142.214Z" fill="black"/>
<path d="M80.3965 140.619C80.3965 140.514 80.4805 140.43 80.5915 140.43C80.7025 140.43 80.7865 140.511 80.7865 140.613C80.7865 140.721 80.7055 140.805 80.5915 140.805C80.4805 140.805 80.3965 140.724 80.3965 140.619ZM80.4475 141.111H80.7355V142.7H80.4475V141.111Z" fill="black"/>
<path d="M81.2842 140.475H81.5722V142.7H81.2842V140.475Z" fill="black"/>
</g>
<g opacity="0.8">
<path d="M125.526 153.094H75.8684C73.7929 153.094 72.1104 151.411 72.1104 149.335C72.1104 147.26 73.7929 145.577 75.8684 145.577H125.526C127.602 145.577 129.285 147.26 129.285 149.335C129.285 151.411 127.602 153.094 125.526 153.094Z" fill="white"/>
</g>
<g opacity="0.5">
<path d="M74.1193 159.833C74.1193 160.288 73.7898 160.564 73.2438 160.564H72.7253V161.2H72.4253V159.102H73.2438C73.7898 159.101 74.1193 159.377 74.1193 159.833ZM73.8193 159.833C73.8193 159.533 73.6183 159.362 73.2343 159.362H72.7248V160.304H73.2343C73.6183 160.303 73.8193 160.133 73.8193 159.833Z" fill="black"/>
<path d="M75.7633 160.24V161.2H75.4903V160.99C75.3943 161.134 75.2178 161.218 74.9688 161.218C74.6088 161.218 74.3813 161.026 74.3813 160.75C74.3813 160.495 74.5463 160.285 75.0198 160.285H75.4758V160.228C75.4758 159.986 75.3349 159.844 75.0499 159.844C74.8609 159.844 74.6688 159.911 74.5463 160.015L74.4263 159.799C74.5913 159.667 74.8284 159.596 75.0834 159.596C75.5179 159.596 75.7633 159.806 75.7633 160.24ZM75.4758 160.714V160.493H75.0318C74.7468 160.493 74.6663 160.604 74.6663 160.738C74.6663 160.897 74.7983 160.996 75.0173 160.996C75.2328 160.996 75.4038 160.897 75.4758 160.714Z" fill="black"/>
<path d="M76.0972 161.032L76.2172 160.804C76.3522 160.9 76.5682 160.969 76.7747 160.969C77.0417 160.969 77.1527 160.888 77.1527 160.753C77.1527 160.396 76.1482 160.705 76.1482 160.073C76.1482 159.788 76.4027 159.596 76.8107 159.596C77.0172 159.596 77.2512 159.65 77.3892 159.74L77.2662 159.968C77.1222 159.875 76.9637 159.842 76.8072 159.842C76.5557 159.842 76.4327 159.935 76.4327 160.061C76.4327 160.436 77.4402 160.13 77.4402 160.748C77.4402 161.035 77.1762 161.218 76.7532 161.218C76.4902 161.218 76.2292 161.137 76.0972 161.032Z" fill="black"/>
<path d="M77.6001 161.032L77.7201 160.804C77.8551 160.9 78.0711 160.969 78.2776 160.969C78.5446 160.969 78.6556 160.888 78.6556 160.753C78.6556 160.396 77.6511 160.705 77.6511 160.073C77.6511 159.788 77.9056 159.596 78.3136 159.596C78.5206 159.596 78.7541 159.65 78.8921 159.74L78.7691 159.968C78.6251 159.875 78.4666 159.842 78.3106 159.842C78.0591 159.842 77.9361 159.935 77.9361 160.061C77.9361 160.436 78.9436 160.13 78.9436 160.748C78.9436 161.035 78.6796 161.218 78.2571 161.218C77.9931 161.218 77.7321 161.137 77.6001 161.032Z" fill="black"/>
<path d="M81.679 159.611L81.085 161.2H80.8095L80.351 159.995L79.886 161.2H79.61L79.0195 159.611H79.292L79.754 160.876L80.234 159.611H80.4765L80.9475 160.882L81.421 159.611H81.679Z" fill="black"/>
<path d="M81.7793 160.405C81.7793 159.932 82.1303 159.596 82.6068 159.596C83.0838 159.596 83.4313 159.932 83.4313 160.405C83.4313 160.879 83.0833 161.218 82.6068 161.218C82.1303 161.218 81.7793 160.879 81.7793 160.405ZM83.1408 160.405C83.1408 160.066 82.9128 159.848 82.6068 159.848C82.3013 159.848 82.0703 160.067 82.0703 160.405C82.0703 160.744 82.3013 160.966 82.6068 160.966C82.9128 160.966 83.1408 160.744 83.1408 160.405Z" fill="black"/>
<path d="M84.6856 159.596V159.875C84.6616 159.872 84.6406 159.872 84.6196 159.872C84.3106 159.872 84.1191 160.061 84.1191 160.408V161.2H83.8311V159.61H84.1066V159.877C84.2086 159.692 84.4066 159.596 84.6856 159.596Z" fill="black"/>
<path d="M86.5244 158.975V161.2H86.2484V160.948C86.1194 161.128 85.9154 161.218 85.6819 161.218C85.2174 161.218 84.8784 160.891 84.8784 160.405C84.8784 159.919 85.2174 159.596 85.6819 159.596C85.9069 159.596 86.1049 159.68 86.2364 159.851V158.975H86.5244ZM86.2394 160.405C86.2394 160.066 86.0089 159.848 85.7059 159.848C85.4004 159.848 85.1694 160.067 85.1694 160.405C85.1694 160.744 85.4004 160.966 85.7059 160.966C86.0089 160.966 86.2394 160.744 86.2394 160.405Z" fill="black"/>
</g>
<g opacity="0.8">
<path d="M125.526 171.594H75.8684C73.7929 171.594 72.1104 169.911 72.1104 167.835C72.1104 165.76 73.7929 164.077 75.8684 164.077H125.526C127.602 164.077 129.285 165.76 129.285 167.835C129.285 169.911 127.602 171.594 125.526 171.594Z" fill="white"/>
</g>
<path d="M113.026 187.094H88.3684C86.2929 187.094 84.6104 185.411 84.6104 183.335C84.6104 181.26 86.2929 179.577 88.3684 179.577H113.026C115.102 179.577 116.784 181.26 116.784 183.335C116.785 185.411 115.102 187.094 113.026 187.094Z" fill="#407BFF"/>
<path d="M97.3984 184.1C97.3623 183.795 97.2158 183.558 96.959 183.39C96.7021 183.221 96.3871 183.137 96.0138 183.137C95.7409 183.137 95.5021 183.181 95.2974 183.269C95.0948 183.358 94.9363 183.479 94.8219 183.634C94.7095 183.788 94.6533 183.964 94.6533 184.16C94.6533 184.325 94.6924 184.466 94.7707 184.585C94.851 184.701 94.9533 184.798 95.0777 184.877C95.2021 184.953 95.3326 185.016 95.469 185.066C95.6055 185.114 95.7309 185.154 95.8453 185.184L96.4713 185.352C96.6319 185.394 96.8105 185.453 97.0071 185.527C97.2058 185.601 97.3954 185.702 97.576 185.831C97.7586 185.957 97.9091 186.12 98.0275 186.318C98.1459 186.517 98.2051 186.761 98.2051 187.05C98.2051 187.383 98.1178 187.684 97.9432 187.953C97.7706 188.222 97.5178 188.435 97.1847 188.594C96.8536 188.752 96.4513 188.832 95.9777 188.832C95.5362 188.832 95.154 188.761 94.8309 188.618C94.5098 188.476 94.257 188.277 94.0724 188.022C93.8898 187.767 93.7864 187.471 93.7624 187.134H94.5329C94.553 187.367 94.6312 187.56 94.7677 187.712C94.9062 187.863 95.0807 187.975 95.2914 188.049C95.5041 188.121 95.7329 188.158 95.9777 188.158C96.2626 188.158 96.5185 188.111 96.7452 188.019C96.972 187.925 97.1516 187.794 97.284 187.628C97.4165 187.459 97.4827 187.263 97.4827 187.038C97.4827 186.833 97.4255 186.667 97.3111 186.538C97.1967 186.41 97.0462 186.305 96.8596 186.225C96.673 186.145 96.4713 186.075 96.2546 186.014L95.4961 185.798C95.0145 185.659 94.6332 185.462 94.3523 185.205C94.0714 184.948 93.9309 184.612 93.9309 184.196C93.9309 183.851 94.0242 183.55 94.2108 183.293C94.3995 183.035 94.6523 182.834 94.9694 182.691C95.2884 182.547 95.6446 182.475 96.0379 182.475C96.4352 182.475 96.7884 182.546 97.0974 182.688C97.4064 182.829 97.6513 183.021 97.8318 183.266C98.0145 183.511 98.1108 183.789 98.1208 184.1H97.3984ZM99.3361 188.723V184.1H100.046V188.723H99.3361ZM99.6973 183.33C99.5588 183.33 99.4394 183.282 99.3391 183.188C99.2408 183.094 99.1916 182.98 99.1916 182.848C99.1916 182.715 99.2408 182.602 99.3391 182.508C99.4394 182.413 99.5588 182.366 99.6973 182.366C99.8357 182.366 99.9541 182.413 100.052 182.508C100.153 182.602 100.203 182.715 100.203 182.848C100.203 182.98 100.153 183.094 100.052 183.188C99.9541 183.282 99.8357 183.33 99.6973 183.33ZM103.214 190.553C102.871 190.553 102.576 190.509 102.329 190.421C102.082 190.335 101.876 190.22 101.712 190.078C101.549 189.937 101.42 189.787 101.323 189.626L101.889 189.229C101.954 189.313 102.035 189.41 102.133 189.518C102.231 189.628 102.366 189.724 102.536 189.804C102.709 189.886 102.935 189.927 103.214 189.927C103.587 189.927 103.895 189.837 104.138 189.656C104.381 189.476 104.502 189.193 104.502 188.808V187.869H104.442C104.39 187.953 104.315 188.057 104.219 188.182C104.125 188.304 103.988 188.413 103.81 188.51C103.633 188.604 103.394 188.651 103.093 188.651C102.72 188.651 102.385 188.563 102.088 188.386C101.793 188.21 101.559 187.953 101.387 187.616C101.216 187.279 101.131 186.869 101.131 186.388C101.131 185.914 101.214 185.502 101.381 185.151C101.547 184.797 101.779 184.524 102.076 184.332C102.373 184.137 102.716 184.04 103.105 184.04C103.406 184.04 103.645 184.09 103.822 184.19C104 184.289 104.137 184.401 104.231 184.527C104.327 184.652 104.402 184.754 104.454 184.834H104.526V184.1H105.212V188.856C105.212 189.253 105.122 189.576 104.941 189.825C104.763 190.076 104.522 190.259 104.219 190.376C103.918 190.494 103.583 190.553 103.214 190.553ZM103.19 188.013C103.475 188.013 103.715 187.948 103.912 187.817C104.109 187.687 104.258 187.499 104.36 187.255C104.463 187.01 104.514 186.717 104.514 186.376C104.514 186.043 104.464 185.749 104.364 185.494C104.263 185.239 104.115 185.039 103.918 184.895C103.721 184.75 103.479 184.678 103.19 184.678C102.889 184.678 102.638 184.754 102.437 184.907C102.238 185.059 102.089 185.264 101.989 185.521C101.89 185.778 101.841 186.063 101.841 186.376C101.841 186.697 101.891 186.981 101.992 187.227C102.094 187.472 102.244 187.665 102.443 187.805C102.644 187.944 102.893 188.013 103.19 188.013ZM94.6413 195.942V198.723H93.9309V194.1H94.6172V194.822H94.6774C94.7858 194.588 94.9503 194.399 95.171 194.257C95.3918 194.112 95.6767 194.04 96.0259 194.04C96.3389 194.04 96.6128 194.104 96.8476 194.233C97.0824 194.359 97.265 194.552 97.3954 194.81C97.5258 195.067 97.5911 195.392 97.5911 195.786V198.723H96.8807V195.834C96.8807 195.471 96.7864 195.188 96.5978 194.985C96.4091 194.78 96.1503 194.678 95.8212 194.678C95.5944 194.678 95.3918 194.727 95.2132 194.825C95.0366 194.924 94.8971 195.067 94.7948 195.256C94.6924 195.445 94.6413 195.673 94.6413 195.942ZM93.9309 208.723V204.1H94.6413V208.723H93.9309ZM94.2921 203.33C94.1537 203.33 94.0343 203.282 93.9339 203.188C93.8356 203.094 93.7864 202.98 93.7864 202.848C93.7864 202.715 93.8356 202.602 93.9339 202.508C94.0343 202.413 94.1537 202.366 94.2921 202.366C94.4306 202.366 94.549 202.413 94.6473 202.508C94.7476 202.602 94.7978 202.715 94.7978 202.848C94.7978 202.98 94.7476 203.094 94.6473 203.188C94.549 203.282 94.4306 203.33 94.2921 203.33ZM96.6527 205.942V208.723H95.9423V204.1H96.6286V204.822H96.6888C96.7972 204.588 96.9617 204.399 97.1824 204.257C97.4032 204.112 97.6881 204.04 98.0373 204.04C98.3503 204.04 98.6242 204.104 98.859 204.233C99.0938 204.359 99.2764 204.552 99.4068 204.81C99.5373 205.067 99.6025 205.392 99.6025 205.786V208.723H98.8921V205.834C98.8921 205.471 98.7978 205.188 98.6092 204.985C98.4206 204.78 98.1617 204.678 97.8326 204.678C97.6059 204.678 97.4032 204.727 97.2246 204.825C97.048 204.924 96.9085 205.067 96.8062 205.256C96.7039 205.445 96.6527 205.673 96.6527 205.942Z" fill="white"/>
<path d="M190.052 92.4614L168.578 92.258C167.559 92.2455 166.742 91.4084 166.755 90.3889L166.959 83.9149C166.971 82.8954 167.808 82.0789 168.828 82.0919L190.302 82.2954C191.321 82.3079 192.138 83.1449 192.125 84.1644L191.922 90.6384C191.908 91.6574 191.072 92.4739 190.052 92.4614Z" fill="#407BFF"/>
<path d="M179.001 90.8249C179.001 90.8249 176.279 96.8419 170.332 98.6594C170.332 98.6594 173.633 96.8094 173.458 90.5044L179.001 90.8249Z" fill="#407BFF"/>
<path d="M172.326 87.1999L172.838 87.4774L172.607 87.8629L172.09 87.5574L172.1 88.1259H171.658L171.663 87.5529L171.146 87.8629L170.92 87.4774L171.432 87.1999L170.92 86.9179L171.146 86.5329L171.663 86.8429L171.658 86.2699H172.1L172.09 86.8429L172.607 86.5329L172.838 86.9179L172.326 87.1999Z" fill="white"/>
<path d="M175.397 87.1999L175.909 87.4774L175.679 87.8629L175.162 87.5574L175.172 88.1259H174.73L174.735 87.5529L174.218 87.8629L173.992 87.4774L174.505 87.1999L173.992 86.9179L174.218 86.5329L174.735 86.8429L174.73 86.2699H175.172L175.162 86.8429L175.679 86.5329L175.909 86.9179L175.397 87.1999Z" fill="white"/>
<path d="M178.469 87.1999L178.981 87.4774L178.751 87.8629L178.234 87.5574L178.243 88.1259H177.801L177.806 87.5529L177.289 87.8629L177.063 87.4774L177.575 87.1999L177.063 86.9179L177.289 86.5329L177.806 86.8429L177.801 86.2699H178.243L178.234 86.8429L178.751 86.5329L178.981 86.9179L178.469 87.1999Z" fill="white"/>
<path d="M181.541 87.1999L182.053 87.4774L181.823 87.8629L181.306 87.5574L181.315 88.1259H180.873L180.878 87.5529L180.361 87.8629L180.136 87.4774L180.648 87.1999L180.136 86.9179L180.361 86.5329L180.878 86.8429L180.873 86.2699H181.315L181.306 86.8429L181.823 86.5329L182.053 86.9179L181.541 87.1999Z" fill="white"/>
<path d="M184.613 87.1999L185.125 87.4774L184.895 87.8629L184.378 87.5574L184.387 88.1259H183.946L183.95 87.5529L183.433 87.8629L183.208 87.4774L183.72 87.1999L183.208 86.9179L183.433 86.5329L183.95 86.8429L183.946 86.2699H184.387L184.378 86.8429L184.895 86.5329L185.125 86.9179L184.613 87.1999Z" fill="white"/>
<path d="M187.684 87.1999L188.196 87.4774L187.966 87.8629L187.449 87.5574L187.458 88.1259H187.016L187.021 87.5529L186.504 87.8629L186.279 87.4774L186.791 87.1999L186.279 86.9179L186.504 86.5329L187.021 86.8429L187.016 86.2699H187.458L187.449 86.8429L187.966 86.5329L188.196 86.9179L187.684 87.1999Z" fill="white"/>
<path d="M156.07 102.988C158.931 103.431 161.706 112.239 162.911 112.967C164.116 113.696 163.078 104.717 163.078 104.717L165.369 104.409C165.369 104.409 168.079 117.972 164.126 117.872C161.114 117.796 157.526 112.757 156.646 110.197L156.07 102.988Z" fill="#EBB376"/>
<path opacity="0.1" d="M164.125 117.87C162.3 117.825 160.255 115.95 158.735 113.91C157.755 112.59 156.99 111.2 156.645 110.195L156.35 106.495L156.07 102.985C158.93 103.43 161.705 112.24 162.91 112.965C164.115 113.695 163.08 104.715 163.08 104.715L165.37 104.41C165.37 104.41 168.08 117.97 164.125 117.87Z" fill="black"/>
<path opacity="0.2" d="M158.735 113.91C157.755 112.59 156.99 111.2 156.645 110.195L156.35 106.495L156.355 106.49C156.355 106.49 159.47 109.635 158.735 113.91Z" fill="black"/>
<path d="M145.538 84.78C145.538 84.78 140.445 84.722 140.692 91.723C140.939 98.7235 145.835 98.824 144.203 100.851C144.203 100.851 148.292 102.928 153.443 100.851C153.443 100.851 152.542 100.494 152.972 99.2095C153.402 97.925 155.762 96.086 155.991 93.3755C156.22 90.665 150.808 84.0795 145.538 84.78Z" fill="#263238"/>
<path d="M150.572 98.1879C150.572 98.1879 157.075 96.9869 155.989 90.8059C155.099 85.7389 152.737 84.1139 150.572 83.3884C148.735 82.7724 146.77 83.3269 145.418 85.1174C145.418 85.1174 141.008 83.8689 141.773 91.1239C142.538 98.3789 147.332 101.491 150.572 98.1879Z" fill="#263238"/>
<path d="M162.423 201.744L159.533 200.265L160.583 195.947L161.553 191.989L165.196 193.179L163.73 197.714L162.423 201.744Z" fill="#EBB376"/>
<path d="M158.73 199.587C158.9 199.265 162.779 201.516 162.779 201.516C162.779 201.516 163.994 205.25 166.108 207.006C168.221 208.762 166.168 209.532 163.492 208.199C160.817 206.866 158.775 205.849 156.873 204.902C154.972 203.955 156.967 202.927 158.73 199.587Z" fill="#263238"/>
<path d="M164.097 203.416C163.607 203.054 163.103 202.429 162.968 202.256C162.959 202.245 162.952 202.232 162.948 202.218C162.944 202.204 162.942 202.19 162.943 202.174V202.174C162.944 202.164 162.946 202.154 162.95 202.144L162.95 202.143C162.957 202.126 162.967 202.111 162.979 202.099C163.016 202.063 163.817 201.299 164.472 201.343C164.68 201.357 164.851 201.449 164.983 201.615C165.123 201.793 165.155 201.95 165.079 202.083C164.962 202.288 164.571 202.357 164.159 202.368C164.514 202.504 164.855 202.686 165.008 202.914C165.089 203.035 165.115 203.162 165.087 203.292C165.029 203.56 164.886 203.646 164.777 203.671C164.587 203.714 164.344 203.599 164.097 203.416ZM163.368 202.372C163.834 202.917 164.458 203.503 164.724 203.441C164.747 203.436 164.818 203.42 164.856 203.243C164.871 203.177 164.856 203.113 164.811 203.046C164.606 202.736 163.867 202.495 163.368 202.372ZM164.7 201.665C164.63 201.614 164.549 201.585 164.456 201.579C164.099 201.554 163.629 201.864 163.339 202.097C164.045 202.167 164.773 202.141 164.874 201.966C164.905 201.912 164.839 201.815 164.797 201.761C164.767 201.724 164.735 201.691 164.7 201.665Z" fill="#407BFF"/>
<path opacity="0.2" d="M163.696 197.805L160.553 196.028L161.538 192.029L165.188 193.199L163.696 197.805Z" fill="black"/>
<path d="M157.326 205.355H154.022L153.075 201.107L152.214 197.21L156.08 196.621L156.742 201.245L157.326 205.355Z" fill="#EBB376"/>
<path d="M152.928 205.223C152.937 204.859 157.412 205.145 157.412 205.145C157.412 205.145 160.166 207.945 162.84 208.575C165.515 209.204 164.02 210.809 161.031 210.809C158.042 210.809 155.76 210.809 153.636 210.809C151.512 210.808 152.84 208.999 152.928 205.223Z" fill="#263238"/>
<path d="M159.767 206.29C159.141 206.29 158.147 205.835 157.912 205.723C157.896 205.716 157.883 205.705 157.872 205.692C157.866 205.685 157.861 205.676 157.856 205.667C157.843 205.64 157.841 205.607 157.852 205.577C157.867 205.532 158.243 204.488 158.85 204.235C159.043 204.155 159.238 204.161 159.429 204.251C159.633 204.348 159.732 204.474 159.723 204.627C159.71 204.862 159.391 205.099 159.027 205.293C159.406 205.256 159.793 205.266 160.031 205.402C160.157 205.475 160.237 205.577 160.27 205.705C160.337 205.97 160.248 206.111 160.161 206.182C160.069 206.259 159.93 206.29 159.767 206.29ZM158.321 205.648C158.98 205.927 159.8 206.174 160.012 206C160.03 205.985 160.086 205.939 160.041 205.764C160.025 205.698 159.983 205.647 159.913 205.607C159.591 205.422 158.823 205.536 158.321 205.648ZM159.122 204.415C159.062 204.415 159.002 204.428 158.941 204.453C158.611 204.591 158.328 205.077 158.173 205.415C158.836 205.163 159.477 204.815 159.488 204.614C159.492 204.551 159.39 204.493 159.329 204.464C159.259 204.432 159.19 204.415 159.122 204.415Z" fill="#407BFF"/>
<path opacity="0.2" d="M156.751 201.339L153.083 201.191L152.218 197.252L156.082 196.642L156.751 201.339Z" fill="black"/>
<path d="M141.209 127.572L149.327 126.272L156.679 124.772L158.658 136.752C158.658 136.752 169.013 151.755 171.523 162.068C174.033 172.382 164.622 196.331 164.622 196.331L160.293 194.417C160.293 194.417 163.296 171.393 163.225 168.624C163.179 166.824 157.273 158.524 153.143 152.932C153.027 154.334 154.364 168.34 154.364 168.34L157.282 199.042H151.85C133.108 140.867 141.209 127.572 141.209 127.572Z" fill="#263238"/>
<path opacity="0.6" d="M151.851 199.041H157.281L154.366 168.341C154.366 168.341 153.036 154.241 153.146 152.931C153.961 154.036 154.846 155.241 155.741 156.486C159.376 161.541 163.191 167.176 163.226 168.621C163.296 171.391 160.296 194.416 160.296 194.416L164.621 196.331C164.621 196.331 174.036 172.381 171.526 162.066C169.016 151.756 158.661 136.751 158.661 136.751L156.681 124.771L149.326 126.271L141.211 127.571C141.211 127.571 133.111 140.866 151.851 199.041Z" fill="white"/>
<path d="M160.068 192.48L166.455 194.679L165.032 196.867L159.783 194.994L160.068 192.48Z" fill="#407BFF"/>
<path d="M151.07 198.304L157.898 197.369L157.561 199.921L151.921 200.631L151.07 198.304Z" fill="#407BFF"/>
<path opacity="0.2" d="M153.145 152.931C153.96 154.036 154.845 155.241 155.74 156.486C154.31 149.076 152.625 141.861 152.625 141.861C152.245 147.706 153.145 152.931 153.145 152.931Z" fill="black"/>
<path d="M156.535 125.24L141.73 126.265C141.73 126.265 141.53 118.335 140.35 114.21C140.19 113.655 140.015 113.075 139.82 112.455C139.545 111.585 139.23 110.65 138.87 109.63C138.785 109.39 138.57 108.79 138.31 108.095C137.875 106.91 138.21 105.65 139.035 104.84C139.43 104.445 139.94 104.155 140.53 104.025C141.62 103.785 142.695 103.56 143.28 103.47C145.495 103.12 147.73 102.905 149.98 102.835C151.88 102.82 153.965 102.945 155.18 103.03C155.82 103.075 156.22 103.11 156.22 103.11C156.22 103.11 156.69 103.215 156.99 105.97C157.265 108.56 157.135 115.82 156.535 125.24Z" fill="#407BFF"/>
<path d="M149.483 105.975C145.749 105.302 144.701 103.639 144.701 103.639C147.201 101.51 145.418 97.5105 145.418 97.5105L149.899 98.5855C149.742 99.327 149.66 99.9515 149.626 100.481C149.452 103.225 150.692 103.315 150.692 103.315C151.41 104.843 149.483 105.975 149.483 105.975Z" fill="#EBB376"/>
<path opacity="0.2" d="M149.899 98.5855C149.742 99.327 149.66 99.9515 149.626 100.481C147.47 99.8645 145.418 97.5105 145.418 97.5105L149.899 98.5855Z" fill="black"/>
<path d="M149.568 85.76C153.496 86.1135 154.571 88.33 154.495 92.4035C154.399 97.4945 152.954 100.987 148.14 99.4655C141.602 97.398 143.044 85.173 149.568 85.76Z" fill="#EBB376"/>
<path d="M151.975 91.9554C151.975 91.9554 152.427 93.0304 152.971 93.6874C152.971 93.6874 152.587 94.1914 151.896 94.0384L151.975 91.9554Z" fill="#D58745"/>
<path d="M149.6 91.4179C149.578 91.7414 149.386 91.9919 149.171 91.9774C148.955 91.9629 148.798 91.6894 148.819 91.3659C148.841 91.0424 149.033 90.7919 149.248 90.8064C149.464 90.8209 149.621 91.0949 149.6 91.4179Z" fill="#263238"/>
<path d="M149.157 90.8164L149.879 90.5874C149.879 90.5874 149.489 91.1559 149.157 90.8164Z" fill="#263238"/>
<path d="M153.624 91.618C153.602 91.9415 153.41 92.192 153.195 92.1775C152.979 92.163 152.822 91.8895 152.843 91.566C152.865 91.2425 153.057 90.992 153.272 91.0065C153.488 91.021 153.645 91.2945 153.624 91.618Z" fill="#263238"/>
<path d="M153.181 91.016L153.903 90.787C153.903 90.787 153.513 91.3555 153.181 91.016Z" fill="#263238"/>
<path d="M149.804 88.702C149.804 88.702 148.713 88.459 148.047 89.1425" stroke="#263238" stroke-width="0.7247" stroke-miterlimit="10" stroke-linecap="round" stroke-linejoin="round"/>
<path d="M152.674 88.793C152.674 88.793 153.391 88.5985 154.211 89.2565" stroke="#263238" stroke-width="0.7247" stroke-miterlimit="10" stroke-linecap="round" stroke-linejoin="round"/>
<path d="M144.679 91.994C144.679 91.994 146.806 88.932 146.752 86.4155C146.752 86.4155 154.822 83.9355 154.495 91.871C154.495 91.871 155.887 84.924 149.148 84.16C142.421 83.3975 141.55 93.2775 144.773 96.5345C144.773 96.5345 143.362 93.91 144.679 91.994Z" fill="#263238"/>
<path d="M145.246 92.881C145.277 92.246 144.721 91.117 143.533 91.1395C142.304 91.163 141.499 93.6095 144.472 94.4825C144.899 94.608 145.182 94.2055 145.246 92.881Z" fill="#EBB376"/>
<path d="M151.627 95.6925C151.627 95.6925 149.977 95.8265 149.519 94.304" stroke="#263238" stroke-width="0.708" stroke-miterlimit="10" stroke-linecap="round" stroke-linejoin="round"/>
<path d="M146.793 86.2544C146.793 86.2544 152.841 85.3899 154.435 90.5874" stroke="#263238" stroke-width="0.708" stroke-miterlimit="10" stroke-linecap="round" stroke-linejoin="round"/>
<path d="M164.599 99.2104C164.599 99.2104 166.664 99.1734 166.735 99.5369C166.807 99.9004 166.672 102.92 166.397 103.345C166.122 103.769 165.37 104.382 165.37 104.382L165.57 109.739L164.342 110.17L163.223 105.266C163.223 105.266 161.957 104.031 162.328 102.464C162.699 100.896 164.599 99.2104 164.599 99.2104Z" fill="#EBB376"/>
<path opacity="0.1" d="M164.599 99.2104C164.599 99.2104 166.664 99.1734 166.735 99.5369C166.807 99.9004 166.672 102.92 166.397 103.345C166.122 103.769 165.37 104.382 165.37 104.382L165.57 109.739L164.342 110.17L163.223 105.266C163.223 105.266 161.957 104.031 162.328 102.464C162.699 100.896 164.599 99.2104 164.599 99.2104Z" fill="black"/>
<path d="M161.095 101.849C161.088 102.045 161.242 102.192 161.44 102.177L164.951 101.905C165.149 101.889 165.314 101.718 165.321 101.521L165.567 94.5304C165.574 94.3339 165.416 94.1389 165.219 94.1539L161.707 94.4264C161.51 94.4419 161.348 94.6614 161.341 94.8579L161.095 101.849Z" fill="#263238"/>
<path opacity="0.5" d="M161.728 94.7818L161.476 101.841C161.469 102.04 161.582 102.166 161.778 102.151L164.756 101.92C164.956 101.904 165.313 101.766 165.32 101.567L165.57 94.4838C165.577 94.2848 165.224 94.1533 165.024 94.1688L162.046 94.3998C161.85 94.4148 161.735 94.5828 161.728 94.7818Z" fill="white"/>
<path d="M157.526 107.159L158.861 104.047C158.861 104.047 159.295 99.868 159.507 99.421C159.718 98.9735 163.116 99.141 163.483 99.1125C163.85 99.084 163.783 103.256 163.428 103.693C163.073 104.13 161.685 104.484 161.685 104.484L159.551 108.626L157.526 107.159Z" fill="#EBB376"/>
<path d="M153.765 105.47C153.405 106.9 152.02 108 149.155 107.975C147.335 107.955 145.84 107.275 144.675 106.435C143.325 105.46 142.43 104.28 142.025 103.675C142.44 103.6 142.86 103.535 143.28 103.47C145.495 103.12 147.73 102.905 149.98 102.835C151.165 102.825 152.42 102.87 153.49 102.925C153.845 103.78 153.965 104.675 153.765 105.47Z" fill="#EBB376"/>
<path d="M141.689 125.146L141.068 127.853L157.05 127.016L156.592 124.339L141.689 125.146Z" fill="#263238"/>
<path d="M150.24 125.166L150.424 126.897C150.444 127.087 150.612 127.226 150.802 127.211L153.109 127.028C153.305 127.012 153.45 126.839 153.432 126.643L153.269 124.937C153.251 124.747 153.085 124.606 152.895 124.619L150.566 124.778C150.366 124.791 150.218 124.968 150.24 125.166Z" stroke="white" stroke-miterlimit="10" stroke-linecap="round" stroke-linejoin="round"/>
<path d="M152.132 125.742H152.989" stroke="white" stroke-miterlimit="10" stroke-linecap="round" stroke-linejoin="round"/>
<path opacity="0.2" d="M143.895 113.675C142.48 114.16 140.91 113.3 139.82 112.455C139.545 111.585 139.23 110.65 138.87 109.63C138.785 109.39 138.57 108.79 138.31 108.095C137.875 106.91 138.21 105.65 139.035 104.84C141.755 107.405 145.785 113.03 143.895 113.675Z" fill="black"/>
<path d="M138.994 104.512C140.192 103.544 141.96 103.794 142.841 105.058C145.034 108.204 148.72 113.433 149.163 113.69C149.8 114.058 154.592 109.644 158.861 104.047L161.476 105.03C161.476 105.03 154.721 118.92 149.923 118.979C146.331 119.023 140.946 111.734 138.468 108.069C137.694 106.925 137.92 105.381 138.994 104.512Z" fill="#EBB376"/>
<path opacity="0.2" d="M143.897 130.073C143.897 130.073 142.676 133.39 139.66 134.577V135.764C139.66 135.764 144.082 133.887 144.702 130.759L143.897 130.073Z" fill="black"/>
<path opacity="0.2" d="M140.467 147.533L144.701 146.741L145.709 155.249L141.654 155.84L141.068 150.302L144.729 149.777L144.522 147.681L144.458 149.543L140.343 150.203L140.467 147.533Z" fill="black"/>
</svg>
