<svg width="250" height="250" viewBox="0 0 250 250" fill="none" xmlns="http://www.w3.org/2000/svg">
<path d="M224.951 199.247H208.39V199.372H224.951V199.247Z" fill="#EBEBEB"/>
<path d="M165.61 200.604H161.264V200.729H165.61V200.604Z" fill="#EBEBEB"/>
<path d="M207.889 194.604H198.293V194.729H207.889V194.604Z" fill="#EBEBEB"/>
<path d="M47.826 195.444H26.2295V195.569H47.826V195.444Z" fill="#EBEBEB"/>
<path d="M55.4443 195.444H52.2778V195.569H55.4443V195.444Z" fill="#EBEBEB"/>
<path d="M112.573 197.555H65.7354V197.68H112.573V197.555Z" fill="#EBEBEB"/>
<path d="M119.2 168.9H22.6509C21.0774 168.9 19.7969 167.619 19.7969 166.046V30.33C19.7969 28.7565 21.0774 27.476 22.6509 27.476H119.2C120.773 27.476 122.054 28.7565 122.054 30.33V166.046C122.054 167.619 120.773 168.9 119.2 168.9ZM22.6509 27.6015C21.1459 27.6015 19.9219 28.8255 19.9219 30.3305V166.046C19.9219 167.551 21.1459 168.775 22.6509 168.775H119.2C120.705 168.775 121.929 167.551 121.929 166.046V30.33C121.929 28.8255 120.705 27.601 119.2 27.601L22.6509 27.6015Z" fill="#EBEBEB"/>
<path d="M227.349 168.9H130.799C129.226 168.9 127.946 167.619 127.946 166.046V30.33C127.946 28.7565 129.226 27.476 130.799 27.476H227.349C228.923 27.476 230.203 28.7565 230.203 30.33V166.046C230.203 167.619 228.922 168.9 227.349 168.9ZM130.799 27.6015C129.295 27.6015 128.071 28.8255 128.071 30.3305V166.046C128.071 167.551 129.295 168.775 130.799 168.775H227.349C228.854 168.775 230.078 167.551 230.078 166.046V30.33C230.078 28.8255 228.854 27.601 227.349 27.601L130.799 27.6015Z" fill="#EBEBEB"/>
<path d="M250 191.199H0V191.324H250V191.199Z" fill="#EBEBEB"/>
<path d="M172.712 67.2559C179.735 66.6414 184.931 60.4494 184.316 53.4259C183.702 46.4024 177.51 41.2069 170.486 41.8214L168.031 42.0364C161.008 42.6509 155.812 48.8429 156.427 55.8664C157.041 62.8899 163.233 68.0854 170.257 67.4709L172.712 67.2559Z" fill="#E6E6E6"/>
<path d="M176.255 58.4309L157.536 60.0684C157.651 60.3199 157.774 60.5674 157.905 60.8094L176.322 59.1984L176.255 58.4309Z" fill="#E0E0E0"/>
<path d="M175.992 55.4338L156.601 57.1303C156.649 57.3863 156.706 57.6388 156.77 57.8888L176.06 56.2013L175.992 55.4338Z" fill="#E0E0E0"/>
<path d="M175.73 52.4374L156.395 54.1289C156.383 54.3854 156.379 54.6439 156.383 54.9034L175.797 53.2049L175.73 52.4374Z" fill="#E0E0E0"/>
<path d="M176.516 61.4274L159.342 62.9299C159.549 63.1769 159.763 63.4164 159.987 63.6469L176.583 62.1949L176.516 61.4274Z" fill="#E0E0E0"/>
<path d="M160.357 45.4969L175.01 44.2149L174.943 43.4474L161.363 44.6354C161.012 44.9059 160.676 45.1934 160.357 45.4969Z" fill="#E0E0E0"/>
<path d="M176.778 64.424L162.529 65.6704C162.931 65.9144 163.348 66.1354 163.776 66.3344L176.845 65.1909L176.778 64.424Z" fill="#E0E0E0"/>
<path d="M175.206 46.4443L158.365 47.9178C158.197 48.1833 158.038 48.4553 157.889 48.7328L175.273 47.2118L175.206 46.4443Z" fill="#E0E0E0"/>
<path d="M175.467 49.4409L156.923 51.0634C156.844 51.3244 156.773 51.5879 156.711 51.8554L175.534 50.2084L175.467 49.4409Z" fill="#E0E0E0"/>
<path d="M182.854 60.5554C186.176 54.3368 183.828 46.6026 177.61 43.2804C171.391 39.9582 163.657 42.3062 160.335 48.5247C157.012 54.7432 159.36 62.4775 165.579 65.7996C171.797 69.1218 179.532 66.7739 182.854 60.5554Z" fill="#F0F0F0"/>
<path d="M181.446 57.5797C183.126 52.1444 180.082 46.3758 174.647 44.6952C169.212 43.0147 163.443 46.0585 161.763 51.4939C160.082 56.9292 163.126 62.6978 168.561 64.3784C173.997 66.0589 179.765 63.0151 181.446 57.5797Z" fill="#FAFAFA"/>
<path d="M170.702 44.2769C170.492 44.2954 170.286 44.3214 170.08 44.3519C175.485 44.2039 180.137 48.2919 180.615 53.7499C181.092 59.2079 177.221 64.0414 171.872 64.8344C172.08 64.8289 172.288 64.8189 172.497 64.8004C178.165 64.3044 182.357 59.3079 181.861 53.6404C181.366 47.9734 176.369 43.7809 170.702 44.2769Z" fill="#E6E6E6"/>
<path d="M174.384 58.411C173.861 59.019 173.066 59.437 172 59.6645L172.14 61.267L170.709 61.392L170.573 59.833C169.864 59.8565 169.18 59.7915 168.523 59.6375C167.865 59.484 167.328 59.2715 166.91 59L167.544 57.186C167.93 57.421 168.374 57.6085 168.876 57.747C169.378 57.8855 169.889 57.956 170.409 57.959L170.2 55.5695C169.508 55.4665 168.92 55.3355 168.435 55.1765C167.95 55.017 167.534 54.758 167.185 54.3995C166.837 54.0405 166.635 53.542 166.579 52.9025C166.51 52.1115 166.739 51.406 167.266 50.7885C167.793 50.1705 168.595 49.752 169.672 49.5325L169.533 47.9445L170.963 47.8195L171.1 49.379C172.281 49.3715 173.274 49.5775 174.08 49.9975L173.519 51.8195C172.768 51.472 172.016 51.288 171.265 51.267L171.477 53.699C172.158 53.793 172.738 53.918 173.218 54.0725C173.698 54.2275 174.112 54.4845 174.46 54.8435C174.809 55.2025 175.011 55.6965 175.066 56.326C175.135 57.108 174.907 57.8035 174.384 58.411ZM169.195 53.1495C169.389 53.286 169.663 53.392 170.016 53.4665L169.838 51.435C169.483 51.5525 169.228 51.712 169.073 51.913C168.917 52.114 168.85 52.3385 168.872 52.5865C168.893 52.825 169 53.0125 169.195 53.1495ZM172.574 57.337C172.731 57.1505 172.799 56.938 172.778 56.6995C172.757 56.461 172.652 56.2735 172.462 56.136C172.272 55.999 172.006 55.8875 171.662 55.802L171.834 57.7765C172.171 57.6705 172.418 57.5235 172.574 57.337Z" fill="#E6E6E6"/>
<path d="M175.262 58.3344C174.738 58.9424 173.943 59.3604 172.877 59.5879L173.017 61.1899L171.587 61.3149L171.45 59.7554C170.741 59.7789 170.058 59.7139 169.4 59.5599C168.743 59.4064 168.205 59.1939 167.788 58.9224L168.422 57.1084C168.807 57.3439 169.252 57.5309 169.754 57.6694C170.256 57.8079 170.767 57.8784 171.286 57.8814L171.077 55.4919C170.385 55.3889 169.798 55.2579 169.313 55.0989C168.828 54.9394 168.411 54.6804 168.063 54.3219C167.714 53.9629 167.512 53.4644 167.456 52.8249C167.387 52.0334 167.616 51.3284 168.143 50.7109C168.671 50.0929 169.473 49.6744 170.549 49.4549L170.41 47.8669L171.841 47.7419L171.977 49.3014C173.159 49.2939 174.152 49.4999 174.958 49.9199L174.396 51.7424C173.645 51.3949 172.894 51.2109 172.142 51.1899L172.355 53.6219C173.036 53.7159 173.616 53.8409 174.096 53.9959C174.576 54.1509 174.99 54.4079 175.338 54.7669C175.687 55.1259 175.889 55.6199 175.944 56.2494C176.012 57.0314 175.785 57.7264 175.262 58.3344ZM170.073 53.0724C170.267 53.2089 170.541 53.3149 170.894 53.3894L170.716 51.3579C170.361 51.4754 170.106 51.6349 169.951 51.8359C169.795 52.0369 169.728 52.2614 169.75 52.5094C169.77 52.7479 169.878 52.9359 170.073 53.0724ZM173.452 57.2599C173.609 57.0734 173.677 56.8609 173.656 56.6224C173.635 56.3839 173.53 56.1964 173.34 56.0589C173.15 55.9219 172.884 55.8104 172.54 55.7249L172.713 57.6994C173.049 57.5934 173.295 57.4469 173.452 57.2599Z" fill="#F0F0F0"/>
<path d="M47.3308 127.954C53.7818 127.276 58.4618 121.496 57.7838 115.045C57.1058 108.594 51.3268 103.914 44.8753 104.592L42.6203 104.829C36.1693 105.507 31.4893 111.286 32.1673 117.738C32.8453 124.189 38.6248 128.869 45.0758 128.191L47.3308 127.954Z" fill="#E6E6E6"/>
<path d="M50.4479 119.778L33.2549 121.585C33.3649 121.815 33.4819 122.04 33.6059 122.261L50.5219 120.483L50.4479 119.778Z" fill="#E0E0E0"/>
<path d="M50.1591 117.026L32.3486 118.898C32.3971 119.133 32.4536 119.364 32.5156 119.593L50.2331 117.731L50.1591 117.026Z" fill="#E0E0E0"/>
<path d="M49.8695 114.273L32.111 116.14C32.104 116.376 32.1045 116.614 32.1115 116.852L49.9435 114.978L49.8695 114.273Z" fill="#E0E0E0"/>
<path d="M50.7374 122.531L34.9634 124.189C35.1574 124.413 35.3579 124.63 35.5679 124.838L50.8119 123.236L50.7374 122.531Z" fill="#E0E0E0"/>
<path d="M35.6167 108.136L49.0757 106.721L49.0017 106.016L36.5282 107.327C36.2102 107.581 35.9062 107.851 35.6167 108.136Z" fill="#E0E0E0"/>
<path d="M51.0265 125.283L37.9385 126.658C38.3125 126.876 38.699 127.073 39.0965 127.249L51.1005 125.988L51.0265 125.283Z" fill="#E0E0E0"/>
<path d="M49.2909 108.769L33.8229 110.394C33.6719 110.641 33.5309 110.894 33.3984 111.152L49.3649 109.474L49.2909 108.769Z" fill="#E0E0E0"/>
<path d="M49.5802 111.521L32.5472 113.311C32.4787 113.552 32.4177 113.796 32.3647 114.043L49.6542 112.226L49.5802 111.521Z" fill="#E0E0E0"/>
<path d="M46.6767 128C53.1555 127.685 58.1521 122.177 57.8368 115.698C57.5216 109.22 52.0139 104.223 45.5351 104.538C39.0563 104.854 34.0598 110.361 34.375 116.84C34.6903 123.319 40.1979 128.315 46.6767 128Z" fill="#F0F0F0"/>
<path d="M55.2439 118.753C56.6158 113.702 53.6332 108.495 48.5822 107.123C43.5311 105.751 38.3242 108.733 36.9523 113.785C35.5804 118.836 38.563 124.042 43.6141 125.414C48.6651 126.786 53.872 123.804 55.2439 118.753Z" fill="#FAFAFA"/>
<path d="M45.113 106.847C44.9205 106.867 44.7305 106.895 44.5425 106.926C49.5125 106.703 53.857 110.389 54.384 115.402C54.911 120.415 51.4275 124.924 46.52 125.739C46.711 125.731 46.902 125.718 47.0945 125.698C52.3 125.151 56.0765 120.487 55.5295 115.282C54.982 110.077 50.3185 106.3 45.113 106.847Z" fill="#E6E6E6"/>
<path d="M48.7278 119.79C48.2558 120.358 47.5313 120.755 46.5543 120.982L46.7088 122.453L45.3948 122.591L45.2443 121.159C44.5923 121.192 43.9628 121.143 43.3553 121.012C42.7483 120.881 42.2503 120.695 41.8618 120.452L42.4158 118.773C42.7743 118.983 43.1858 119.148 43.6503 119.267C44.1148 119.387 44.5858 119.443 45.0633 119.438L44.8328 117.243C44.1948 117.16 43.6518 117.049 43.2033 116.91C42.7548 116.771 42.3673 116.539 42.0408 116.215C41.7143 115.89 41.5203 115.435 41.4588 114.847C41.3823 114.121 41.5818 113.468 42.0568 112.892C42.5323 112.315 43.2628 111.917 44.2498 111.698L44.0963 110.239L45.4103 110.101L45.5608 111.534C46.6478 111.508 47.5643 111.682 48.3123 112.055L47.8248 113.74C47.1283 113.433 46.4343 113.275 45.7428 113.268L45.9778 115.502C46.6053 115.578 47.1413 115.684 47.5853 115.818C48.0288 115.953 48.4138 116.183 48.7403 116.507C49.0668 116.832 49.2603 117.283 49.3208 117.861C49.3973 118.579 49.1993 119.222 48.7278 119.79ZM43.8698 115.033C44.0508 115.155 44.3043 115.248 44.6303 115.311L44.4343 113.445C44.1093 113.559 43.8773 113.71 43.7378 113.897C43.5983 114.085 43.5398 114.292 43.5638 114.52C43.5863 114.739 43.6883 114.91 43.8698 115.033ZM47.0458 118.831C47.1868 118.656 47.2458 118.46 47.2228 118.241C47.1998 118.022 47.0998 117.851 46.9233 117.728C46.7463 117.605 46.4993 117.506 46.1813 117.434L46.3718 119.247C46.6803 119.144 46.9048 119.005 47.0458 118.831Z" fill="#E6E6E6"/>
<path d="M49.5334 119.705C49.0614 120.273 48.3369 120.67 47.3599 120.897L47.5144 122.368L46.2004 122.506L46.0499 121.074C45.3979 121.107 44.7684 121.058 44.1609 120.927C43.5539 120.796 43.0559 120.61 42.6674 120.367L43.2214 118.688C43.5799 118.898 43.9914 119.063 44.4559 119.183C44.9204 119.302 45.3909 119.359 45.8689 119.353L45.6384 117.159C45.0004 117.075 44.4574 116.964 44.0089 116.825C43.5604 116.686 43.1729 116.455 42.8464 116.13C42.5199 115.806 42.3259 115.35 42.2644 114.763C42.1879 114.036 42.3874 113.384 42.8624 112.807C43.3379 112.23 44.0684 111.832 45.0554 111.613L44.9019 110.155L46.2159 110.017L46.3664 111.449C47.4534 111.423 48.3699 111.597 49.1179 111.97L48.6304 113.656C47.9339 113.348 47.2399 113.191 46.5484 113.184L46.7834 115.418C47.4109 115.494 47.9469 115.599 48.3909 115.734C48.8344 115.869 49.2194 116.098 49.5459 116.423C49.8724 116.747 50.0659 117.198 50.1264 117.777C50.2029 118.495 50.0049 119.138 49.5334 119.705ZM44.6754 114.948C44.8569 115.071 45.1099 115.164 45.4359 115.227L45.2399 113.361C44.9149 113.475 44.6829 113.625 44.5434 113.813C44.4039 114 44.3454 114.208 44.3694 114.435C44.3924 114.655 44.4939 114.826 44.6754 114.948ZM47.8514 118.746C47.9924 118.572 48.0514 118.376 48.0284 118.156C48.0054 117.937 47.9054 117.766 47.7289 117.643C47.5519 117.52 47.3049 117.422 46.9874 117.349L47.1779 119.163C47.4859 119.059 47.7104 118.92 47.8514 118.746Z" fill="#F0F0F0"/>
<path d="M203.888 133.487C207.755 136.618 213.427 136.022 216.558 132.156C219.689 128.29 219.092 122.617 215.226 119.487L213.875 118.392C210.008 115.261 204.336 115.858 201.206 119.724C198.075 123.59 198.671 129.262 202.537 132.393L203.888 133.487Z" fill="#E6E6E6"/>
<path d="M210.012 130.744L199.708 122.4C199.643 122.584 199.585 122.77 199.532 122.957L209.67 131.166L210.012 130.744Z" fill="#E0E0E0"/>
<path d="M211.348 129.094L200.674 120.451C200.573 120.604 200.478 120.76 200.388 120.918L211.006 129.517L211.348 129.094Z" fill="#E0E0E0"/>
<path d="M212.684 127.445L202.041 118.826C201.909 118.951 201.78 119.08 201.655 119.213L212.342 127.867L212.684 127.445Z" fill="#E0E0E0"/>
<path d="M208.677 132.393L199.223 124.738C199.207 124.964 199.198 125.191 199.199 125.418L208.335 132.816L208.677 132.393Z" fill="#E0E0E0"/>
<path d="M208.283 116.387L216.349 122.919L216.691 122.496L209.215 116.443C208.905 116.408 208.594 116.389 208.283 116.387Z" fill="#E0E0E0"/>
<path d="M207.341 134.043L199.497 127.691C199.581 128.012 199.684 128.329 199.804 128.64L206.998 134.465L207.341 134.043Z" fill="#E0E0E0"/>
<path d="M215.355 124.146L206.085 116.639C205.87 116.691 205.656 116.751 205.444 116.819L215.013 124.568L215.355 124.146Z" fill="#E0E0E0"/>
<path d="M214.02 125.795L203.812 117.529C203.644 117.623 203.478 117.722 203.316 117.827L213.678 126.217L214.02 125.795Z" fill="#E0E0E0"/>
<path d="M218.579 126.635C218.661 121.66 214.696 117.561 209.721 117.478C204.747 117.395 200.647 121.361 200.565 126.336C200.482 131.31 204.448 135.41 209.422 135.492C214.397 135.575 218.496 131.609 218.579 126.635Z" fill="#F0F0F0"/>
<path d="M212.417 133.171C216.109 131.594 217.823 127.323 216.246 123.631C214.668 119.94 210.397 118.226 206.706 119.803C203.014 121.38 201.3 125.651 202.877 129.343C204.454 133.034 208.726 134.748 212.417 133.171Z" fill="#FAFAFA"/>
<path d="M214.131 120.838C214.015 120.744 213.898 120.656 213.778 120.571C216.594 123.146 216.952 127.501 214.519 130.505C212.086 133.51 207.752 134.066 204.648 131.846C204.756 131.945 204.866 132.042 204.982 132.135C208.102 134.662 212.679 134.181 215.205 131.061C217.732 127.941 217.251 123.364 214.131 120.838Z" fill="#E6E6E6"/>
<path d="M209.073 129.817C208.509 129.869 207.901 129.692 207.248 129.285L206.533 130.167L205.746 129.529L206.441 128.671C206.069 128.335 205.754 127.967 205.496 127.567C205.238 127.167 205.069 126.795 204.99 126.453L206.201 125.843C206.282 126.151 206.415 126.464 206.602 126.78C206.789 127.097 207.014 127.383 207.276 127.639L208.341 126.323C208.041 125.932 207.806 125.577 207.638 125.259C207.47 124.94 207.386 124.604 207.385 124.251C207.384 123.898 207.526 123.546 207.811 123.194C208.163 122.759 208.625 122.513 209.196 122.458C209.767 122.403 210.379 122.584 211.033 123L211.741 122.126L212.528 122.764L211.833 123.622C212.436 124.198 212.839 124.789 213.042 125.397L211.864 126.047C211.653 125.502 211.362 125.04 210.991 124.662L209.907 126.001C210.206 126.382 210.439 126.73 210.607 127.044C210.775 127.358 210.859 127.691 210.86 128.044C210.861 128.397 210.721 128.746 210.44 129.093C210.093 129.524 209.636 129.765 209.073 129.817ZM209.018 124.603C209.05 124.768 209.137 124.956 209.279 125.167L210.185 124.049C209.947 123.934 209.739 123.89 209.562 123.916C209.385 123.942 209.241 124.023 209.13 124.16C209.024 124.29 208.986 124.438 209.018 124.603ZM208.681 128.385C208.852 128.367 208.99 128.293 209.097 128.161C209.203 128.03 209.242 127.883 209.213 127.721C209.183 127.558 209.103 127.371 208.97 127.159L208.09 128.246C208.313 128.357 208.51 128.403 208.681 128.385Z" fill="#E6E6E6"/>
<path d="M209.556 130.208C208.992 130.26 208.384 130.083 207.731 129.676L207.017 130.558L206.229 129.92L206.924 129.062C206.553 128.726 206.238 128.358 205.98 127.958C205.721 127.558 205.553 127.186 205.474 126.844L206.685 126.234C206.765 126.542 206.899 126.855 207.086 127.171C207.273 127.488 207.497 127.774 207.76 128.03L208.825 126.714C208.524 126.323 208.29 125.968 208.122 125.65C207.954 125.331 207.869 124.995 207.868 124.642C207.867 124.289 208.009 123.937 208.294 123.585C208.647 123.15 209.109 122.904 209.679 122.849C210.25 122.794 210.862 122.974 211.516 123.391L212.224 122.517L213.012 123.154L212.316 124.013C212.92 124.588 213.323 125.18 213.526 125.788L212.348 126.437C212.137 125.893 211.846 125.431 211.474 125.052L210.39 126.391C210.69 126.773 210.923 127.121 211.091 127.434C211.258 127.748 211.342 128.081 211.343 128.434C211.344 128.787 211.205 129.137 210.924 129.483C210.575 129.915 210.119 130.156 209.556 130.208ZM209.501 124.994C209.533 125.159 209.62 125.347 209.762 125.558L210.667 124.44C210.429 124.325 210.222 124.281 210.045 124.307C209.867 124.333 209.723 124.414 209.613 124.551C209.506 124.681 209.469 124.829 209.501 124.994ZM209.164 128.776C209.335 128.758 209.473 128.684 209.58 128.552C209.686 128.421 209.725 128.274 209.696 128.112C209.666 127.949 209.586 127.762 209.453 127.55L208.573 128.637C208.796 128.748 208.993 128.794 209.164 128.776Z" fill="#F0F0F0"/>
<path d="M136.875 67.2854L125.72 68.4579C123.434 68.6979 121.386 67.0399 121.146 64.7544L119.974 53.5989C119.734 51.3134 121.392 49.2654 123.677 49.0254L134.833 47.8529C137.118 47.6129 139.166 49.2709 139.406 51.5564L140.579 62.7119C140.819 64.9974 139.161 67.0449 136.875 67.2854Z" fill="#EBEBEB"/>
<path d="M123.849 61.468L123.82 61.1855C123.685 59.8995 124.516 58.651 125.788 58.418C126.318 58.321 126.831 58.4045 127.275 58.6165C127.524 57.059 128.786 55.798 130.43 55.6255C131.945 55.466 133.336 56.28 133.989 57.561C134.501 57.456 135.072 57.4905 135.734 57.961C136.428 58.4545 136.856 59.244 136.945 60.091C137.022 60.8265 136.488 61.4855 135.753 61.5625L125.321 62.659C124.586 62.737 123.927 62.2035 123.849 61.468Z" fill="#FAFAFA"/>
<path d="M211.638 83.5244L203.053 82.4704C200.772 82.1904 199.149 80.1139 199.43 77.8329L200.484 69.2479C200.764 66.9669 202.84 65.3444 205.121 65.6249L213.706 66.6789C215.987 66.9589 217.609 69.0354 217.329 71.3164L216.275 79.9009C215.995 82.1824 213.919 83.8044 211.638 83.5244Z" fill="#F0F0F0"/>
<path d="M207.937 70.2324L212.169 74.3259C212.756 74.8934 212.636 75.8649 211.93 76.2739L206.833 79.2219C205.954 79.7299 204.874 79.0149 204.997 78.0079L205.862 70.9664C205.986 69.9589 207.208 69.5269 207.937 70.2324Z" fill="#E0E0E0"/>
<path d="M125 211.857C178.541 211.857 221.945 209.322 221.945 206.195C221.945 203.069 178.541 200.534 125 200.534C71.4592 200.534 28.0557 203.069 28.0557 206.195C28.0557 209.322 71.4592 211.857 125 211.857Z" fill="#F5F5F5"/>
<path d="M122.896 82.8774H133.307L143.807 202.886H133.395C128.569 202.886 124.315 198.974 123.893 194.148L114.922 91.6159C114.5 86.7899 118.07 82.8774 122.896 82.8774Z" fill="#263238"/>
<path d="M116.448 94.9139C116.408 94.4514 116 94.0764 115.537 94.0764C115.074 94.0764 114.733 94.4514 114.773 94.9139L115.476 102.954C115.517 103.416 115.924 103.791 116.387 103.791C116.85 103.791 117.192 103.416 117.151 102.954L116.448 94.9139Z" fill="#407BFF"/>
<path opacity="0.3" d="M116.448 94.9139C116.408 94.4514 116 94.0764 115.537 94.0764C115.074 94.0764 114.733 94.4514 114.773 94.9139L115.476 102.954C115.517 103.416 115.924 103.791 116.387 103.791C116.85 103.791 117.192 103.416 117.151 102.954L116.448 94.9139Z" fill="white"/>
<path d="M135.527 202.886H178.425C183.251 202.886 186.821 198.974 186.399 194.148L177.429 91.6159C177.007 86.7899 172.752 82.8779 167.926 82.8779H125.028C120.202 82.8779 116.632 86.7904 117.055 91.6159L126.025 194.148C126.447 198.974 130.701 202.886 135.527 202.886Z" fill="#407BFF"/>
<path d="M125.203 84.8824H136.353C137.084 84.8824 137.748 85.4254 137.903 86.1499L137.978 86.4994C138.359 88.2684 139.98 89.5939 141.764 89.5939H152.364C154.148 89.5939 155.537 88.2684 155.608 86.4994L155.622 86.1499C155.651 85.4254 156.22 84.8824 156.951 84.8824H168.101C171.819 84.8824 175.098 87.8969 175.423 91.6159L184.394 194.148C184.719 197.866 181.968 200.881 178.25 200.881H135.352C131.633 200.881 128.355 197.867 128.029 194.148L119.059 91.6159C118.734 87.8969 121.484 84.8824 125.203 84.8824Z" fill="#407BFF"/>
<path opacity="0.8" d="M125.203 84.8824H136.353C137.084 84.8824 137.748 85.4254 137.903 86.1499L137.978 86.4994C138.359 88.2684 139.98 89.5939 141.764 89.5939H152.364C154.148 89.5939 155.537 88.2684 155.608 86.4994L155.622 86.1499C155.651 85.4254 156.22 84.8824 156.951 84.8824H168.101C171.819 84.8824 175.098 87.8969 175.423 91.6159L184.394 194.148C184.719 197.866 181.968 200.881 178.25 200.881H135.352C131.633 200.881 128.355 197.867 128.029 194.148L119.059 91.6159C118.734 87.8969 121.484 84.8824 125.203 84.8824Z" fill="white"/>
<g opacity="0.2">
<path d="M149.346 86.0184C149.387 86.4889 149.802 86.8704 150.273 86.8704C150.743 86.8704 151.091 86.4889 151.05 86.0184C151.009 85.5479 150.594 85.1664 150.124 85.1664C149.653 85.1664 149.305 85.5479 149.346 86.0184Z" fill="black"/>
<path d="M143.23 85.1664C143.567 85.1664 145.815 85.1664 146.152 85.1664C146.622 85.1664 147.037 85.5479 147.078 86.0184C147.119 86.4889 146.771 86.8704 146.301 86.8704C146.009 86.8704 143.672 86.8704 143.379 86.8704C142.909 86.8704 142.494 86.4889 142.453 86.0184C142.412 85.5479 142.76 85.1664 143.23 85.1664Z" fill="black"/>
</g>
<g opacity="0.2">
<path d="M170.576 89.5769H169.674L169.595 88.6749H170.497L170.576 89.5769Z" fill="black"/>
<path d="M168.692 88.675L168.771 89.577H167.869L167.79 88.675L167.711 87.7725H168.614L168.692 88.675Z" fill="black"/>
<path d="M166.731 86.8705L166.81 87.7725L166.889 88.675L166.968 89.577H166.065L165.987 88.675L165.908 87.7725L165.829 86.8705H166.731Z" fill="black"/>
</g>
<path opacity="0.2" d="M123.972 86.9304L124.203 89.5769H128.173L128.115 88.9154H128.556L128.44 87.5924H127.999L127.941 86.9309H123.972V86.9304ZM126.235 87.5919H127.558L127.674 88.9149H126.351L126.235 87.5919Z" fill="black"/>
<g opacity="0.2">
<path d="M143.571 197.922C152.167 197.922 160.764 197.922 169.36 197.922C170.142 197.922 170.037 196.707 169.253 196.707C160.657 196.707 152.061 196.707 143.465 196.707C142.683 196.707 142.788 197.922 143.571 197.922Z" fill="black"/>
</g>
<path d="M176.648 175.049H170.78C168.919 175.049 167.277 173.54 167.115 171.678L166.601 165.81C166.438 163.949 167.815 162.439 169.677 162.439H175.545C177.406 162.439 179.048 163.948 179.21 165.81L179.724 171.678C179.886 173.54 178.509 175.049 176.648 175.049Z" fill="#407BFF"/>
<path opacity="0.5" d="M176.648 175.049H170.78C168.919 175.049 167.277 173.54 167.115 171.678L166.601 165.81C166.438 163.949 167.815 162.439 169.677 162.439H175.545C177.406 162.439 179.048 163.948 179.21 165.81L179.724 171.678C179.886 173.54 178.509 175.049 176.648 175.049Z" fill="white"/>
<path d="M174.961 155.771H169.094C167.232 155.771 165.591 154.262 165.428 152.4L164.915 146.533C164.752 144.671 166.129 143.162 167.991 143.162H173.858C175.72 143.162 177.361 144.671 177.524 146.533L178.037 152.4C178.2 154.262 176.823 155.771 174.961 155.771Z" fill="#407BFF"/>
<path opacity="0.5" d="M174.961 155.771H169.094C167.232 155.771 165.591 154.262 165.428 152.4L164.915 146.533C164.752 144.671 166.129 143.162 167.991 143.162H173.858C175.72 143.162 177.361 144.671 177.524 146.533L178.037 152.4C178.2 154.262 176.823 155.771 174.961 155.771Z" fill="white"/>
<path d="M155.711 155.771H149.844C147.982 155.771 146.341 154.262 146.178 152.4L145.665 146.533C145.502 144.671 146.879 143.162 148.741 143.162H154.608C156.47 143.162 158.111 144.671 158.274 146.533L158.787 152.4C158.95 154.262 157.573 155.771 155.711 155.771Z" fill="#407BFF"/>
<path opacity="0.5" d="M155.711 155.771H149.844C147.982 155.771 146.341 154.262 146.178 152.4L145.665 146.533C145.502 144.671 146.879 143.162 148.741 143.162H154.608C156.47 143.162 158.111 144.671 158.274 146.533L158.787 152.4C158.95 154.262 157.573 155.771 155.711 155.771Z" fill="white"/>
<path d="M136.462 155.771H130.595C128.733 155.771 127.092 154.262 126.929 152.4L126.416 146.533C126.253 144.671 127.63 143.162 129.492 143.162H135.359C137.221 143.162 138.862 144.671 139.025 146.533L139.538 152.4C139.701 154.262 138.324 155.771 136.462 155.771Z" fill="#407BFF"/>
<path d="M157.398 175.049H151.531C149.669 175.049 148.028 173.54 147.865 171.678L147.352 165.81C147.189 163.949 148.566 162.439 150.428 162.439H156.295C158.157 162.439 159.798 163.948 159.961 165.81L160.474 171.678C160.637 173.54 159.26 175.049 157.398 175.049Z" fill="#407BFF"/>
<path opacity="0.5" d="M157.398 175.049H151.531C149.669 175.049 148.028 173.54 147.865 171.678L147.352 165.81C147.189 163.949 148.566 162.439 150.428 162.439H156.295C158.157 162.439 159.798 163.948 159.961 165.81L160.474 171.678C160.637 173.54 159.26 175.049 157.398 175.049Z" fill="white"/>
<path d="M134.391 147.685C134.485 148.758 134.014 149.629 132.941 149.629C131.867 149.629 131.245 148.758 131.151 147.685C131.057 146.611 131.527 145.741 132.601 145.741C133.674 145.741 134.297 146.611 134.391 147.685Z" fill="white"/>
<path d="M133.253 153.193H136.25L136.094 151.411C136.008 150.427 134.596 149.629 132.941 149.629C131.285 149.629 130.014 150.427 130.1 151.411L130.256 153.193H133.253Z" fill="white"/>
<path d="M168.962 170.437L168.946 170.253C168.873 169.419 169.426 168.674 170.252 168.61C170.597 168.584 170.928 168.672 171.213 168.838C171.392 167.855 172.224 167.131 173.29 167.131C174.274 167.131 175.165 167.747 175.574 168.613C175.907 168.58 176.276 168.641 176.699 168.988C177.143 169.351 177.411 169.887 177.46 170.436C177.501 170.913 177.149 171.3 176.671 171.3H169.902C169.425 171.301 169.004 170.914 168.962 170.437Z" fill="white"/>
<path d="M151.23 146.305L154.952 148.94C155.468 149.306 155.532 150.033 155.079 150.398L151.818 153.033C151.256 153.487 150.357 153.058 150.291 152.304L149.83 147.034C149.764 146.28 150.588 145.851 151.23 146.305Z" fill="#407BFF"/>
<path d="M172.997 152.806H170.54C169.375 152.806 168.347 151.861 168.245 150.696L168.03 148.238C167.928 147.073 168.79 146.128 169.956 146.128H172.413C173.579 146.128 174.606 147.073 174.708 148.238L174.923 150.696C175.024 151.861 174.162 152.806 172.997 152.806Z" fill="#407BFF"/>
<path d="M154.503 166.69C154.464 166.993 154.216 167.209 153.906 167.209H151.279C150.917 167.209 150.648 167.503 150.68 167.866L150.94 170.839C150.972 171.202 151.292 171.496 151.654 171.496H156.653C157.015 171.496 157.284 171.202 157.252 170.839L157.009 168.061L156.934 167.209L156.901 166.828C156.869 166.465 156.549 166.171 156.187 166.171H155.099C154.79 166.171 154.541 166.387 154.503 166.69Z" fill="white"/>
<path d="M172.824 149.467C172.889 150.212 172.338 150.815 171.594 150.815C170.849 150.815 170.193 150.212 170.128 149.467C170.063 148.723 170.614 148.119 171.358 148.119C172.103 148.119 172.758 148.723 172.824 149.467Z" fill="white"/>
<path d="M173.551 147.677C173.573 147.921 173.392 148.119 173.148 148.119C172.904 148.119 172.688 147.921 172.667 147.677C172.645 147.433 172.826 147.235 173.07 147.235C173.314 147.235 173.53 147.433 173.551 147.677Z" fill="white"/>
<path d="M138.149 175.049H132.281C130.42 175.049 128.778 173.54 128.616 171.678L128.102 165.81C127.939 163.949 129.316 162.439 131.178 162.439H137.046C138.907 162.439 140.549 163.948 140.711 165.81L141.225 171.678C141.387 173.54 140.01 175.049 138.149 175.049Z" fill="#407BFF"/>
<path opacity="0.5" d="M138.149 175.049H132.281C130.42 175.049 128.778 173.54 128.616 171.678L128.102 165.81C127.939 163.949 129.316 162.439 131.178 162.439H137.046C138.907 162.439 140.549 163.948 140.711 165.81L141.225 171.678C141.387 173.54 140.01 175.049 138.149 175.049Z" fill="white"/>
<path d="M134.351 165.176C132.38 165.176 130.922 166.774 131.095 168.745C131.143 169.297 131.318 169.818 131.583 170.285L131.414 172.306L133.405 171.961C133.892 172.185 134.424 172.314 134.976 172.314C136.947 172.314 138.405 170.716 138.232 168.745C138.06 166.773 136.322 165.176 134.351 165.176Z" fill="#407BFF"/>
<path d="M136.475 169.903C136.402 169.176 136.059 168.494 135.499 167.98C134.94 167.465 134.233 167.182 133.506 167.172C133.154 167.113 132.708 167.286 132.607 167.397C132.474 167.542 132.635 167.906 132.965 168.21C133.296 168.514 133.671 168.643 133.804 168.497C133.878 168.416 133.967 168.147 133.975 167.872C134.781 168.055 135.487 168.705 135.739 169.495C135.467 169.528 135.208 169.639 135.134 169.721C135.001 169.866 135.162 170.23 135.492 170.534C135.823 170.838 136.198 170.967 136.331 170.821C136.432 170.71 136.565 170.25 136.475 169.903Z" fill="white"/>
<path d="M172.707 137.14H130.42C127.984 137.14 125.837 135.165 125.624 132.73C125.411 130.294 127.212 128.32 129.648 128.32H171.936C174.371 128.32 176.519 130.294 176.732 132.73C176.945 135.166 175.143 137.14 172.707 137.14Z" fill="white"/>
<path opacity="0.2" d="M152.179 130.545C151.2 129.645 149.74 129.645 148.918 130.545C148.096 131.446 148.224 132.906 149.203 133.807C150.151 134.678 151.547 134.704 152.381 133.889C152.29 134.074 152.329 134.311 152.501 134.47L153.865 135.724C154.07 135.913 154.377 135.913 154.55 135.724C154.722 135.535 154.695 135.229 154.49 135.04L153.126 133.785C152.954 133.627 152.715 133.609 152.539 133.716C153.274 132.81 153.127 131.417 152.179 130.545ZM151.945 133.329C151.364 133.966 150.332 133.966 149.639 133.329C148.946 132.692 148.856 131.66 149.437 131.023C150.018 130.386 151.05 130.386 151.743 131.023C152.436 131.66 152.526 132.693 151.945 133.329Z" fill="black"/>
<path d="M125.563 100.966L126.034 106.353H125.034L124.636 101.805H123.497L123.423 100.966H125.563Z" fill="#407BFF"/>
<path d="M130.303 103.698C130.589 103.975 130.75 104.321 130.786 104.736C130.814 105.049 130.759 105.334 130.622 105.591C130.486 105.847 130.264 106.051 129.956 106.203C129.649 106.354 129.265 106.43 128.803 106.43C128.418 106.43 128.043 106.374 127.677 106.264C127.311 106.154 126.993 106.002 126.725 105.807L127.088 105.03C127.297 105.194 127.545 105.323 127.833 105.418C128.121 105.513 128.413 105.561 128.711 105.561C129.065 105.561 129.337 105.488 129.527 105.342C129.717 105.195 129.801 104.996 129.779 104.745C129.757 104.494 129.644 104.298 129.439 104.156C129.234 104.015 128.935 103.945 128.54 103.945H128.047L127.987 103.26L129.083 101.806H126.636L126.562 100.967H130.233L130.292 101.636L129.12 103.19C129.623 103.251 130.017 103.421 130.303 103.698Z" fill="#407BFF"/>
<path d="M131.468 103.294C131.334 103.174 131.259 103.021 131.243 102.836C131.227 102.646 131.273 102.493 131.384 102.374C131.494 102.256 131.639 102.197 131.818 102.197C131.998 102.197 132.153 102.256 132.284 102.374C132.415 102.492 132.488 102.646 132.505 102.836C132.521 103.021 132.473 103.174 132.36 103.294C132.248 103.414 132.104 103.474 131.93 103.474C131.756 103.474 131.602 103.414 131.468 103.294ZM131.724 106.226C131.591 106.105 131.516 105.952 131.5 105.768C131.483 105.578 131.53 105.424 131.64 105.306C131.75 105.188 131.895 105.129 132.075 105.129C132.254 105.129 132.41 105.189 132.54 105.306C132.671 105.424 132.745 105.578 132.761 105.768C132.777 105.952 132.729 106.105 132.617 106.226C132.504 106.346 132.361 106.406 132.186 106.406C132.012 106.406 131.858 106.346 131.724 106.226Z" fill="#407BFF"/>
<path d="M134.53 106.103C134.173 105.885 133.878 105.566 133.646 105.148C133.415 104.73 133.274 104.234 133.224 103.659C133.174 103.085 133.228 102.589 133.386 102.171C133.544 101.753 133.783 101.434 134.103 101.216C134.422 100.998 134.797 100.889 135.228 100.889C135.659 100.889 136.055 100.998 136.415 101.216C136.775 101.434 137.071 101.753 137.303 102.171C137.534 102.589 137.675 103.085 137.725 103.659C137.776 104.234 137.721 104.73 137.563 105.148C137.405 105.566 137.165 105.885 136.843 106.103C136.52 106.321 136.144 106.43 135.713 106.43C135.282 106.43 134.888 106.321 134.53 106.103ZM136.507 105.083C136.702 104.765 136.772 104.291 136.717 103.659C136.662 103.028 136.508 102.554 136.258 102.236C136.007 101.918 135.689 101.759 135.304 101.759C134.924 101.759 134.637 101.918 134.441 102.236C134.246 102.554 134.176 103.028 134.231 103.659C134.286 104.291 134.44 104.765 134.69 105.083C134.941 105.401 135.256 105.56 135.636 105.56C136.022 105.56 136.312 105.401 136.507 105.083Z" fill="#407BFF"/>
<path d="M139.709 106.103C139.351 105.885 139.056 105.566 138.825 105.148C138.593 104.73 138.452 104.234 138.402 103.659C138.352 103.085 138.406 102.589 138.564 102.171C138.722 101.753 138.962 101.434 139.281 101.216C139.601 100.998 139.976 100.889 140.407 100.889C140.838 100.889 141.233 100.998 141.594 101.216C141.954 101.434 142.25 101.753 142.481 102.171C142.713 102.589 142.854 103.085 142.904 103.659C142.954 104.234 142.9 104.73 142.742 105.148C142.584 105.566 142.344 105.885 142.022 106.103C141.699 106.321 141.323 106.43 140.892 106.43C140.46 106.43 140.066 106.321 139.709 106.103ZM141.686 105.083C141.881 104.765 141.951 104.291 141.896 103.659C141.841 103.028 141.687 102.554 141.437 102.236C141.186 101.918 140.868 101.759 140.483 101.759C140.103 101.759 139.816 101.918 139.62 102.236C139.425 102.554 139.355 103.028 139.41 103.659C139.466 104.291 139.619 104.765 139.869 105.083C140.12 105.401 140.435 105.56 140.815 105.56C141.2 105.56 141.49 105.401 141.686 105.083Z" fill="#407BFF"/>
<path d="M159.514 105.901L159.557 106.385H157.283L157.249 106.002L158.373 104.838C158.499 104.706 158.582 104.591 158.622 104.492C158.662 104.394 158.678 104.296 158.669 104.199C158.657 104.055 158.599 103.945 158.495 103.869C158.391 103.792 158.245 103.754 158.057 103.754C157.743 103.754 157.511 103.861 157.363 104.076L156.935 103.767C157.041 103.606 157.192 103.48 157.389 103.39C157.585 103.301 157.81 103.256 158.062 103.256C158.397 103.256 158.671 103.335 158.885 103.494C159.099 103.652 159.218 103.868 159.242 104.142C159.256 104.309 159.235 104.466 159.177 104.613C159.12 104.76 158.999 104.928 158.816 105.116L158.06 105.9H159.514V105.901Z" fill="#407BFF"/>
<path d="M161.674 104.749C161.898 104.918 162.022 105.148 162.047 105.438C162.063 105.623 162.033 105.791 161.955 105.941C161.877 106.091 161.75 106.21 161.576 106.298C161.402 106.386 161.181 106.43 160.914 106.43C160.693 106.43 160.478 106.398 160.266 106.335C160.055 106.272 159.874 106.185 159.723 106.073L159.927 105.628C160.05 105.722 160.193 105.796 160.358 105.85C160.523 105.905 160.691 105.932 160.861 105.932C161.064 105.932 161.22 105.89 161.328 105.806C161.437 105.723 161.485 105.607 161.472 105.46C161.458 105.302 161.385 105.182 161.253 105.101C161.121 105.021 160.904 104.98 160.601 104.98H159.856L159.868 103.301H161.679L161.721 103.782H160.395L160.391 104.496H160.686C161.121 104.496 161.451 104.58 161.674 104.749Z" fill="#407BFF"/>
<path d="M162.612 104.643C162.492 104.577 162.394 104.488 162.318 104.376C162.242 104.265 162.198 104.141 162.186 104.006C162.174 103.871 162.197 103.747 162.253 103.634C162.309 103.521 162.391 103.431 162.5 103.365C162.609 103.299 162.732 103.266 162.871 103.266C163.009 103.266 163.138 103.299 163.258 103.365C163.379 103.431 163.477 103.521 163.553 103.634C163.629 103.747 163.673 103.871 163.685 104.006C163.697 104.141 163.674 104.265 163.618 104.376C163.561 104.488 163.479 104.577 163.37 104.643C163.261 104.709 163.138 104.742 163 104.742C162.862 104.742 162.733 104.709 162.612 104.643ZM163.278 104.323C163.354 104.238 163.387 104.132 163.376 104.006C163.365 103.877 163.314 103.77 163.222 103.685C163.131 103.6 163.022 103.557 162.896 103.557C162.77 103.557 162.668 103.599 162.59 103.685C162.512 103.77 162.479 103.877 162.491 104.006C162.502 104.133 162.554 104.238 162.646 104.323C162.739 104.409 162.848 104.451 162.975 104.451C163.101 104.451 163.202 104.409 163.278 104.323Z" fill="#407BFF"/>
<path d="M169.928 106.43H164.695C164.24 106.43 163.838 106.06 163.798 105.605L163.786 105.464C163.721 104.718 164.222 104.091 164.927 104.037C165.149 104.022 165.373 104.057 165.584 104.145C165.801 103.399 166.477 102.893 167.287 102.893C168.046 102.893 168.781 103.347 169.154 104.033C169.455 104.027 169.748 104.137 170.03 104.368C170.401 104.672 170.639 105.123 170.681 105.605C170.72 106.06 170.382 106.43 169.928 106.43ZM165.059 104.346C165.032 104.346 165.005 104.347 164.978 104.349C164.434 104.391 164.048 104.88 164.099 105.464L164.111 105.605C164.136 105.887 164.385 106.117 164.667 106.117H169.9C170.182 106.117 170.392 105.887 170.367 105.605C170.332 105.213 170.141 104.848 169.842 104.603C169.528 104.346 169.277 104.333 169.094 104.352L168.977 104.363L168.924 104.252C168.629 103.626 167.982 103.206 167.314 103.206C166.581 103.206 165.978 103.701 165.849 104.41L165.812 104.612L165.624 104.502C165.447 104.399 165.253 104.346 165.059 104.346Z" fill="#407BFF"/>
<path d="M170.467 103.173C170.109 103.173 169.793 102.882 169.761 102.524C169.73 102.166 169.996 101.874 170.354 101.874C170.712 101.874 171.029 102.166 171.06 102.524C171.091 102.882 170.825 103.173 170.467 103.173ZM170.37 102.056C170.112 102.056 169.92 102.266 169.943 102.524C169.965 102.782 170.194 102.992 170.452 102.992C170.71 102.992 170.901 102.782 170.879 102.524C170.856 102.266 170.628 102.056 170.37 102.056Z" fill="#407BFF"/>
<path d="M170.419 101.588H170.238L170.179 100.909H170.36L170.419 101.588Z" fill="#407BFF"/>
<path d="M170.642 104.138H170.461L170.402 103.459H170.583L170.642 104.138Z" fill="#407BFF"/>
<path d="M172.033 102.614H171.354L171.338 102.433H172.017L172.033 102.614Z" fill="#407BFF"/>
<path d="M169.484 102.614H168.804L168.788 102.433H169.468L169.484 102.614Z" fill="#407BFF"/>
<path d="M171.084 101.926L170.944 101.798L171.383 101.318L171.522 101.446L171.084 101.926Z" fill="#407BFF"/>
<path d="M169.438 103.73L169.299 103.602L169.737 103.121L169.877 103.249L169.438 103.73Z" fill="#407BFF"/>
<path d="M171.594 103.73L171.071 103.249L171.188 103.121L171.711 103.602L171.594 103.73Z" fill="#407BFF"/>
<path d="M169.633 101.926L169.11 101.446L169.227 101.318L169.75 101.798L169.633 101.926Z" fill="#407BFF"/>
<path d="M53.0889 56.1095H65.4779C66.2894 56.1095 67.0274 56.7125 67.2004 57.5175L67.2839 57.9055C67.7069 59.871 69.5084 61.344 71.4904 61.344H83.2684C85.2499 61.344 86.7939 59.871 86.8729 57.9055L86.8884 57.5175C86.9209 56.7125 87.5529 56.1095 88.3644 56.1095H100.753C104.885 56.1095 108.528 59.459 108.889 63.591L118.856 177.516C119.218 181.648 116.161 184.997 112.029 184.997H64.3649C60.2329 184.997 56.5904 181.648 56.2289 177.516L46.2624 63.591C45.9009 59.459 48.9574 56.1095 53.0889 56.1095Z" fill="#407BFF"/>
<path opacity="0.7" d="M53.0889 56.1095H65.4779C66.2894 56.1095 67.0274 56.7125 67.2004 57.5175L67.2839 57.9055C67.7069 59.871 69.5084 61.344 71.4904 61.344H83.2684C85.2499 61.344 86.7939 59.871 86.8729 57.9055L86.8884 57.5175C86.9209 56.7125 87.5529 56.1095 88.3644 56.1095H100.753C104.885 56.1095 108.528 59.459 108.889 63.591L118.856 177.516C119.218 181.648 116.161 184.997 112.029 184.997H64.3649C60.2329 184.997 56.5904 181.648 56.2289 177.516L46.2624 63.591C45.9009 59.459 48.9574 56.1095 53.0889 56.1095Z" fill="white"/>
<g opacity="0.2">
<path d="M73.4984 181.709C83.0499 181.709 92.6009 181.709 102.152 181.709C103.021 181.709 102.904 180.359 102.034 180.359C92.4829 180.359 82.9319 180.359 73.3804 180.359C72.5114 180.359 72.6279 181.709 73.4984 181.709Z" fill="black"/>
</g>
<path d="M100.754 56.1095H88.3649C87.5534 56.1095 86.9214 56.7125 86.8889 57.5175L86.8734 57.9055C86.7944 59.871 85.2504 61.344 83.2689 61.344H71.4909C69.5089 61.344 67.7074 59.871 67.2844 57.9055L67.2009 57.5175C67.0279 56.7125 66.2899 56.1095 65.4784 56.1095H53.0894C48.9574 56.1095 45.9009 59.459 46.2624 63.591L48.7314 91.809H111.359L108.89 63.591C108.528 59.459 104.886 56.1095 100.754 56.1095Z" fill="#407BFF"/>
<g opacity="0.5">
<path d="M103.504 61.3255H102.502L102.414 60.3235H103.416L103.504 61.3255Z" fill="white"/>
<path d="M101.411 60.3234L101.499 61.3254H100.496L100.409 60.3234L100.321 59.3209H101.323L101.411 60.3234Z" fill="white"/>
<path d="M99.231 58.3185L99.319 59.321L99.4065 60.3235L99.494 61.3255H98.492L98.404 60.3235L98.3165 59.321L98.229 58.3185H99.231Z" fill="white"/>
</g>
<path opacity="0.5" d="M51.7207 58.3855L51.9777 61.326H56.3882L56.3237 60.591H56.8137L56.6852 59.121H56.1952L56.1307 58.386L51.7207 58.3855ZM54.2357 59.1205H55.7057L55.8342 60.5905H54.3642L54.2357 59.1205Z" fill="white"/>
<path d="M64.5975 88.2365H58.078C56.0095 88.2365 54.186 86.5595 54.005 84.491L53.4345 77.9715C53.2535 75.903 54.7835 74.226 56.852 74.226H63.3715C65.44 74.226 67.2635 75.903 67.4445 77.9715L68.015 84.491C68.196 86.56 66.666 88.2365 64.5975 88.2365Z" fill="white"/>
<path d="M62.2961 79.2516C62.4006 80.4446 61.8781 81.4116 60.6851 81.4116C59.4921 81.4116 58.8006 80.4446 58.6961 79.2516C58.5916 78.0586 59.1141 77.0916 60.3071 77.0916C61.5001 77.0916 62.1916 78.0586 62.2961 79.2516Z" fill="#407BFF"/>
<path d="M61.0315 85.3715H64.3615L64.1885 83.3915C64.093 82.298 62.5245 81.4115 60.6855 81.4115C58.8465 81.4115 57.433 82.298 57.5285 83.3915L57.702 85.3715H61.0315Z" fill="#407BFF"/>
<path d="M94.6771 83.3914H74.0371C73.4406 83.3914 72.9146 82.9079 72.8626 82.3114C72.8106 81.7149 73.2516 81.2314 73.8481 81.2314H94.4881C95.0846 81.2314 95.6106 81.7149 95.6626 82.3114C95.7146 82.9079 95.2736 83.3914 94.6771 83.3914Z" fill="white"/>
<path d="M105.032 80.819H100.374C100.126 80.819 99.9075 80.618 99.886 80.3705C99.8645 80.1225 100.047 79.922 100.295 79.922H104.954C105.202 79.922 105.42 80.123 105.442 80.3705C105.463 80.6185 105.28 80.819 105.032 80.819Z" fill="white"/>
<path d="M105.212 82.8705H100.553C100.305 82.8705 100.087 82.6695 100.065 82.422C100.044 82.174 100.227 81.9735 100.475 81.9735H105.133C105.381 81.9735 105.6 82.1745 105.621 82.422C105.643 82.6695 105.459 82.8705 105.212 82.8705Z" fill="white"/>
<path d="M105.391 84.9215H100.733C100.485 84.9215 100.266 84.7205 100.245 84.473C100.223 84.225 100.406 84.0245 100.654 84.0245H105.313C105.561 84.0245 105.779 84.2255 105.801 84.473C105.822 84.7205 105.639 84.9215 105.391 84.9215Z" fill="white"/>
<path d="M79.8574 110.423H58.0894C57.0864 110.423 56.2024 109.61 56.1149 108.607L55.0939 96.9386C55.0064 95.9356 55.7479 95.1226 56.7509 95.1226H78.5189C79.5219 95.1226 80.4059 95.9356 80.4934 96.9386L81.5144 108.607C81.6019 109.61 80.8604 110.423 79.8574 110.423Z" fill="#263238"/>
<path opacity="0.6" d="M79.8574 110.423H58.0894C57.0864 110.423 56.2024 109.61 56.1149 108.607L55.0939 96.9386C55.0064 95.9356 55.7479 95.1226 56.7509 95.1226H78.5189C79.5219 95.1226 80.4059 95.9356 80.4934 96.9386L81.5144 108.607C81.6019 109.61 80.8604 110.423 79.8574 110.423Z" fill="white"/>
<path d="M81.4385 128.493H59.6705C58.6675 128.493 57.7835 127.68 57.696 126.677L56.675 115.008C56.5875 114.005 57.329 113.192 58.332 113.192H80.1C81.103 113.192 81.987 114.005 82.0745 115.008L83.0955 126.677C83.183 127.68 82.4415 128.493 81.4385 128.493Z" fill="#263238"/>
<path opacity="0.6" d="M81.4385 128.493H59.6705C58.6675 128.493 57.7835 127.68 57.696 126.677L56.675 115.008C56.5875 114.005 57.329 113.192 58.332 113.192H80.1C81.103 113.192 81.987 114.005 82.0745 115.008L83.0955 126.677C83.183 127.68 82.4415 128.493 81.4385 128.493Z" fill="white"/>
<path d="M85.644 176.56H63.876C62.873 176.56 61.989 175.747 61.9015 174.744L60.8805 163.075C60.793 162.072 61.5345 161.259 62.5375 161.259H84.3055C85.3085 161.259 86.1925 162.072 86.28 163.075L87.3011 174.744C87.3885 175.747 86.6465 176.56 85.644 176.56Z" fill="#263238"/>
<path opacity="0.6" d="M85.644 176.56H63.876C62.873 176.56 61.989 175.747 61.9015 174.744L60.8805 163.075C60.793 162.072 61.5345 161.259 62.5375 161.259H84.3055C85.3085 161.259 86.1925 162.072 86.28 163.075L87.3011 174.744C87.3885 175.747 86.6465 176.56 85.644 176.56Z" fill="white"/>
<path d="M117.223 158.838H54.5953L52.1523 130.914H114.78L117.223 158.838Z" fill="#263238"/>
<path d="M82.9703 139.925L88.4473 143.803C89.2068 144.34 89.3003 145.41 88.6353 145.948L83.8368 149.826C83.0098 150.494 81.6863 149.862 81.5893 148.753L80.9108 140.997C80.8133 139.888 82.0263 139.257 82.9703 139.925Z" fill="white"/>
<path d="M106.12 102.773H86.6734C85.9654 102.773 85.3414 102.199 85.2794 101.491C85.2174 100.783 85.7414 100.209 86.4489 100.209H105.895C106.603 100.209 107.227 100.783 107.289 101.491C107.351 102.199 106.828 102.773 106.12 102.773Z" fill="#263238"/>
<path d="M103.003 108.299H87.1568C86.4488 108.299 85.8248 107.725 85.7628 107.017C85.7008 106.309 86.2243 105.735 86.9323 105.735H102.779C103.487 105.735 104.111 106.309 104.173 107.017C104.235 107.726 103.711 108.299 103.003 108.299Z" fill="#263238"/>
<g opacity="0.6">
<path d="M106.12 102.773H86.6734C85.9654 102.773 85.3414 102.199 85.2794 101.491C85.2174 100.783 85.7414 100.209 86.4489 100.209H105.895C106.603 100.209 107.227 100.783 107.289 101.491C107.351 102.199 106.828 102.773 106.12 102.773Z" fill="white"/>
<path d="M103.003 108.299H87.1568C86.4488 108.299 85.8248 107.725 85.7628 107.017C85.7008 106.309 86.2243 105.735 86.9323 105.735H102.779C103.487 105.735 104.111 106.309 104.173 107.017C104.235 107.726 103.711 108.299 103.003 108.299Z" fill="white"/>
</g>
<path d="M107.737 121.246H88.2901C87.5821 121.246 86.9581 120.672 86.8961 119.964C86.8341 119.256 87.3576 118.682 88.0656 118.682H107.512C108.22 118.682 108.844 119.256 108.906 119.964C108.968 120.673 108.444 121.246 107.737 121.246Z" fill="#263238"/>
<path d="M104.62 126.773H88.7735C88.0655 126.773 87.4415 126.199 87.3795 125.491C87.3175 124.783 87.8415 124.209 88.549 124.209H104.395C105.103 124.209 105.727 124.783 105.789 125.491C105.851 126.199 105.327 126.773 104.62 126.773Z" fill="#263238"/>
<g opacity="0.6">
<path d="M107.737 121.246H88.2901C87.5821 121.246 86.9581 120.672 86.8961 119.964C86.8341 119.256 87.3576 118.682 88.0656 118.682H107.512C108.22 118.682 108.844 119.256 108.906 119.964C108.968 120.673 108.444 121.246 107.737 121.246Z" fill="white"/>
<path d="M104.62 126.773H88.7735C88.0655 126.773 87.4415 126.199 87.3795 125.491C87.3175 124.783 87.8415 124.209 88.549 124.209H104.395C105.103 124.209 105.727 124.783 105.789 125.491C105.851 126.199 105.327 126.773 104.62 126.773Z" fill="white"/>
</g>
<path d="M111.974 169.683H92.5274C91.8194 169.683 91.1954 169.109 91.1334 168.401C91.0714 167.693 91.5949 167.119 92.3029 167.119H111.749C112.457 167.119 113.081 167.693 113.143 168.401C113.205 169.109 112.682 169.683 111.974 169.683Z" fill="#263238"/>
<path d="M108.857 175.21H93.0108C92.3028 175.21 91.6788 174.636 91.6168 173.928C91.5548 173.22 92.0783 172.646 92.7863 172.646H108.633C109.341 172.646 109.965 173.22 110.027 173.928C110.089 174.636 109.565 175.21 108.857 175.21Z" fill="#263238"/>
<g opacity="0.6">
<path d="M111.974 169.683H92.5274C91.8194 169.683 91.1954 169.109 91.1334 168.401C91.0714 167.693 91.5949 167.119 92.3029 167.119H111.749C112.457 167.119 113.081 167.693 113.143 168.401C113.205 169.109 112.682 169.683 111.974 169.683Z" fill="white"/>
<path d="M108.857 175.21H93.0108C92.3028 175.21 91.6788 174.636 91.6168 173.928C91.5548 173.22 92.0783 172.646 92.7863 172.646H108.633C109.341 172.646 109.965 173.22 110.027 173.928C110.089 174.636 109.565 175.21 108.857 175.21Z" fill="white"/>
</g>
<path d="M55.9183 182.453C62.5118 181.76 67.2948 175.854 66.6018 169.26C65.9088 162.667 60.0023 157.884 53.4088 158.577L51.1038 158.819C44.5103 159.512 39.7273 165.418 40.4203 172.012C41.1133 178.605 47.0198 183.388 53.6133 182.695L55.9183 182.453Z" fill="#407BFF"/>
<g opacity="0.2">
<path d="M59.1037 174.098L41.5317 175.945C41.6442 176.179 41.7637 176.41 41.8902 176.635L59.1792 174.818L59.1037 174.098Z" fill="white"/>
<path d="M58.808 171.284L40.605 173.198C40.6545 173.438 40.7125 173.674 40.7755 173.908L58.8835 172.005L58.808 171.284Z" fill="white"/>
<path d="M58.5126 168.471L40.3621 170.379C40.3551 170.62 40.3551 170.863 40.3626 171.107L58.5881 169.192L58.5126 168.471Z" fill="white"/>
<path d="M59.3998 176.911L43.2778 178.606C43.4758 178.834 43.6813 179.056 43.8953 179.269L59.4753 177.632L59.3998 176.911Z" fill="white"/>
<path d="M43.9453 162.198L57.7013 160.752L57.6258 160.032L44.8773 161.372C44.5518 161.632 44.2408 161.908 43.9453 162.198Z" fill="white"/>
<path d="M59.6953 179.724L46.3188 181.13C46.7008 181.353 47.0963 181.554 47.5023 181.734L59.7708 180.445L59.6953 179.724Z" fill="white"/>
<path d="M57.9212 162.845L42.1122 164.507C41.9582 164.759 41.8137 165.017 41.6782 165.281L57.9972 163.566L57.9212 162.845Z" fill="white"/>
<path d="M58.2171 165.658L40.8086 167.488C40.7386 167.735 40.6761 167.984 40.6221 168.236L58.2926 166.379L58.2171 165.658Z" fill="white"/>
</g>
<path d="M65.8362 174.889C68.254 168.716 65.21 161.752 59.0371 159.334C52.8643 156.916 45.9002 159.96 43.4824 166.133C41.0645 172.306 44.1086 179.27 50.2814 181.688C56.4543 184.105 63.4184 181.061 65.8362 174.889Z" fill="#407BFF"/>
<path opacity="0.4" d="M65.8362 174.889C68.254 168.716 65.21 161.752 59.0371 159.334C52.8643 156.916 45.9002 159.96 43.4824 166.133C41.0645 172.306 44.1086 179.27 50.2814 181.688C56.4543 184.105 63.4184 181.061 65.8362 174.889Z" fill="white"/>
<path opacity="0.2" d="M64.3481 170.879C64.5541 165.533 60.3873 161.032 55.0413 160.826C49.6953 160.62 45.1946 164.787 44.9887 170.133C44.7827 175.479 48.9495 179.979 54.2954 180.185C59.6414 180.391 64.1421 176.224 64.3481 170.879Z" fill="white"/>
<path d="M53.6509 160.881C53.4544 160.902 53.2604 160.93 53.0679 160.962C58.1474 160.734 62.5879 164.502 63.1264 169.625C63.6649 174.749 60.1044 179.357 55.0889 180.19C55.2839 180.182 55.4794 180.169 55.6759 180.148C60.9964 179.589 64.8559 174.823 64.2969 169.502C63.7379 164.182 58.9714 160.322 53.6509 160.881Z" fill="#407BFF"/>
<path d="M57.3456 174.11C56.8631 174.691 56.1226 175.097 55.1246 175.328L55.2826 176.832L53.9396 176.973L53.7856 175.509C53.1191 175.543 52.4756 175.493 51.8551 175.359C51.2346 175.226 50.7256 175.035 50.3286 174.787L50.8951 173.071C51.2616 173.286 51.6821 173.454 52.1566 173.576C52.6311 173.698 53.1126 173.756 53.6006 173.75L53.3646 171.507C52.7126 171.422 52.1576 171.308 51.6991 171.167C51.2406 171.025 50.8446 170.788 50.5111 170.457C50.1776 170.125 49.9791 169.659 49.9161 169.059C49.8381 168.316 50.0421 167.65 50.5276 167.06C51.0136 166.47 51.7606 166.064 52.7691 165.84L52.6126 164.349L53.9556 164.208L54.1096 165.672C55.2206 165.646 56.1576 165.823 56.9221 166.205L56.4241 167.927C55.7121 167.613 55.0026 167.452 54.2961 167.445L54.5361 169.728C55.1776 169.805 55.7251 169.913 56.1791 170.051C56.6326 170.189 57.0261 170.423 57.3596 170.755C57.6931 171.087 57.8911 171.548 57.9531 172.139C58.0301 172.873 57.8276 173.53 57.3456 174.11ZM52.3801 169.248C52.5651 169.374 52.8246 169.469 53.1571 169.533L52.9566 167.626C52.6246 167.742 52.3871 167.897 52.2446 168.088C52.1016 168.28 52.0426 168.492 52.0671 168.725C52.0911 168.948 52.1951 169.123 52.3801 169.248ZM55.6266 173.13C55.7706 172.952 55.8311 172.751 55.8076 172.527C55.7841 172.303 55.6821 172.128 55.5016 172.002C55.3206 171.876 55.0681 171.776 54.7436 171.702L54.9386 173.555C55.2531 173.45 55.4821 173.308 55.6266 173.13Z" fill="#407BFF"/>
<path d="M58.1693 174.023C57.6868 174.604 56.9463 175.01 55.9483 175.241L56.1063 176.745L54.7633 176.886L54.6093 175.423C53.9428 175.457 53.2993 175.406 52.6788 175.272C52.0583 175.139 51.5493 174.948 51.1523 174.699L51.7188 172.983C52.0853 173.198 52.5058 173.367 52.9803 173.489C53.4548 173.611 53.9363 173.669 54.4243 173.663L54.1883 171.42C53.5363 171.334 52.9813 171.221 52.5228 171.079C52.0643 170.937 51.6683 170.7 51.3348 170.369C51.0013 170.038 50.8028 169.572 50.7398 168.972C50.6618 168.229 50.8658 167.562 51.3513 166.973C51.8373 166.383 52.5843 165.976 53.5928 165.752L53.4363 164.262L54.7793 164.121L54.9333 165.585C56.0438 165.558 56.9813 165.736 57.7458 166.117L57.2478 167.84C56.5358 167.525 55.8263 167.364 55.1198 167.357L55.3598 169.64C56.0013 169.718 56.5488 169.826 57.0028 169.963C57.4563 170.101 57.8498 170.336 58.1833 170.668C58.5168 170.999 58.7148 171.461 58.7768 172.051C58.8533 172.786 58.6508 173.443 58.1693 174.023ZM53.2038 169.161C53.3888 169.287 53.6483 169.382 53.9808 169.446L53.7803 167.539C53.4483 167.655 53.2108 167.809 53.0683 168.001C52.9253 168.192 52.8663 168.404 52.8908 168.637C52.9143 168.861 53.0188 169.036 53.2038 169.161ZM56.4498 173.043C56.5938 172.865 56.6543 172.664 56.6308 172.44C56.6073 172.216 56.5053 172.041 56.3248 171.915C56.1438 171.79 55.8913 171.689 55.5668 171.615L55.7618 173.468C56.0763 173.363 56.3058 173.221 56.4498 173.043Z" fill="#407BFF"/>
<g opacity="0.4">
<path d="M58.1693 174.023C57.6868 174.604 56.9463 175.01 55.9483 175.241L56.1063 176.745L54.7633 176.886L54.6093 175.423C53.9428 175.457 53.2993 175.406 52.6788 175.272C52.0583 175.139 51.5493 174.948 51.1523 174.699L51.7188 172.983C52.0853 173.198 52.5058 173.367 52.9803 173.489C53.4548 173.611 53.9363 173.669 54.4243 173.663L54.1883 171.42C53.5363 171.334 52.9813 171.221 52.5228 171.079C52.0643 170.937 51.6683 170.7 51.3348 170.369C51.0013 170.038 50.8028 169.572 50.7398 168.972C50.6618 168.229 50.8658 167.562 51.3513 166.973C51.8373 166.383 52.5843 165.976 53.5928 165.752L53.4363 164.262L54.7793 164.121L54.9333 165.585C56.0438 165.558 56.9813 165.736 57.7458 166.117L57.2478 167.84C56.5358 167.525 55.8263 167.364 55.1198 167.357L55.3598 169.64C56.0013 169.718 56.5488 169.826 57.0028 169.963C57.4563 170.101 57.8498 170.336 58.1833 170.668C58.5168 170.999 58.7148 171.461 58.7768 172.051C58.8533 172.786 58.6508 173.443 58.1693 174.023ZM53.2038 169.161C53.3888 169.287 53.6483 169.382 53.9808 169.446L53.7803 167.539C53.4483 167.655 53.2108 167.809 53.0683 168.001C52.9253 168.192 52.8663 168.404 52.8908 168.637C52.9143 168.861 53.0188 169.036 53.2038 169.161ZM56.4498 173.043C56.5938 172.865 56.6543 172.664 56.6308 172.44C56.6073 172.216 56.5053 172.041 56.3248 171.915C56.1438 171.79 55.8913 171.689 55.5668 171.615L55.7618 173.468C56.0763 173.363 56.3058 173.221 56.4498 173.043Z" fill="white"/>
</g>
<path d="M199.596 103.278C206.764 102.524 211.964 96.103 211.21 88.9355C210.457 81.7675 204.036 76.5675 196.868 77.321L194.362 77.5845C187.194 78.338 181.994 84.7595 182.748 91.927C183.501 99.095 189.922 104.295 197.09 103.541L199.596 103.278Z" fill="#407BFF"/>
<g opacity="0.2">
<path d="M203.06 94.194L183.957 96.202C184.079 96.457 184.209 96.7075 184.347 96.953L203.142 94.9775L203.06 94.194Z" fill="white"/>
<path d="M202.738 91.136L182.948 93.216C183.002 93.477 183.065 93.734 183.134 93.9885L202.82 91.9195L202.738 91.136Z" fill="white"/>
<path d="M202.416 88.078L182.684 90.152C182.676 90.4145 182.677 90.6785 182.685 90.944L202.498 88.8615L202.416 88.078Z" fill="white"/>
<path d="M203.381 97.2524L185.854 99.0944C186.069 99.3429 186.292 99.5844 186.525 99.8159L203.463 98.0354L203.381 97.2524Z" fill="white"/>
<path d="M186.58 81.2584L201.535 79.6864L201.452 78.9034L187.593 80.3599C187.239 80.6424 186.901 80.9419 186.58 81.2584Z" fill="white"/>
<path d="M203.702 100.31L189.16 101.839C189.576 102.081 190.005 102.3 190.447 102.495L203.785 101.093L203.702 100.31Z" fill="white"/>
<path d="M201.773 81.9614L184.587 83.7679C184.419 84.0424 184.262 84.3229 184.115 84.6094L201.856 82.7449L201.773 81.9614Z" fill="white"/>
<path d="M202.095 85.0199L183.169 87.0089C183.093 87.2769 183.025 87.5479 182.967 87.8219L202.177 85.8029L202.095 85.0199Z" fill="white"/>
</g>
<path d="M205.868 100.887C211.712 96.6686 213.03 88.5116 208.811 82.6679C204.593 76.8242 196.436 75.5067 190.592 79.7251C184.748 83.9436 183.431 92.1005 187.649 97.9442C191.868 103.788 200.025 105.105 205.868 100.887Z" fill="#407BFF"/>
<path opacity="0.4" d="M205.868 100.887C211.712 96.6686 213.03 88.5116 208.811 82.6679C204.593 76.8242 196.436 75.5067 190.592 79.7251C184.748 83.9436 183.431 92.1005 187.649 97.9442C191.868 103.788 200.025 105.105 205.868 100.887Z" fill="white"/>
<path opacity="0.2" d="M208.278 93.4682C210.025 87.921 206.945 82.0079 201.398 80.2608C195.85 78.5137 189.937 81.5943 188.19 87.1414C186.443 92.6886 189.524 98.6017 195.071 100.349C200.618 102.096 206.531 99.0153 208.278 93.4682Z" fill="white"/>
<path d="M197.131 79.8265C196.917 79.849 196.707 79.8795 196.497 79.9145C202.019 79.667 206.847 83.762 207.432 89.3325C208.018 94.9025 204.147 99.912 198.694 100.818C198.906 100.809 199.119 100.795 199.333 100.772C205.117 100.164 209.313 94.9825 208.705 89.1985C208.097 83.4145 202.915 79.2185 197.131 79.8265Z" fill="#407BFF"/>
<path d="M201.148 94.2075C200.623 94.8385 199.818 95.2795 198.733 95.5315L198.905 97.1665L197.445 97.32L197.278 95.7285C196.553 95.765 195.854 95.711 195.179 95.565C194.504 95.4195 193.951 95.2125 193.519 94.9425L194.135 93.077C194.533 93.3105 194.991 93.494 195.507 93.627C196.023 93.76 196.546 93.8225 197.077 93.8165L196.82 91.378C196.111 91.285 195.508 91.1615 195.01 91.0075C194.511 90.853 194.081 90.5955 193.718 90.2355C193.356 89.875 193.14 89.3685 193.071 88.716C192.986 87.9085 193.208 87.184 193.736 86.543C194.264 85.9015 195.076 85.46 196.173 85.2165L196.002 83.596L197.462 83.4425L197.63 85.034C198.837 85.0055 199.856 85.1985 200.687 85.613L200.146 87.4855C199.372 87.144 198.601 86.969 197.832 86.961L198.093 89.443C198.791 89.527 199.386 89.6445 199.879 89.794C200.372 89.944 200.8 90.199 201.163 90.5595C201.525 90.92 201.74 91.4215 201.808 92.064C201.892 92.862 201.672 93.577 201.148 94.2075ZM195.75 88.922C195.951 89.0585 196.233 89.1615 196.595 89.2315L196.377 87.1585C196.016 87.285 195.758 87.4525 195.603 87.6605C195.448 87.869 195.383 88.0995 195.41 88.3525C195.435 88.596 195.548 88.7855 195.75 88.922ZM199.279 93.142C199.436 92.9485 199.501 92.73 199.475 92.4865C199.45 92.2435 199.339 92.053 199.143 91.9165C198.946 91.78 198.671 91.6705 198.319 91.5895L198.531 93.6045C198.873 93.49 199.122 93.3355 199.279 93.142Z" fill="#407BFF"/>
<path d="M202.043 94.1135C201.518 94.7445 200.713 95.1855 199.628 95.4375L199.8 97.0725L198.34 97.226L198.173 95.6345C197.448 95.671 196.749 95.617 196.074 95.471C195.4 95.3255 194.846 95.118 194.415 94.8485L195.031 92.983C195.429 93.2165 195.886 93.4 196.402 93.5325C196.918 93.6655 197.441 93.7285 197.972 93.722L197.716 91.2835C197.007 91.1905 196.404 91.067 195.905 90.913C195.407 90.7585 194.976 90.501 194.614 90.141C194.251 89.7805 194.036 89.274 193.967 88.6215C193.882 87.814 194.103 87.0895 194.631 86.4485C195.159 85.807 195.972 85.3655 197.068 85.122L196.898 83.5015L198.358 83.348L198.525 84.9395C199.733 84.911 200.752 85.104 201.583 85.5185L201.041 87.391C200.267 87.0495 199.496 86.8745 198.728 86.8665L198.989 89.3485C199.686 89.4325 200.282 89.55 200.775 89.6995C201.268 89.8495 201.696 90.1045 202.058 90.465C202.421 90.8255 202.636 91.327 202.703 91.969C202.787 92.768 202.567 93.483 202.043 94.1135ZM196.645 88.828C196.846 88.9645 197.128 89.0675 197.49 89.1375L197.272 87.0645C196.911 87.191 196.653 87.3585 196.498 87.5665C196.342 87.775 196.278 88.0055 196.305 88.2585C196.33 88.5015 196.444 88.6915 196.645 88.828ZM200.174 93.0475C200.331 92.854 200.396 92.6355 200.37 92.392C200.345 92.149 200.234 91.9585 200.038 91.822C199.841 91.6855 199.567 91.576 199.214 91.495L199.426 93.51C199.768 93.396 200.017 93.2415 200.174 93.0475Z" fill="#407BFF"/>
<g opacity="0.4">
<path d="M202.043 94.1135C201.518 94.7445 200.713 95.1855 199.628 95.4375L199.8 97.0725L198.34 97.226L198.173 95.6345C197.448 95.671 196.749 95.617 196.074 95.471C195.4 95.3255 194.846 95.118 194.415 94.8485L195.031 92.983C195.429 93.2165 195.886 93.4 196.402 93.5325C196.918 93.6655 197.441 93.7285 197.972 93.722L197.716 91.2835C197.007 91.1905 196.404 91.067 195.905 90.913C195.407 90.7585 194.976 90.501 194.614 90.141C194.251 89.7805 194.036 89.274 193.967 88.6215C193.882 87.814 194.103 87.0895 194.631 86.4485C195.159 85.807 195.972 85.3655 197.068 85.122L196.898 83.5015L198.358 83.348L198.525 84.9395C199.733 84.911 200.752 85.104 201.583 85.5185L201.041 87.391C200.267 87.0495 199.496 86.8745 198.728 86.8665L198.989 89.3485C199.686 89.4325 200.282 89.55 200.775 89.6995C201.268 89.8495 201.696 90.1045 202.058 90.465C202.421 90.8255 202.636 91.327 202.703 91.969C202.787 92.768 202.567 93.483 202.043 94.1135ZM196.645 88.828C196.846 88.9645 197.128 89.0675 197.49 89.1375L197.272 87.0645C196.911 87.191 196.653 87.3585 196.498 87.5665C196.342 87.775 196.278 88.0055 196.305 88.2585C196.33 88.5015 196.444 88.6915 196.645 88.828ZM200.174 93.0475C200.331 92.854 200.396 92.6355 200.37 92.392C200.345 92.149 200.234 91.9585 200.038 91.822C199.841 91.6855 199.567 91.576 199.214 91.495L199.426 93.51C199.768 93.396 200.017 93.2415 200.174 93.0475Z" fill="white"/>
</g>
<path d="M100.894 204.903C108.902 204.903 115.394 198.411 115.394 190.403C115.394 182.395 108.902 175.903 100.894 175.903H98.0947C90.0867 175.903 83.5947 182.395 83.5947 190.403C83.5947 198.411 90.0867 204.903 98.0947 204.903H100.894Z" fill="#407BFF"/>
<g opacity="0.2">
<path d="M105.776 195.267H84.4336C84.5391 195.563 84.6536 195.855 84.7776 196.142H105.777L105.776 195.267Z" fill="white"/>
<path d="M105.776 191.851H83.6665C83.6955 192.145 83.735 192.437 83.782 192.726H105.776V191.851Z" fill="white"/>
<path d="M105.776 188.434H83.7311C83.6921 188.723 83.6616 189.015 83.6396 189.309H105.776V188.434H105.776Z" fill="white"/>
<path d="M105.776 198.684H86.1948C86.4038 198.984 86.6223 199.276 86.8528 199.559H105.776V198.684H105.776Z" fill="white"/>
<path d="M89.0688 179.059H105.776V178.184H90.2918C89.8688 178.455 89.4603 178.747 89.0688 179.059Z" fill="white"/>
<path d="M105.776 202.1H89.5293C89.9603 202.416 90.4098 202.708 90.8748 202.975H105.776V202.1H105.776Z" fill="white"/>
<path d="M105.776 181.601H86.5746C86.3576 181.884 86.1516 182.176 85.9556 182.476H105.776V181.601Z" fill="white"/>
<path d="M105.776 185.017H84.632C84.517 185.305 84.4105 185.596 84.3135 185.892H105.776V185.017Z" fill="white"/>
</g>
<path d="M100.894 204.903C108.902 204.903 115.394 198.411 115.394 190.403C115.394 182.395 108.902 175.903 100.894 175.903C92.8859 175.903 86.394 182.395 86.394 190.403C86.394 198.411 92.8859 204.903 100.894 204.903Z" fill="#407BFF"/>
<path opacity="0.4" d="M100.894 204.903C108.902 204.903 115.394 198.411 115.394 190.403C115.394 182.395 108.902 175.903 100.894 175.903C92.8859 175.903 86.394 182.395 86.394 190.403C86.394 198.411 92.8859 204.903 100.894 204.903Z" fill="white"/>
<path opacity="0.2" d="M109.165 198.676C113.735 194.106 113.735 186.698 109.165 182.129C104.596 177.56 97.1879 177.56 92.6186 182.129C88.0494 186.698 88.0494 194.106 92.6186 198.676C97.1879 203.245 104.596 203.245 109.165 198.676Z" fill="white"/>
<path d="M100.894 178.703C100.655 178.703 100.419 178.712 100.183 178.726C106.314 179.094 111.173 184.18 111.173 190.403C111.173 196.626 106.314 201.713 100.183 202.08C100.419 202.094 100.655 202.104 100.894 202.104C107.356 202.104 112.595 196.865 112.595 190.403C112.595 183.941 107.356 178.703 100.894 178.703Z" fill="#407BFF"/>
<path d="M103.662 195.06C103.01 195.696 102.069 196.09 100.84 196.242V198.069H99.2094V196.291C98.4044 196.248 97.6379 196.106 96.9094 195.867C96.1809 195.628 95.5934 195.334 95.1479 194.986L96.045 192.996C96.458 193.301 96.942 193.556 97.4965 193.763C98.051 193.97 98.6219 194.1 99.2094 194.155V191.43C98.4369 191.245 97.7845 191.039 97.252 190.811C96.719 190.582 96.273 190.248 95.9145 189.808C95.5555 189.367 95.376 188.783 95.376 188.054C95.376 187.152 95.705 186.377 96.363 185.73C97.021 185.083 97.97 184.688 99.21 184.547V182.736H100.841V184.514C102.178 184.623 103.282 184.954 104.152 185.509L103.336 187.516C102.521 187.048 101.689 186.765 100.841 186.668V189.441C101.602 189.615 102.246 189.813 102.774 190.036C103.301 190.259 103.744 190.591 104.103 191.031C104.462 191.472 104.642 192.051 104.642 192.768C104.641 193.66 104.315 194.424 103.662 195.06ZM98.312 188.592C98.5185 188.766 98.8179 188.913 99.2094 189.032V186.716C98.7959 186.814 98.4915 186.969 98.296 187.181C98.1 187.393 98.002 187.641 98.002 187.923C98.002 188.195 98.1055 188.418 98.312 188.592ZM101.721 193.665C101.917 193.469 102.015 193.236 102.015 192.964C102.015 192.692 101.914 192.469 101.713 192.295C101.512 192.121 101.221 191.969 100.84 191.838V194.089C101.232 194.003 101.525 193.861 101.721 193.665Z" fill="#407BFF"/>
<path d="M104.662 195.06C104.01 195.696 103.069 196.09 101.84 196.242V198.069H100.209V196.291C99.4044 196.248 98.6379 196.106 97.9094 195.867C97.1809 195.628 96.5934 195.334 96.1479 194.986L97.045 192.996C97.458 193.301 97.942 193.556 98.4965 193.763C99.051 193.97 99.6219 194.1 100.209 194.155V191.43C99.4369 191.245 98.7845 191.039 98.252 190.811C97.719 190.582 97.273 190.248 96.9145 189.808C96.5555 189.367 96.376 188.783 96.376 188.054C96.376 187.152 96.705 186.377 97.363 185.73C98.021 185.083 98.97 184.688 100.21 184.547V182.736H101.841V184.514C103.178 184.623 104.282 184.954 105.152 185.509L104.336 187.516C103.521 187.048 102.689 186.765 101.841 186.668V189.441C102.602 189.615 103.246 189.813 103.774 190.036C104.301 190.259 104.744 190.591 105.103 191.031C105.462 191.472 105.642 192.051 105.642 192.768C105.641 193.66 105.315 194.424 104.662 195.06ZM99.312 188.592C99.5185 188.766 99.8179 188.913 100.209 189.032V186.716C99.7959 186.814 99.4915 186.969 99.296 187.181C99.1 187.393 99.002 187.641 99.002 187.923C99.002 188.195 99.1055 188.418 99.312 188.592ZM102.721 193.665C102.917 193.469 103.015 193.236 103.015 192.964C103.015 192.692 102.914 192.469 102.713 192.295C102.512 192.121 102.221 191.969 101.84 191.838V194.089C102.232 194.003 102.525 193.861 102.721 193.665Z" fill="#407BFF"/>
<g opacity="0.4">
<path d="M104.662 195.06C104.01 195.696 103.069 196.09 101.84 196.242V198.069H100.209V196.291C99.4044 196.248 98.6379 196.106 97.9094 195.867C97.1809 195.628 96.5934 195.334 96.1479 194.986L97.045 192.996C97.458 193.301 97.942 193.556 98.4965 193.763C99.051 193.97 99.6219 194.1 100.209 194.155V191.43C99.4369 191.245 98.7845 191.039 98.252 190.811C97.719 190.582 97.273 190.248 96.9145 189.808C96.5555 189.367 96.376 188.783 96.376 188.054C96.376 187.152 96.705 186.377 97.363 185.73C98.021 185.083 98.97 184.688 100.21 184.547V182.736H101.841V184.514C103.178 184.623 104.282 184.954 105.152 185.509L104.336 187.516C103.521 187.048 102.689 186.765 101.841 186.668V189.441C102.602 189.615 103.246 189.813 103.774 190.036C104.301 190.259 104.744 190.591 105.103 191.031C105.462 191.472 105.642 192.051 105.642 192.768C105.641 193.66 105.315 194.424 104.662 195.06ZM99.312 188.592C99.5185 188.766 99.8179 188.913 100.209 189.032V186.716C99.7959 186.814 99.4915 186.969 99.296 187.181C99.1 187.393 99.002 187.641 99.002 187.923C99.002 188.195 99.1055 188.418 99.312 188.592ZM102.721 193.665C102.917 193.469 103.015 193.236 103.015 192.964C103.015 192.692 102.914 192.469 102.713 192.295C102.512 192.121 102.221 191.969 101.84 191.838V194.089C102.232 194.003 102.525 193.861 102.721 193.665Z" fill="white"/>
</g>
<path d="M178.517 110.486C178.517 110.486 174.907 109.527 176.017 113.242C176.017 113.242 173.081 113.639 175.049 115.937C175.049 115.937 172.892 118.486 175.767 119.361C175.767 119.361 175.63 122.866 177.844 121.697C177.844 121.697 178.421 124.753 180.809 123.694C180.809 123.694 180.184 127.446 182.392 125.778C182.392 125.778 184.358 127.812 185.625 125.815C185.625 125.815 189.767 130.61 192.059 127.985C192.059 127.985 196.524 128.964 194.767 125.778C194.767 125.778 197.563 124.36 194.894 123.068C194.894 123.068 196.615 121.096 192.879 121.041C192.879 121.041 194.657 119.438 191.346 118.986C191.346 118.986 192.879 117.922 191.365 116.222C191.365 116.222 192.837 115.107 190.927 113.108C190.927 113.108 191.95 111.421 189.234 110.078C189.234 110.078 190.25 108.208 187.567 108.204C187.567 108.204 187.734 105.918 184.584 106.889C184.584 106.889 182.244 104.074 180.735 107.498C180.736 107.499 177.934 106.653 178.517 110.486Z" fill="#263238"/>
<path d="M175.388 132.294C174.452 132.867 173.537 133.339 172.587 133.825C171.631 134.285 170.661 134.726 169.645 135.128C168.62 135.523 167.583 135.881 166.331 136.108C166.009 136.158 165.684 136.204 165.298 136.214C165.119 136.225 164.898 136.215 164.689 136.203C164.471 136.181 164.187 136.147 163.999 136.091C163.157 135.872 162.595 135.551 162.066 135.228C161.035 134.568 160.21 133.857 159.417 133.119C158.634 132.377 157.895 131.62 157.198 130.835C155.95 129.449 154.806 128.017 153.723 126.511C153.489 126.185 153.548 125.731 153.854 125.472L154.421 124.992C154.719 124.739 155.157 124.75 155.443 125.017C156.743 126.232 158.073 127.441 159.402 128.593C160.158 129.238 160.913 129.872 161.682 130.453C162.446 131.028 163.229 131.587 163.961 131.958C164.314 132.139 164.677 132.277 164.831 132.289C164.848 132.293 165.171 132.257 165.533 132.158C166.28 131.967 167.159 131.6 168.018 131.221C168.886 130.839 169.759 130.402 170.624 129.944C171.493 129.508 172.376 129.015 173.206 128.568L175.388 132.294Z" fill="#B55B52"/>
<path d="M176.028 127.546C174.654 126.731 168.886 130.473 168.886 130.473L170.354 135.54C170.354 135.54 177.789 133.884 178.149 131.838C178.525 129.708 178.032 128.736 176.028 127.546Z" fill="#407BFF"/>
<path d="M155.576 125.701L154.361 121.49L152.201 124.43C152.201 124.43 153.17 126.52 154.659 126.606L155.576 125.701Z" fill="#B55B52"/>
<path d="M155.941 121.624C155.587 121.588 155.247 121.771 155.082 122.086L154.277 123.613L155.149 124.512L155.941 121.624Z" fill="#B55B52"/>
<path d="M152.484 119.593L150.926 121.839L152.201 124.43L154.361 121.49L152.484 119.593Z" fill="#B55B52"/>
<path d="M154.171 124.883L150.512 125.268C150.156 125.305 149.838 125.047 149.801 124.692L149.019 117.25C148.981 116.895 149.239 116.576 149.595 116.539L153.254 116.154C153.61 116.117 153.928 116.375 153.965 116.73L154.747 124.172C154.785 124.527 154.527 124.846 154.171 124.883Z" fill="#407BFF"/>
<path opacity="0.2" d="M154.171 124.883L150.512 125.268C150.156 125.305 149.838 125.047 149.801 124.692L149.019 117.25C148.981 116.895 149.239 116.576 149.595 116.539L153.254 116.154C153.61 116.117 153.928 116.375 153.965 116.73L154.747 124.172C154.785 124.527 154.527 124.846 154.171 124.883Z" fill="black"/>
<path d="M154.436 124.855L150.777 125.24C150.421 125.277 150.103 125.019 150.066 124.664L149.284 117.222C149.246 116.867 149.504 116.548 149.86 116.511L153.519 116.126C153.875 116.089 154.193 116.347 154.23 116.702L155.012 124.144C155.05 124.499 154.792 124.818 154.436 124.855Z" fill="#407BFF"/>
<path opacity="0.2" d="M150.819 125.235L154.394 124.86C154.773 124.82 155.047 124.481 155.008 124.102L154.235 116.745C154.231 116.71 154.213 116.682 154.205 116.65L150.053 124.541L150.061 124.621C150.101 125 150.441 125.275 150.819 125.235Z" fill="white"/>
<path d="M153.477 116.131L149.902 116.506C149.523 116.546 149.249 116.885 149.288 117.264L150.061 124.621C150.101 125 150.44 125.275 150.819 125.235L154.394 124.86C154.773 124.82 155.047 124.481 155.008 124.102L154.235 116.745C154.195 116.366 153.855 116.091 153.477 116.131ZM154.61 124.143C154.627 124.303 154.511 124.446 154.352 124.462L150.777 124.838C150.618 124.855 150.475 124.739 150.459 124.58L149.685 117.223C149.669 117.064 149.784 116.921 149.943 116.904L150.494 116.846L150.508 116.973C150.528 117.162 150.697 117.3 150.887 117.28L152.674 117.092C152.864 117.072 153.001 116.902 152.981 116.713L152.968 116.586L153.519 116.528C153.678 116.511 153.821 116.627 153.837 116.786L154.61 124.143Z" fill="#263238"/>
<path opacity="0.1" d="M176.121 129.996L174.549 128.964L173.843 129.527C173.843 129.527 173.295 131.78 173.333 134.718C174.721 134.273 176.272 133.672 177.233 132.983L176.121 129.996Z" fill="black"/>
<path d="M153.697 183.216L150.711 191.934L148.203 191.217L150.234 182.022L153.697 183.216Z" fill="#B55B52"/>
<path d="M148.247 190.548L151.331 191.478C151.466 191.513 151.558 191.637 151.553 191.775L151.44 194.842C151.432 195.114 151.205 195.328 150.933 195.32C150.898 195.319 150.863 195.313 150.829 195.305C149.551 194.948 148.428 194.579 146.829 194.164C144.942 193.672 145.362 194.023 143.136 193.474C141.795 193.143 141.948 191.56 142.534 191.633C145.212 191.984 146.164 191.272 147.406 190.605C147.67 190.483 147.969 190.463 148.247 190.548Z" fill="#263238"/>
<path opacity="0.2" d="M152.069 187.969L149.089 187.205L150.233 182.022L153.696 183.216L152.069 187.969Z" fill="black"/>
<path d="M172.925 193.904L173.918 201.62L171.113 201.694L169.086 194.25L172.925 193.904Z" fill="#B55B52"/>
<path d="M171.077 201.265L174.281 201.275C174.42 201.275 174.54 201.372 174.569 201.507L175.227 204.504C175.287 204.769 175.121 205.033 174.855 205.093C174.821 205.101 174.786 205.105 174.751 205.106C173.424 205.079 172.245 205.003 170.592 205.001C168.643 204.997 169.137 205.231 166.845 205.258C165.464 205.272 165.215 203.702 165.801 203.626C168.482 203.296 169.24 202.487 170.276 201.531C170.502 201.347 170.787 201.253 171.077 201.265Z" fill="#263238"/>
<path opacity="0.2" d="M170.261 198.568L169.086 194.25L172.925 193.904L173.499 198.365L170.261 198.568Z" fill="black"/>
<path d="M182.592 147.585H178.058C178.058 147.585 176.864 150.674 176.625 153.898C176.386 157.123 182.592 154.734 182.592 154.734L183.134 150.316L182.592 147.585Z" fill="#407BFF"/>
<path d="M182.592 147.585H178.058C178.058 147.585 176.864 150.674 176.625 153.898C176.386 157.123 182.592 154.734 182.592 154.734L183.134 150.316L182.592 147.585Z" fill="#263238"/>
<path opacity="0.3" d="M179.957 147.585C181.216 154.196 178.792 153.86 178.792 153.86L180.165 154.816L182.657 154.204L183.134 150.316L182.592 147.585L179.957 147.585Z" fill="black"/>
<path d="M191.633 147.171C191.633 147.171 196.25 154.894 195.454 161.343C194.658 167.792 188.693 171.203 165.764 160.216C165.764 160.216 161.061 165.085 153.258 185.944L149.278 184.749C149.278 184.749 153.776 160.638 157.797 153.779C161.857 146.853 179.691 154.973 181.044 153.62C182.249 152.415 181.204 147.649 181.204 147.649L191.633 147.171Z" fill="#263238"/>
<path opacity="0.3" d="M163.148 162.379L161.893 161.41C161.893 161.41 157.473 163.802 159.673 170.614V170.615C161.271 167.28 162.584 164.93 163.576 163.319L163.148 162.379Z" fill="black"/>
<path d="M182.299 166.557C178.132 165.56 172.736 163.556 165.764 160.216C165.764 160.216 160.384 160.288 160.026 164.288C159.668 168.289 169.102 195.956 169.102 195.956L173.461 195.577C173.461 195.577 170.894 167.99 170.297 166.557H182.299Z" fill="#263238"/>
<path opacity="0.3" d="M165.764 160.216C165.764 160.216 164.942 160.228 163.92 160.48C164.905 161.353 168.38 164.243 173.643 166.557H182.298C178.132 165.56 172.736 163.556 165.764 160.216Z" fill="black"/>
<path d="M173.984 194.862L174.101 196.652L169.028 197.05L168.306 195.346L173.984 194.862Z" fill="#263238"/>
<path d="M173.862 128.603C173.741 130.375 174.112 135.325 177.391 149.095C183.158 148.675 189.117 148.242 191.923 148.038C191.274 142.361 190.998 138.77 192.713 127.497C192.826 126.755 192.296 126.067 191.549 125.993C190.355 125.875 188.531 125.743 186.692 125.787C184.238 125.847 182.229 125.915 180.093 126.267C178.098 126.596 175.927 127.14 174.831 127.429C174.289 127.572 173.901 128.043 173.862 128.603Z" fill="#407BFF"/>
<path d="M185.498 118.405C185.236 120.558 185.104 124.479 186.692 125.787C186.692 125.787 186.268 127.983 182.323 128.27C177.985 128.585 180.094 126.267 180.094 126.267C182.42 125.529 182.231 123.777 181.699 122.157L185.498 118.405Z" fill="#B55B52"/>
<path opacity="0.2" d="M183.95 119.936L181.701 122.156C181.828 122.539 181.934 122.93 181.989 123.313C182.884 123.116 184.055 122.033 184.082 121.079C184.096 120.603 184.043 120.151 183.95 119.936Z" fill="black"/>
<path d="M187.926 114.821C187.113 118.287 186.842 119.772 184.766 121.268C181.643 123.518 177.563 121.761 177.324 118.122C177.109 114.846 178.475 109.728 182.142 108.919C185.755 108.122 188.739 111.355 187.926 114.821Z" fill="#B55B52"/>
<path d="M179.581 109.543C178.415 111.166 189.766 117.204 188.678 113.388C187.589 109.573 182.627 105.306 179.581 109.543Z" fill="#263238"/>
<path d="M185.36 113.442C185.084 115.13 187.313 117.127 187.313 117.127C187.313 117.127 190.171 115.02 188.372 113.894C186.574 112.769 185.36 113.442 185.36 113.442Z" fill="#263238"/>
<path d="M181.951 114.797C181.902 115.082 181.711 115.288 181.525 115.256C181.338 115.224 181.227 114.967 181.275 114.682C181.324 114.397 181.515 114.192 181.701 114.223C181.888 114.255 181.999 114.512 181.951 114.797Z" fill="#263238"/>
<path d="M178.726 114.247C178.677 114.532 178.486 114.738 178.3 114.706C178.113 114.674 178.002 114.417 178.05 114.132C178.099 113.847 178.29 113.642 178.476 113.674C178.663 113.705 178.775 113.962 178.726 114.247Z" fill="#263238"/>
<path d="M178.556 113.703L177.905 113.388C177.905 113.388 178.165 113.983 178.556 113.703Z" fill="#263238"/>
<path d="M179.863 114.931C179.863 114.931 179.169 116.076 178.535 116.578C178.852 116.993 179.52 116.942 179.52 116.942L179.863 114.931Z" fill="#A02724"/>
<path d="M180.884 118.324C180.749 118.322 180.607 118.31 180.458 118.284C180.412 118.276 180.381 118.232 180.389 118.186C180.397 118.14 180.444 118.109 180.487 118.117C181.743 118.331 182.473 117.556 182.48 117.548C182.512 117.513 182.565 117.511 182.6 117.543C182.634 117.575 182.636 117.629 182.604 117.663C182.576 117.694 181.963 118.342 180.884 118.324Z" fill="#263238"/>
<path d="M188.327 118.195C187.961 118.836 187.333 119.249 186.746 119.399C185.862 119.626 185.44 118.83 185.702 118.006C185.938 117.265 186.682 116.253 187.561 116.392C188.427 116.529 188.745 117.462 188.327 118.195Z" fill="#B55B52"/>
<path d="M183.356 114.362C183.285 114.361 183.219 114.314 183.197 114.242C182.965 113.49 182.005 113.169 181.996 113.166C181.907 113.137 181.858 113.041 181.887 112.952C181.916 112.863 182.011 112.814 182.101 112.843C182.147 112.858 183.239 113.224 183.521 114.142C183.549 114.231 183.499 114.327 183.409 114.354C183.392 114.36 183.374 114.362 183.356 114.362Z" fill="#263238"/>
<path d="M178.012 112.592C177.954 112.591 177.898 112.561 177.867 112.507C177.82 112.425 177.848 112.321 177.93 112.275C178.745 111.808 179.448 112.157 179.478 112.172C179.561 112.214 179.594 112.317 179.552 112.4C179.509 112.483 179.407 112.517 179.324 112.474C179.301 112.463 178.75 112.196 178.099 112.569C178.072 112.586 178.041 112.593 178.012 112.592Z" fill="#263238"/>
<path d="M181.78 114.253L181.129 113.938C181.129 113.938 181.389 114.533 181.78 114.253Z" fill="#263238"/>
<path d="M192.079 147.169L192.545 148.443C192.603 148.54 192.491 148.652 192.323 148.664L177.367 149.752C177.236 149.761 177.123 149.705 177.108 149.623L176.883 148.332C176.867 148.243 176.975 148.158 177.118 148.148L191.834 147.078C191.943 147.07 192.042 147.107 192.079 147.169Z" fill="white"/>
<path d="M190.222 148.959L190.616 148.931C190.695 148.925 190.752 148.88 190.743 148.831L190.435 147.155C190.426 147.106 190.355 147.07 190.276 147.076L189.882 147.104C189.804 147.11 189.747 147.155 189.756 147.204L190.063 148.88C190.072 148.929 190.144 148.965 190.222 148.959Z" fill="#263238"/>
<path d="M178.486 149.812L178.88 149.784C178.958 149.778 179.015 149.733 179.006 149.684L178.699 148.008C178.69 147.959 178.618 147.923 178.54 147.929L178.145 147.957C178.067 147.963 178.01 148.008 178.019 148.057L178.327 149.733C178.336 149.783 178.407 149.818 178.486 149.812Z" fill="#263238"/>
<path d="M184.354 149.386L184.748 149.357C184.827 149.351 184.884 149.307 184.875 149.258L184.567 147.581C184.558 147.532 184.487 147.497 184.408 147.502L184.014 147.531C183.936 147.536 183.879 147.581 183.888 147.63L184.195 149.307C184.204 149.356 184.276 149.391 184.354 149.386Z" fill="#263238"/>
<path d="M154.234 185.545L153.398 187.157L148.621 185.545V183.694L154.234 185.545Z" fill="#263238"/>
<path opacity="0.1" d="M191.622 128.3L189.329 130.965C189.329 130.965 189.29 133.832 191.56 137.161C191.718 134.902 192.022 132.209 192.527 128.756L191.622 128.3Z" fill="black"/>
<path d="M194.634 129.878C194.988 130.686 195.383 131.58 195.79 132.418C196.203 133.264 196.603 134.118 197.047 134.941C197.925 136.594 198.877 138.193 199.935 139.624L200.341 140.145L200.503 140.348C200.545 140.401 200.614 140.468 200.67 140.529C200.933 140.788 201.264 141.078 201.612 141.356C202.318 141.914 203.089 142.47 203.872 143.014C205.194 143.932 206.562 144.847 207.92 145.766C208.353 146.059 208.503 146.628 208.271 147.098L208.144 147.355C207.907 147.834 207.346 148.063 206.845 147.877C205.259 147.289 203.718 146.626 202.188 145.87C201.284 145.416 200.385 144.944 199.486 144.375C199.035 144.088 198.58 143.79 198.109 143.4C197.986 143.293 197.87 143.198 197.743 143.075L197.553 142.888L197.41 142.735L196.864 142.136C195.459 140.516 194.307 138.787 193.299 137.006C192.272 135.219 191.399 133.434 190.621 131.476L194.634 129.878Z" fill="#B55B52"/>
<path d="M192.922 126.151C194.41 126.488 196.523 131.874 196.523 131.874L192.168 135.823C192.168 135.823 188.804 131.788 189.279 129.862C189.774 127.856 191.224 125.767 192.922 126.151Z" fill="#407BFF"/>
<path d="M207.624 146.295L211.017 144.423L210.306 148.001C210.306 148.001 208.11 148.697 207.042 147.657L207.624 146.295Z" fill="#B55B52"/>
<path d="M213.995 144.903L213.238 147.866L210.306 148.001L211.018 144.423L213.995 144.903Z" fill="#B55B52"/>
<path d="M186.252 109.002C185.963 108.334 184.182 107.871 183.244 108.118C183.064 108.165 182.877 108.152 182.701 108.114L182.112 107.986C181.936 107.948 181.765 107.884 181.634 107.77C180.954 107.174 179.128 106.857 178.492 107.325C177.873 107.78 177.728 109.726 178.209 110.241C178.584 110.642 179.868 110.92 180.427 110.72C181.046 110.499 181.869 109.152 181.9 108.371C182.061 108.332 182.238 108.299 182.325 108.318C182.412 108.337 182.548 108.438 182.666 108.537C182.245 109.234 182.192 110.747 182.608 111.192C182.982 111.593 184.267 111.87 184.825 111.671C185.542 111.415 186.533 109.652 186.252 109.002Z" fill="#407BFF"/>
<path opacity="0.3" d="M180.313 110.407C179.854 110.571 178.797 110.343 178.489 110.013C178.093 109.59 178.212 107.988 178.721 107.614C179.323 107.172 181.214 107.581 181.487 108.211C181.718 108.746 180.903 110.197 180.313 110.407Z" fill="black"/>
<path opacity="0.3" d="M184.712 111.358C184.253 111.522 183.195 111.293 182.887 110.964C182.491 110.54 182.611 108.939 183.12 108.564C183.721 108.122 185.612 108.531 185.885 109.162C186.117 109.696 185.302 111.147 184.712 111.358Z" fill="black"/>
<path opacity="0.5" d="M178.488 110.013C178.796 110.343 179.853 110.571 180.313 110.407C180.903 110.197 181.718 108.746 181.487 108.211C181.481 108.197 181.47 108.184 181.462 108.17L178.464 109.972C178.473 109.984 178.479 110.003 178.488 110.013Z" fill="white"/>
<path opacity="0.5" d="M184.712 111.358C185.301 111.147 186.116 109.698 185.886 109.163L182.888 110.964C183.197 111.294 184.253 111.522 184.712 111.358Z" fill="white"/>
<path d="M190.272 205.69H188.666L188.166 173.993H190.772L190.272 205.69Z" fill="#263238"/>
<path d="M177.584 205.69H175.978L179.369 173.993H181.976L177.584 205.69Z" fill="#263238"/>
<path d="M201.353 205.69H202.96L199.568 173.993H196.961L201.353 205.69Z" fill="#263238"/>
<path opacity="0.5" d="M190.272 205.69H188.666L188.166 173.993H190.772L190.272 205.69Z" fill="white"/>
<path opacity="0.5" d="M177.584 205.69H175.978L179.369 173.993H181.976L177.584 205.69Z" fill="white"/>
<path opacity="0.5" d="M201.353 205.69H202.96L199.568 173.993H196.961L201.353 205.69Z" fill="white"/>
<path opacity="0.2" d="M197.624 178.778H200.08L199.812 176.278H197.278L197.624 178.778Z" fill="black"/>
<path opacity="0.2" d="M190.697 178.778L190.736 176.278H188.202L188.241 178.778H190.697Z" fill="black"/>
<path opacity="0.2" d="M178.857 178.778H181.313L181.659 176.278H179.124L178.857 178.778Z" fill="black"/>
<path d="M200.072 173.859H178.865V176.734H200.072V173.859Z" fill="#407BFF"/>
<path opacity="0.3" d="M200.072 173.859H178.865V176.734H200.072V173.859Z" fill="black"/>
<path d="M200.013 174.467H178.924C177.495 174.467 176.336 173.309 176.336 171.879V169.137C176.336 167.708 177.495 166.549 178.924 166.549H200.013C201.442 166.549 202.601 167.708 202.601 169.137V171.879C202.601 173.308 201.442 174.467 200.013 174.467Z" fill="#407BFF"/>
<path opacity="0.3" d="M200.013 174.467H178.924C177.495 174.467 176.336 173.309 176.336 171.879V169.137C176.336 167.708 177.495 166.549 178.924 166.549H200.013C201.442 166.549 202.601 167.708 202.601 169.137V171.879C202.601 173.308 201.442 174.467 200.013 174.467Z" fill="black"/>
<path opacity="0.2" d="M202.265 173.13C201.663 172.848 200.994 172.686 200.286 172.686H178.651C177.942 172.686 177.274 172.848 176.672 173.13C177.114 173.924 177.952 174.467 178.924 174.467H200.013C200.986 174.467 201.823 173.924 202.265 173.13Z" fill="black"/>
</svg>
