<svg width="250" height="250" viewBox="0 0 250 250" fill="none" xmlns="http://www.w3.org/2000/svg">
<path d="M250 191.199H0V191.324H250V191.199Z" fill="#EBEBEB"/>
<path d="M224.951 199.247H208.39V199.372H224.951V199.247Z" fill="#EBEBEB"/>
<path d="M165.61 200.604H161.264V200.729H165.61V200.604Z" fill="#EBEBEB"/>
<path d="M207.889 194.604H198.293V194.729H207.889V194.604Z" fill="#EBEBEB"/>
<path d="M47.826 195.444H26.2295V195.569H47.826V195.444Z" fill="#EBEBEB"/>
<path d="M55.4443 195.444H52.2778V195.569H55.4443V195.444Z" fill="#EBEBEB"/>
<path d="M112.573 197.555H65.7354V197.68H112.573V197.555Z" fill="#EBEBEB"/>
<path d="M118.507 168.9H21.9575C20.384 168.9 19.1035 167.619 19.1035 166.046V30.33C19.1035 28.7565 20.384 27.476 21.9575 27.476H118.507C120.08 27.476 121.361 28.7565 121.361 30.33V166.046C121.361 167.619 120.08 168.9 118.507 168.9ZM21.9575 27.6015C20.4525 27.6015 19.2285 28.8255 19.2285 30.3305V166.046C19.2285 167.551 20.4525 168.775 21.9575 168.775H118.507C120.012 168.775 121.236 167.551 121.236 166.046V30.33C121.236 28.8255 120.012 27.601 118.507 27.601L21.9575 27.6015Z" fill="#EBEBEB"/>
<path d="M226.655 168.9H130.106C128.532 168.9 127.252 167.619 127.252 166.046V30.33C127.252 28.7565 128.533 27.476 130.106 27.476H226.655C228.229 27.476 229.509 28.7565 229.509 30.33V166.046C229.509 167.619 228.229 168.9 226.655 168.9ZM130.106 27.6015C128.601 27.6015 127.377 28.8255 127.377 30.3305V166.046C127.377 167.551 128.601 168.775 130.106 168.775H226.655C228.16 168.775 229.384 167.551 229.384 166.046V30.33C229.384 28.8255 228.16 27.601 226.655 27.601L130.106 27.6015Z" fill="#EBEBEB"/>
<path d="M58.8906 47.0209C58.8906 45.1524 60.4056 43.6374 62.2741 43.6374C62.6121 43.6374 62.9376 43.6884 63.2456 43.7804C63.1961 43.4414 63.1696 43.0944 63.1696 42.7414C63.1696 38.7844 66.3776 35.5764 70.3346 35.5764C70.7856 35.5764 71.2266 35.6199 71.6546 35.6999C72.7556 33.8974 74.7356 32.6904 77.0021 32.6904C80.4331 32.6904 83.2161 35.4469 83.2671 38.8659C83.3021 38.8654 83.3361 38.8604 83.3716 38.8604C86.5596 38.8604 89.1436 41.4444 89.1436 44.6324C89.1436 47.8204 86.5596 50.4044 83.3716 50.4044H62.1746L62.1791 50.3994C60.3546 50.3489 58.8906 48.8574 58.8906 47.0209Z" fill="#F5F5F5"/>
<path d="M195.254 94.3024C195.254 92.4339 196.769 90.9189 198.638 90.9189C198.976 90.9189 199.301 90.9699 199.609 91.0619C199.56 90.7224 199.533 90.3759 199.533 90.0229C199.533 86.0659 202.741 82.8579 206.698 82.8579C207.149 82.8579 207.59 82.9014 208.018 82.9814C209.12 81.1789 211.099 79.9719 213.366 79.9719C216.797 79.9719 219.58 82.7284 219.631 86.1474C219.666 86.1469 219.7 86.1419 219.735 86.1419C222.923 86.1419 225.507 88.7259 225.507 91.9139C225.507 95.1019 222.923 97.6859 219.735 97.6859H198.538L198.543 97.6809C196.719 97.6304 195.254 96.1394 195.254 94.3024Z" fill="#F5F5F5"/>
<path d="M113.899 110.868C113.899 109 115.414 107.485 117.282 107.485C117.62 107.485 117.946 107.536 118.254 107.628C118.204 107.288 118.178 106.942 118.178 106.589C118.178 102.632 121.386 99.424 125.343 99.424C125.794 99.424 126.235 99.4675 126.663 99.5475C127.764 97.745 129.744 96.538 132.011 96.538C135.442 96.538 138.225 99.2945 138.276 102.713C138.311 102.713 138.345 102.708 138.38 102.708C141.568 102.708 144.152 105.292 144.152 108.48C144.152 111.668 141.568 114.252 138.38 114.252H117.183L117.188 114.247C115.363 114.196 113.899 112.705 113.899 110.868Z" fill="#F5F5F5"/>
<path d="M29.4531 91.673C29.4531 90.5435 30.3686 89.628 31.4981 89.628C31.7021 89.628 31.8991 89.659 32.0851 89.7145C32.0551 89.5095 32.0391 89.3 32.0391 89.0865C32.0391 86.6945 33.9781 84.756 36.3696 84.756C36.6421 84.756 36.9086 84.7825 37.1676 84.8305C37.8331 83.741 39.0296 83.0115 40.3996 83.0115C42.4731 83.0115 44.1556 84.6775 44.1861 86.744C44.2071 86.7435 44.2276 86.741 44.2491 86.741C46.1756 86.741 47.7376 88.303 47.7376 90.2295C47.7376 92.156 46.1756 93.718 44.2491 93.718H31.4376L31.4401 93.715C30.3376 93.6845 29.4531 92.783 29.4531 91.673Z" fill="#F5F5F5"/>
<path d="M145.735 62.2365C145.735 61.107 146.65 60.1915 147.78 60.1915C147.984 60.1915 148.181 60.2225 148.367 60.278C148.337 60.073 148.321 59.8635 148.321 59.65C148.321 57.258 150.26 55.3195 152.651 55.3195C152.924 55.3195 153.19 55.346 153.449 55.394C154.114 54.3045 155.311 53.575 156.681 53.575C158.754 53.575 160.437 55.2409 160.467 57.3074C160.488 57.3069 160.509 57.3045 160.53 57.3045C162.457 57.3045 164.019 58.8664 164.019 60.7929C164.019 62.7199 162.457 64.2815 160.53 64.2815H147.719L147.721 64.2785C146.619 64.2475 145.735 63.3464 145.735 62.2365Z" fill="#F5F5F5"/>
<path d="M177.352 40.579C177.352 39.4495 178.268 38.534 179.397 38.534C179.601 38.534 179.798 38.565 179.984 38.6205C179.954 38.4155 179.938 38.206 179.938 37.9925C179.938 35.6005 181.877 33.662 184.269 33.662C184.541 33.662 184.808 33.6885 185.067 33.7365C185.732 32.647 186.929 31.9175 188.299 31.9175C190.372 31.9175 192.055 33.5835 192.085 35.65C192.106 35.6495 192.127 35.647 192.148 35.647C194.075 35.647 195.637 37.209 195.637 39.1355C195.637 41.0625 194.075 42.624 192.148 42.624H179.337L179.339 42.621C178.237 42.5905 177.352 41.689 177.352 40.579Z" fill="#F5F5F5"/>
<path d="M220.012 162.642V157.114H221.312V156.137H220.012V155.28H208.869V156.137H207.569V157.114H208.869V158.972H205.036V162.642H203.519V139.654H203.033V139.385H204.165V138.995H203.033V138.11H200.742V131.874H200.091V138.11H199.742V138.995H199.346V139.385H199.742V152.171H196.662V150.661H195.871V145.851H195.014V150.661H193.365V152.171H190.767V148.282H174.612V134.819H171.62V118.365H169.227V134.52H163.542V158.454H152.772V134.52H150.508V131.23H151.365V130.291H147.853V129.243H146.948V127.127H145.623V121.918H145.102V127.127H143.981V129.243H142.728V124.291H142.398V119.742H142.085V124.291H141.442V129.243H135.03V134.52H133.326V142.74H123.883V129.311H122.086V126.665H118.198V120.731H117.877V126.665H114.311V129.311H111.871V134.52H97.2273V158.454H86.4573V134.52H80.7729V118.365H78.3798V134.819H75.3878V148.282H59.2328V152.171H50.2578V138.11H49.1018V130.796H48.4423V138.11H46.9668V162.642H37.2333V158.84H36.3103V157.818H36.7913V156.621H36.3103V155.544H31.7613V156.621H31.3653V157.818H31.7613V158.84H29.9808V147.038H29.3598V158.84H26.8818V162.642H23.6313V191.362L125 191.067L226.368 191.362V162.642H220.012Z" fill="#F5F5F5"/>
<path d="M82.7488 187.633C82.7488 187.633 82.3523 187.441 81.6323 187.075" stroke="#E0E0E0" stroke-width="2" stroke-linecap="round" stroke-linejoin="round"/>
<path d="M79.398 185.92C67.4025 179.604 27.7715 157.076 36.5895 139.409C54.6915 103.141 187.335 132.312 203.091 104.842C216.883 80.7975 176.148 62.5265 165.776 58.344" stroke="#E0E0E0" stroke-width="2" stroke-linecap="round" stroke-linejoin="round" stroke-dasharray="5.03 5.03"/>
<path d="M164.604 57.88C163.854 57.5885 163.437 57.4385 163.437 57.4385" stroke="#E0E0E0" stroke-width="2" stroke-linecap="round" stroke-linejoin="round"/>
<path d="M163.185 49.859L160.194 51.9225L159.364 57.4405L157.341 53.5315L152.218 56.1085L143.199 48.8765L163.185 49.859Z" fill="#E0E0E0"/>
<path d="M159.364 57.4405L143.199 48.8765L157.341 53.5315L159.364 57.4405Z" fill="#E6E6E6"/>
<path d="M163.185 49.859L160.194 51.9225L159.364 57.4405L157.341 53.5315L152.218 56.1085L143.199 48.8765L163.185 49.859Z" fill="#F0F0F0"/>
<path d="M160.194 51.9225L143.199 48.8765L157.341 53.5315L159.364 57.4405L160.194 51.9225Z" fill="#E0E0E0"/>
<path d="M125 213.781C178.541 213.781 221.945 211.246 221.945 208.119C221.945 204.992 178.541 202.458 125 202.458C71.4592 202.458 28.0557 204.992 28.0557 208.119C28.0557 211.246 71.4592 213.781 125 213.781Z" fill="#F5F5F5"/>
<path d="M199.713 192.399C199.789 191.887 201.539 179.813 198.034 175.645C197.258 174.722 196.279 174.24 195.123 174.211C188.047 174.045 187.079 179.729 187.07 179.787L187.905 179.916C187.937 179.712 188.776 174.902 195.103 175.055C196.018 175.077 196.766 175.448 197.388 176.188C200.651 180.068 198.897 192.153 198.878 192.274L199.713 192.399Z" fill="#407BFF"/>
<path d="M200.141 191.849L200.985 191.822C200.982 191.711 200.705 180.697 206.132 178.422C211.45 176.194 213.843 180.775 213.942 180.971L214.696 180.592C214.669 180.537 211.861 175.104 205.805 177.644C199.844 180.143 200.127 191.372 200.141 191.849Z" fill="#407BFF"/>
<path d="M200.117 192.715C200.117 192.539 200.168 175.12 203.564 170.025C206.825 165.133 212.085 167.436 212.307 167.537L212.656 166.768C212.595 166.741 206.525 164.061 202.861 169.556C199.324 174.863 199.273 191.987 199.272 192.714L200.117 192.715Z" fill="#407BFF"/>
<path d="M194.111 174.63C194.111 174.63 197.2 175.769 196.282 178.458C195.363 181.147 185.593 185.573 185.593 185.573C185.593 185.573 181.501 181.822 185.259 175.723C189.017 169.623 194.027 172.705 194.111 174.63Z" fill="#407BFF"/>
<path d="M203.717 169.107C203.717 169.107 201.524 168.871 201.7 167.535C201.877 166.199 210.227 162.76 215.154 168.321C215.154 168.321 212 173.74 207.439 173.811C202.879 173.882 203.717 169.107 203.717 169.107Z" fill="#407BFF"/>
<path d="M205.968 178.033C205.968 178.033 204.454 176.81 206.088 176.214C207.722 175.617 215.739 175.787 215.822 183.728C215.822 183.728 206.486 185.279 205.33 182.255C204.174 179.23 205.968 178.033 205.968 178.033Z" fill="#407BFF"/>
<path opacity="0.2" d="M194.111 174.63C194.111 174.63 197.2 175.769 196.282 178.458C195.363 181.147 185.593 185.573 185.593 185.573C185.593 185.573 181.501 181.822 185.259 175.723C189.017 169.623 194.027 172.705 194.111 174.63Z" fill="black"/>
<path opacity="0.2" d="M203.717 169.107C203.717 169.107 201.524 168.871 201.7 167.535C201.877 166.199 210.227 162.76 215.154 168.321C215.154 168.321 212 173.74 207.439 173.811C202.879 173.882 203.717 169.107 203.717 169.107Z" fill="black"/>
<path opacity="0.2" d="M205.968 178.033C205.968 178.033 204.454 176.81 206.088 176.214C207.722 175.617 215.739 175.787 215.822 183.728C215.822 183.728 206.486 185.279 205.33 182.255C204.174 179.23 205.968 178.033 205.968 178.033Z" fill="black"/>
<path d="M192.45 208.577H206.939L208.502 192.714H190.887L192.45 208.577Z" fill="#407BFF"/>
<path opacity="0.5" d="M192.45 208.577H206.939L208.502 192.714H190.887L192.45 208.577Z" fill="white"/>
<path d="M190.113 194.464H209.275V190.963H190.113V194.464Z" fill="#407BFF"/>
<path opacity="0.2" d="M190.113 194.464H209.275V190.963H190.113V194.464Z" fill="white"/>
<path d="M128.485 57.173V201.149C128.485 202.333 127.533 203.253 126.349 203.253H59.3436C58.8106 203.253 58.3416 203.053 58.0046 202.716C57.6496 202.37 57.4351 201.878 57.4351 201.322V57C57.4351 56.057 58.1276 55.233 59.0701 55.233H78.0986C78.6361 55.233 79.1231 55.5835 79.3241 56.0895L80.1121 58.0295C80.3126 58.5305 80.7996 58.8765 81.3371 58.8765H104.624C105.162 58.8765 105.649 58.544 105.849 58.043L106.637 56.0935C106.838 55.588 107.325 55.2325 107.862 55.2325H126.617C127.656 55.2325 128.485 56.1345 128.485 57.173Z" fill="#407BFF"/>
<path d="M131.485 57.173V201.149C131.485 202.333 130.533 203.253 129.349 203.253H62.3436C61.8106 203.253 61.3416 203.053 61.0046 202.716C60.6491 202.37 60.4351 201.878 60.4351 201.322V57C60.4351 56.057 61.1276 55.233 62.0701 55.233H81.0986C81.6361 55.233 82.1231 55.5835 82.3236 56.0895L83.1116 58.0295C83.3121 58.5305 83.7991 58.8765 84.3366 58.8765H107.624C108.161 58.8765 108.648 58.544 108.849 58.043L109.637 56.0935C109.837 55.588 110.324 55.2325 110.862 55.2325H129.617C130.656 55.2325 131.485 56.1345 131.485 57.173Z" fill="#407BFF"/>
<path opacity="0.4" d="M131.485 57.173V201.149C131.485 202.333 130.533 203.253 129.349 203.253H62.3436C61.8106 203.253 61.3416 203.053 61.0046 202.716C60.6496 202.37 60.4351 201.878 60.4351 201.322V57C60.4351 56.057 61.1276 55.233 62.0701 55.233H81.0986C81.6361 55.233 82.1231 55.5835 82.3241 56.0895L83.1121 58.0295C83.3126 58.5305 83.7996 58.8765 84.3371 58.8765H107.624C108.162 58.8765 108.649 58.544 108.849 58.043L109.637 56.0935C109.838 55.588 110.325 55.2325 110.862 55.2325H129.617C130.656 55.2325 131.485 56.1345 131.485 57.173Z" fill="white"/>
<path d="M117.903 109.884C117.903 120.459 110.418 129.289 100.458 131.364C99.0076 131.664 97.5026 131.824 95.9626 131.824C94.4226 131.824 92.9176 131.664 91.4676 131.364C81.5026 129.289 74.0176 120.459 74.0176 109.884C74.0176 97.7641 83.8426 87.9391 95.9626 87.9391C108.078 87.9391 117.903 97.7641 117.903 109.884Z" fill="#407BFF"/>
<path opacity="0.6" d="M69.2693 61.0326H70.2593V59.7126H69.2693V61.0326Z" fill="white"/>
<path opacity="0.6" d="M67.6555 61.0328H68.6455V59.2723H67.6555V61.0328Z" fill="white"/>
<path opacity="0.6" d="M66.0417 61.033H67.0317V58.8325H66.0417V61.033Z" fill="white"/>
<path opacity="0.6" d="M64.4285 61.0326H65.4185V58.3916H64.4285V61.0326Z" fill="white"/>
<path opacity="0.6" d="M122.413 59.2311H121.826V60.5511H122.413V59.2311Z" fill="white"/>
<path opacity="0.6" d="M122.816 61.0327H127.492V58.7492H122.816V61.0327Z" fill="white"/>
<path opacity="0.4" d="M89.0831 114.643C86.6426 111.054 87.5766 106.149 91.1651 103.708C92.9316 102.507 95.0171 102.123 96.9706 102.471" stroke="white" stroke-miterlimit="10" stroke-linecap="round" stroke-linejoin="round"/>
<path opacity="0.4" d="M99.8369 103.589C100.708 104.145 101.483 104.883 102.1 105.791" stroke="white" stroke-miterlimit="10" stroke-linecap="round" stroke-linejoin="round"/>
<path d="M104.438 104.201C101.121 99.3235 94.4538 98.054 89.5763 101.371C84.6988 104.688 83.4293 111.355 86.7463 116.233C89.8243 120.758 95.7838 122.171 100.524 119.703L101.675 121.395C101.552 121.896 101.627 122.443 101.94 122.902L110.58 135.607C111.165 136.467 112.338 136.69 113.198 136.105C114.059 135.52 114.282 134.348 113.697 133.487L105.057 120.783C104.744 120.323 104.263 120.052 103.753 119.982L102.602 118.29C106.639 114.789 107.515 108.727 104.438 104.201ZM88.3043 115.173C85.5713 111.155 86.6173 105.662 90.6358 102.929C94.6543 100.196 100.147 101.242 102.88 105.261C105.613 109.279 104.567 114.772 100.548 117.505C96.5298 120.238 91.0373 119.192 88.3043 115.173Z" fill="white"/>
<path opacity="0.2" d="M75.6567 155.127H69.3842C68.7077 155.127 68.1592 154.579 68.1592 153.902V147.63C68.1592 146.953 68.7077 146.405 69.3842 146.405H75.6567C76.3332 146.405 76.8817 146.953 76.8817 147.63V153.902C76.8817 154.579 76.3332 155.127 75.6567 155.127Z" fill="black"/>
<path opacity="0.2" d="M77.424 158.251H67.6175C67.3445 158.251 67.123 158.029 67.123 157.756C67.123 157.483 67.3445 157.262 67.6175 157.262H77.424C77.697 157.262 77.9185 157.483 77.9185 157.756C77.9185 158.029 77.697 158.251 77.424 158.251Z" fill="black"/>
<path opacity="0.2" d="M91.2831 155.127H85.0106C84.3341 155.127 83.7856 154.579 83.7856 153.902V147.63C83.7856 146.953 84.3341 146.405 85.0106 146.405H91.2831C91.9596 146.405 92.5081 146.953 92.5081 147.63V153.902C92.5081 154.579 91.9596 155.127 91.2831 155.127Z" fill="black"/>
<path opacity="0.2" d="M93.05 158.251H83.2435C82.9705 158.251 82.749 158.029 82.749 157.756C82.749 157.483 82.9705 157.262 83.2435 157.262H93.05C93.323 157.262 93.5445 157.483 93.5445 157.756C93.5445 158.029 93.323 158.251 93.05 158.251Z" fill="black"/>
<path opacity="0.2" d="M106.91 155.127H100.637C99.9606 155.127 99.4121 154.579 99.4121 153.902V147.63C99.4121 146.953 99.9606 146.405 100.637 146.405H106.91C107.586 146.405 108.135 146.953 108.135 147.63V153.902C108.135 154.579 107.586 155.127 106.91 155.127Z" fill="black"/>
<path opacity="0.2" d="M108.676 158.251H98.87C98.597 158.251 98.3755 158.029 98.3755 157.756C98.3755 157.483 98.597 157.262 98.87 157.262H108.676C108.949 157.262 109.171 157.483 109.171 157.756C109.171 158.029 108.949 158.251 108.676 158.251Z" fill="black"/>
<path opacity="0.2" d="M122.536 155.127H116.263C115.587 155.127 115.038 154.579 115.038 153.902V147.63C115.038 146.953 115.587 146.405 116.263 146.405H122.536C123.212 146.405 123.761 146.953 123.761 147.63V153.902C123.761 154.579 123.213 155.127 122.536 155.127Z" fill="black"/>
<path opacity="0.2" d="M124.303 158.251H114.496C114.223 158.251 114.001 158.029 114.001 157.756C114.001 157.483 114.223 157.262 114.496 157.262H124.303C124.576 157.262 124.797 157.483 124.797 157.756C124.797 158.029 124.576 158.251 124.303 158.251Z" fill="black"/>
<path opacity="0.2" d="M75.6567 176.055H69.3842C68.7077 176.055 68.1592 175.506 68.1592 174.83V168.557C68.1592 167.881 68.7077 167.332 69.3842 167.332H75.6567C76.3332 167.332 76.8817 167.881 76.8817 168.557V174.83C76.8817 175.506 76.3332 176.055 75.6567 176.055Z" fill="black"/>
<path opacity="0.2" d="M77.424 179.178H67.6175C67.3445 179.178 67.123 178.956 67.123 178.683C67.123 178.41 67.3445 178.189 67.6175 178.189H77.424C77.697 178.189 77.9185 178.41 77.9185 178.683C77.9185 178.956 77.697 179.178 77.424 179.178Z" fill="black"/>
<path opacity="0.2" d="M91.2831 176.055H85.0106C84.3341 176.055 83.7856 175.506 83.7856 174.83V168.557C83.7856 167.881 84.3341 167.332 85.0106 167.332H91.2831C91.9596 167.332 92.5081 167.881 92.5081 168.557V174.83C92.5081 175.506 91.9596 176.055 91.2831 176.055Z" fill="black"/>
<path opacity="0.2" d="M93.05 179.177H83.2435C82.9705 179.177 82.749 178.956 82.749 178.683C82.749 178.41 82.9705 178.188 83.2435 178.188H93.05C93.323 178.188 93.5445 178.41 93.5445 178.683C93.5445 178.956 93.323 179.177 93.05 179.177Z" fill="black"/>
<path opacity="0.2" d="M106.91 176.055H100.637C99.9606 176.055 99.4121 175.506 99.4121 174.83V168.557C99.4121 167.881 99.9606 167.332 100.637 167.332H106.91C107.586 167.332 108.135 167.881 108.135 168.557V174.83C108.135 175.506 107.586 176.055 106.91 176.055Z" fill="black"/>
<path opacity="0.2" d="M108.676 179.177H98.87C98.597 179.177 98.3755 178.956 98.3755 178.683C98.3755 178.41 98.597 178.188 98.87 178.188H108.676C108.949 178.188 109.171 178.41 109.171 178.683C109.171 178.956 108.949 179.177 108.676 179.177Z" fill="black"/>
<path opacity="0.2" d="M122.536 176.055H116.263C115.587 176.055 115.038 175.506 115.038 174.83V168.557C115.038 167.881 115.587 167.332 116.263 167.332H122.536C123.212 167.332 123.761 167.881 123.761 168.557V174.83C123.761 175.506 123.213 176.055 122.536 176.055Z" fill="black"/>
<path opacity="0.2" d="M124.303 179.177H114.496C114.223 179.177 114.001 178.956 114.001 178.683C114.001 178.41 114.223 178.188 114.496 178.188H124.303C124.576 178.188 124.797 178.41 124.797 178.683C124.797 178.956 124.576 179.177 124.303 179.177Z" fill="black"/>
<path opacity="0.6" d="M126.134 78.172H65.7867C65.0367 78.172 64.4282 77.564 64.4282 76.8135V70.494C64.4282 69.744 65.0362 69.1355 65.7867 69.1355H126.134C126.885 69.1355 127.493 69.7435 127.493 70.494V76.8135C127.492 77.5635 126.884 78.172 126.134 78.172Z" fill="white"/>
<g opacity="0.6">
<path d="M71.698 72.0531L70.767 74.8141H70.4595L69.651 72.4591L68.8385 74.8141H68.535L67.604 72.0531H67.904L68.7005 74.4276L69.525 72.0531H69.797L70.6095 74.4396L71.418 72.0531H71.698Z" fill="black"/>
<path d="M76.0847 72.0531L75.1537 74.8141H74.8462L74.0377 72.4591L73.2252 74.8141H72.9217L71.9907 72.0531H72.2907L73.0872 74.4276L73.9117 72.0531H74.1837L74.9962 74.4396L75.8047 72.0531H76.0847Z" fill="black"/>
<path d="M80.47 72.0531L79.539 74.8141H79.2315L78.423 72.4591L77.6105 74.8141H77.307L76.376 72.0531H76.676L77.4725 74.4276L78.297 72.0531H78.569L79.3815 74.4396L80.19 72.0531H80.47Z" fill="black"/>
<path d="M80.6826 74.6171C80.6826 74.4946 80.7771 74.4041 80.8921 74.4041C81.0066 74.4041 81.1051 74.4946 81.1051 74.6171C81.1051 74.7396 81.0066 74.8341 80.8921 74.8341C80.7771 74.8341 80.6826 74.7396 80.6826 74.6171Z" fill="black"/>
<path d="M81.7603 72.0531H82.8843C83.7678 72.0531 84.3633 72.6211 84.3633 73.4336C84.3633 74.2461 83.7678 74.8141 82.8843 74.8141H81.7603V72.0531ZM82.8688 74.5621C83.6023 74.5621 84.0758 74.0966 84.0758 73.4341C84.0758 72.7716 83.6023 72.3061 82.8688 72.3061H82.0523V74.5621H82.8688Z" fill="black"/>
<path d="M84.7759 73.4335C84.7759 72.629 85.3909 72.0295 86.2274 72.0295C87.0554 72.0295 87.6749 72.625 87.6749 73.4335C87.6749 74.242 87.0554 74.838 86.2274 74.838C85.3914 74.838 84.7759 74.2385 84.7759 73.4335ZM87.3834 73.4335C87.3834 72.775 86.8904 72.2895 86.2279 72.2895C85.5614 72.2895 85.0644 72.7745 85.0644 73.4335C85.0644 74.0925 85.5614 74.5775 86.2279 74.5775C86.8904 74.5775 87.3834 74.0925 87.3834 73.4335Z" fill="black"/>
<path d="M91.2005 72.0531V74.8141H90.9205V72.6056L89.836 74.4631H89.698L88.6135 72.6171V74.8141H88.3335V72.0531H88.574L89.773 74.1001L90.9605 72.0531H91.2005Z" fill="black"/>
<path d="M93.8346 74.0766H92.2961L91.9646 74.8141H91.6611L92.9231 72.0531H93.2111L94.4731 74.8141H94.1656L93.8346 74.0766ZM93.7281 73.8401L93.0656 72.3571L92.4031 73.8401H93.7281Z" fill="black"/>
<path d="M94.9336 72.0531H95.2251V74.8141H94.9336V72.0531Z" fill="black"/>
<path d="M98.433 72.0531V74.8141H98.1925L96.4175 72.5736V74.8141H96.126V72.0531H96.3665L98.1455 74.2931V72.0531H98.433Z" fill="black"/>
<path d="M101.642 72.0531V74.8141H101.402L99.6269 72.5736V74.8141H99.3354V72.0531H99.5759L101.355 74.2931V72.0531H101.642Z" fill="black"/>
<path d="M104.276 74.0766H102.738L102.406 74.8141H102.103L103.365 72.0531H103.653L104.915 74.8141H104.607L104.276 74.0766ZM104.17 73.8401L103.507 72.3571L102.845 73.8401H104.17Z" fill="black"/>
<path d="M108.242 72.0531V74.8141H107.962V72.6056L106.878 74.4631H106.74L105.655 72.6171V74.8141H105.375V72.0531H105.616L106.814 74.1001L108.002 72.0531H108.242Z" fill="black"/>
<path d="M111.097 74.5621V74.8146H109.145V72.0536H111.038V72.3061H109.437V73.2881H110.865V73.5366H109.437V74.5621H111.097Z" fill="black"/>
<path d="M111.521 74.479L111.636 74.2541C111.833 74.4471 112.184 74.5891 112.547 74.5891C113.063 74.5891 113.288 74.3721 113.288 74.1001C113.288 73.3426 111.588 73.8081 111.588 72.7866C111.588 72.3801 111.904 72.0291 112.606 72.0291C112.918 72.0291 113.241 72.1196 113.462 72.2736L113.363 72.5066C113.127 72.3526 112.851 72.2775 112.606 72.2775C112.101 72.2775 111.876 72.5021 111.876 72.7781C111.876 73.5356 113.576 73.0781 113.576 74.0836C113.576 74.4901 113.252 74.8371 112.546 74.8371C112.133 74.8381 111.726 74.692 111.521 74.479Z" fill="black"/>
<path d="M114.052 74.6171C114.052 74.4946 114.147 74.4041 114.262 74.4041C114.376 74.4041 114.475 74.4946 114.475 74.6171C114.475 74.7396 114.376 74.8341 114.262 74.8341C114.147 74.8341 114.052 74.7396 114.052 74.6171Z" fill="black"/>
<path d="M114.806 73.4335C114.806 72.625 115.421 72.0295 116.254 72.0295C116.656 72.0295 117.019 72.1635 117.264 72.432L117.078 72.6175C116.853 72.3885 116.577 72.29 116.262 72.29C115.595 72.29 115.094 72.779 115.094 73.434C115.094 74.089 115.595 74.578 116.262 74.578C116.577 74.578 116.853 74.4795 117.078 74.2465L117.264 74.432C117.019 74.7 116.656 74.8385 116.25 74.8385C115.421 74.838 114.806 74.242 114.806 73.4335Z" fill="black"/>
<path d="M117.585 73.4335C117.585 72.629 118.2 72.0295 119.036 72.0295C119.864 72.0295 120.484 72.625 120.484 73.4335C120.484 74.242 119.864 74.838 119.036 74.838C118.2 74.838 117.585 74.2385 117.585 73.4335ZM120.192 73.4335C120.192 72.775 119.699 72.2895 119.036 72.2895C118.37 72.2895 117.873 72.7745 117.873 73.4335C117.873 74.0925 118.37 74.5775 119.036 74.5775C119.699 74.5775 120.192 74.0925 120.192 73.4335Z" fill="black"/>
<path d="M124.01 72.0531V74.8141H123.73V72.6056L122.645 74.4631H122.507L121.423 72.6171V74.8141H121.143V72.0531H121.383L122.582 74.1001L123.769 72.0531H124.01Z" fill="black"/>
</g>
<g opacity="0.1">
<path d="M92.399 58.8765L71.945 135.492V135.496L71.717 136.357V136.362L71.348 137.742V137.746L71.116 138.607L60.436 178.614V130.195L80.4485 55.233H81.0995C81.637 55.233 82.124 55.5835 82.325 56.0895L83.113 58.0295C83.3135 58.5305 83.8005 58.8765 84.338 58.8765H92.399Z" fill="white"/>
<path d="M131.485 98.0035V146.422L118.728 194.208L118.418 195.369L116.314 203.253H103.389L105.493 195.374L105.83 194.108L107.519 187.777L107.856 186.511L108.535 183.979L108.872 182.712L109.546 180.18L109.883 178.914L120.518 139.085V139.081L121.01 137.241V137.236L131.485 98.0035Z" fill="white"/>
<path d="M99.4031 58.8766L79.0766 135.014L78.9536 135.469L77.8421 139.641L77.7191 140.097L61.0041 202.716C60.6491 202.37 60.4346 201.878 60.4346 201.323V193.958L74.8131 140.097L74.9361 139.642L76.0476 135.47L76.1706 135.014L96.4971 58.8771L99.4031 58.8766Z" fill="white"/>
</g>
<path d="M49.5515 194.311H45.0835V207.315H49.5515V194.311Z" fill="#263238"/>
<g opacity="0.2">
<path d="M49.5515 194.311H45.0835V207.315H49.5515V194.311Z" fill="white"/>
</g>
<path d="M31.3105 189.377C31.474 189.377 31.637 189.315 31.762 189.19L63.879 157.072C64.1285 156.823 64.1285 156.419 63.879 156.17C63.6295 155.92 63.226 155.92 62.9765 156.17L30.8595 188.288C30.61 188.537 30.61 188.941 30.8595 189.19C30.9835 189.315 31.147 189.377 31.3105 189.377Z" fill="#263238"/>
<path d="M47.3686 195.38C53.1851 195.38 58.9996 193.166 63.4276 188.738C67.7106 184.456 70.0691 178.753 70.0691 172.68C70.0691 166.607 67.7101 160.904 63.4271 156.621L61.6221 158.426C65.4226 162.227 67.5161 167.289 67.5161 172.68C67.5161 178.071 65.4231 183.133 61.6226 186.933C53.7626 194.792 40.9746 194.793 33.1151 186.934L31.3101 188.739C35.7371 193.166 41.5541 195.38 47.3686 195.38Z" fill="#263238"/>
<path d="M34.0039 208.035V208.577H60.5174V208.035L52.1944 204.441H42.3269L34.0039 208.035Z" fill="#263238"/>
<g opacity="0.2">
<path d="M31.3105 189.377C31.474 189.377 31.637 189.315 31.762 189.19L63.879 157.072C64.1285 156.823 64.1285 156.419 63.879 156.17C63.6295 155.92 63.226 155.92 62.9765 156.17L30.8595 188.288C30.61 188.537 30.61 188.941 30.8595 189.19C30.9835 189.315 31.147 189.377 31.3105 189.377Z" fill="white"/>
</g>
<path d="M47.3691 192.159C58.1268 192.159 66.8476 183.438 66.8476 172.68C66.8476 161.922 58.1268 153.202 47.3691 153.202C36.6114 153.202 27.8906 161.922 27.8906 172.68C27.8906 183.438 36.6114 192.159 47.3691 192.159Z" fill="#407BFF"/>
<path opacity="0.2" d="M47.3691 192.159C58.1268 192.159 66.8476 183.438 66.8476 172.68C66.8476 161.922 58.1268 153.202 47.3691 153.202C36.6114 153.202 27.8906 161.922 27.8906 172.68C27.8906 183.438 36.6114 192.159 47.3691 192.159Z" fill="white"/>
<path opacity="0.5" d="M27.9405 174.034C30.3595 172.866 31.534 171.915 31.3105 173.23C31.068 174.66 31.336 176.677 31.336 176.677C31.336 176.677 31.738 177.436 32.919 177.098C34.0935 176.759 34.0105 176.594 34.5145 176.594C35.019 176.594 38.306 176.677 37.291 177.94C36.2825 179.204 36.704 179.791 35.7785 180.047C34.853 180.296 34.5145 181.559 34.4315 181.815C34.3485 182.064 33.4295 182.906 33.4295 182.906L31.323 183.723C31.9805 184.687 32.74 185.6 33.5955 186.455C34.0805 186.94 34.5785 187.394 35.1015 187.815C35.5995 187.534 36.3205 187.202 36.959 187.202C38.0505 187.202 38.2165 187.789 38.7525 188.012C39.2885 188.242 39.231 188.012 39.231 188.012C39.231 188.012 39.735 188.631 40.284 188.351C40.833 188.07 42.7605 188.376 43.0985 188.376C43.4365 188.376 44.9495 187.706 45.6325 188.191C46.322 188.676 46.4685 188.549 46.5515 189.136C46.6155 189.589 46.5835 190.508 45.69 192.085C47.726 192.263 49.7875 192.123 51.7855 191.651C50.9685 191.166 51.3515 188.038 50.6875 186.691C50.03 185.351 50.0045 185.013 50.2535 184.419C50.509 183.832 51.013 184.419 51.4345 184.419C51.8555 184.419 52.609 183.915 52.698 182.99C52.781 182.064 53.113 181.056 53.113 181.056C53.113 181.056 53.8725 179.626 54.211 179.626C54.549 179.626 55.5575 179.709 55.896 179.543C56.228 179.371 56.228 179.122 56.4 178.682C56.566 178.241 56.649 176.256 56.2275 176.346C55.8065 176.429 54.97 176.001 54.97 176.001C54.97 176.001 53.7065 175.669 53.451 175.695C53.202 175.72 53.1125 174.91 53.1125 174.91C53.1125 174.91 54.7145 173.984 54.7145 173.646C54.7145 173.314 54.127 173.231 54.044 172.217C53.9545 171.202 54.7975 171.208 55.7225 171.387C56.648 171.566 55.7225 171.796 55.7225 172.594C55.7225 173.392 55.8055 173.315 56.8205 172.594C57.829 171.866 57.574 172.638 57.829 172.594C58.078 172.549 59.3415 172.849 59.3415 172.849C59.3415 172.849 59.2585 174.911 59.3415 177.017C59.4245 179.123 62.539 177.1 63.4645 176.347C63.9115 175.983 65.207 176.162 66.407 176.775C67.524 171.598 66.5025 166.071 63.356 161.565C63.2925 161.622 63.2155 161.641 63.1325 161.603C62.7625 161.444 61.6135 161.782 61.3645 161.533C61.109 161.278 60.0175 161.782 59.475 161.533C58.926 161.278 58.4985 160.608 58.46 159.727C58.4215 158.846 57.994 157.742 57.573 156.625C57.439 156.267 57.4135 156.101 57.5025 156.05C52.741 153.14 47.003 152.463 41.7885 154.014C42.5095 155.233 43.0585 156.631 42.299 157.238C40.8245 158.419 41.6415 159.427 42.663 160.353C43.6905 161.278 42.9885 162.121 42.663 162.459C42.344 162.791 41.7565 163.633 42.299 164.054C42.848 164.476 44.0605 164.98 43.199 165.484C42.3435 165.994 42.848 167.252 41.412 166.16C39.9825 165.062 40.4865 164.054 39.395 164.054C38.3035 164.054 38.131 165.318 36.7015 165.739C35.272 166.16 35.189 166.077 34.7675 165.905C34.346 165.739 34.346 164.647 33.4205 163.716C32.495 162.79 31.4675 163.55 31.308 163.971C31.1485 164.392 30.8805 166.352 31.308 166.595C31.7355 166.831 31.2315 168.178 30.389 168.433C29.5975 168.669 28.7165 167.354 28.4105 168.222C28.3915 168.28 28.3725 168.35 28.3595 168.433C28.353 168.465 28.347 168.497 28.334 168.528C27.9405 170.339 27.8065 172.196 27.9405 174.034ZM47.9825 183.496C46.636 183.832 47.9825 183.496 46.5725 181.897C45.163 180.298 47.369 181.392 47.369 181.392C47.369 181.392 47.814 180.045 47.987 179.035C48.1595 178.025 49.4135 179.035 50.108 179.035C50.8025 179.035 51.518 180.045 50.69 181.392C50.69 181.392 50.76 182.233 50.108 182.065C49.4555 181.897 49.3295 183.159 47.9825 183.496ZM47.369 185.768C47.7655 185.516 48.74 186.105 48.582 187.199L47.3175 187.536C47.3175 187.536 46.468 186.947 46.1025 186.455C45.7365 185.963 46.9725 186.021 47.369 185.768ZM37.0405 170.787C37.0405 169.945 37.2905 169.322 37.9665 169.166C39.056 168.915 39.317 169.945 40.283 170.029C41.249 170.113 40.828 172.68 40.828 172.68C40.828 172.68 41.172 173.985 39.4425 173.564C37.7135 173.143 36.788 173.471 36.6195 172.844C36.4515 172.217 37.0405 171.628 37.0405 170.787Z" fill="white"/>
<path d="M163.759 86.1455C163.759 86.1455 165.605 82.28 165.407 76.544C165.209 70.8075 169.429 68.698 174.704 69.753C179.978 70.808 183.018 73.5855 181.825 86.9475C181.825 86.9475 173.385 89.6155 163.759 86.1455Z" fill="#263238"/>
<path d="M168.234 87.3845C168.234 87.3845 174.551 85.1155 178.715 87.621C178.715 87.621 174.666 93.048 172.113 92.807C169.561 92.566 168.234 87.3845 168.234 87.3845Z" fill="#407BFF"/>
<path opacity="0.4" d="M168.234 87.3845C168.234 87.3845 174.551 85.1155 178.715 87.621C178.715 87.621 174.666 93.048 172.113 92.807C169.561 92.566 168.234 87.3845 168.234 87.3845Z" fill="white"/>
<path d="M133.561 79.4735L130.627 77.493C130.627 77.493 130.073 75.935 129.077 75.3515C128.08 74.768 125.478 73.993 124.814 73.9375C124.149 73.882 124.703 78.59 124.814 78.949C124.924 79.3075 128.746 79.905 129.299 79.745L132.232 82.408L133.561 79.4735Z" fill="#E4897B"/>
<path d="M162.78 89.572C162.78 89.572 149.318 88.478 147.472 87.687C145.626 86.896 131.877 77.942 131.877 77.942L131.066 83.4745C131.066 83.4745 141.934 92.698 145.758 94.1485C149.582 95.599 162.78 98.9065 162.78 98.9065V89.572H162.78Z" fill="#407BFF"/>
<path opacity="0.6" d="M162.78 89.572C162.78 89.572 149.318 88.478 147.472 87.687C145.626 86.896 131.877 77.942 131.877 77.942L131.066 83.4745C131.066 83.4745 141.934 92.698 145.758 94.1485C149.582 95.599 162.78 98.9065 162.78 98.9065V89.572H162.78Z" fill="white"/>
<path d="M182.523 197.197L180.108 198.617C180.108 198.617 178.938 196.952 176.438 194.267V194.262C175.738 193.522 175.003 192.702 174.238 191.822C172.708 190.067 171.053 188.062 169.318 185.907C168.808 185.272 168.288 184.622 167.763 183.962C161.718 176.357 155.183 167.417 152.738 161.372C151.978 159.492 151.608 157.897 151.773 156.702C152.268 153.092 153.673 147.657 155.278 142.407C157.718 134.382 160.463 126.777 160.463 126.777L167.208 138.202C167.208 138.202 165.138 143.137 163.253 148.392C161.398 153.552 159.723 159.027 160.343 160.452C160.403 160.592 160.478 160.757 160.563 160.932C161.683 163.252 164.783 168.507 168.303 174.312C168.658 174.897 169.018 175.487 169.378 176.077C171.268 179.177 173.233 182.362 175.053 185.287C175.763 186.437 176.453 187.547 177.108 188.597C180.208 193.582 182.523 197.197 182.523 197.197Z" fill="#E4897B"/>
<path opacity="0.2" d="M167.625 183.962C170.815 187.972 173.88 191.612 176.16 194.262C176.485 192.632 176.815 190.702 177.075 188.597C174.44 184.367 171.215 179.147 168.285 174.312C168.31 176.872 168.215 180.657 167.625 183.962Z" fill="black"/>
<path d="M179.663 150.902C178.828 156.597 177.638 161.757 176.863 164.832C176.398 166.677 176.083 167.767 176.083 167.767C176.128 173.512 175.668 179.667 175.053 185.287C174.798 187.577 174.523 189.777 174.238 191.822C173.188 199.392 172.083 204.827 172.083 204.827L169.208 204.452L169.318 185.907L169.378 176.077L169.458 162.702L169.488 160.372L169.628 150.202L169.833 135.202L179.833 130.702C181.173 136.402 180.673 144.042 179.663 150.902Z" fill="#E4897B"/>
<path opacity="0.2" d="M167.205 138.2C167.205 138.2 165.27 142.815 163.435 147.87C160.45 146.74 157.425 145.035 154.955 143.465C155.06 143.11 155.165 142.76 155.275 142.405C157.715 134.38 160.46 126.775 160.46 126.775L167.205 138.2Z" fill="black"/>
<path opacity="0.2" d="M179.71 150.545C175.615 149.97 171.865 148.465 169.665 147.435L169.83 135.2L179.83 130.7C181.145 136.3 180.685 143.78 179.71 150.545Z" fill="black"/>
<path d="M182.301 195.62C182.006 195.406 179.517 199.136 179.517 199.136C179.517 199.136 180.071 203.024 178.948 205.531C177.824 208.038 180.007 207.824 181.821 205.449C183.636 203.073 185.02 201.26 186.309 199.572C187.599 197.885 185.355 197.842 182.301 195.62Z" fill="#263238"/>
<path d="M178.592 201.96C178.49 201.96 178.36 201.914 178.228 201.747C178.145 201.643 178.113 201.517 178.132 201.373C178.168 201.102 178.395 200.787 178.654 200.509C178.279 200.68 177.898 200.79 177.703 200.659C177.576 200.573 177.535 200.417 177.582 200.197C177.626 199.99 177.74 199.832 177.921 199.727C178.489 199.399 179.541 199.731 179.593 199.747C179.608 199.752 179.622 199.76 179.634 199.77L179.635 199.771H179.635C179.635 199.771 179.635 199.772 179.636 199.771C179.646 199.78 179.654 199.79 179.66 199.801C179.667 199.813 179.671 199.825 179.673 199.837L179.674 199.838C179.677 199.853 179.677 199.869 179.673 199.885C179.606 200.207 179.238 201.819 178.673 201.951C178.648 201.956 178.621 201.96 178.592 201.96ZM179.364 200.164C178.971 200.494 178.414 201.035 178.366 201.404C178.355 201.483 178.371 201.548 178.412 201.6C178.525 201.743 178.595 201.726 178.618 201.721C178.884 201.658 179.186 200.857 179.364 200.164ZM178.579 199.817C178.379 199.817 178.185 199.847 178.039 199.931C177.917 200.002 177.843 200.105 177.813 200.246C177.799 200.312 177.783 200.429 177.835 200.463C178.002 200.577 178.667 200.28 179.269 199.906C179.086 199.863 178.828 199.817 178.579 199.817Z" fill="#407BFF"/>
<path d="M173.1 202.992C173.092 202.628 168.616 202.913 168.616 202.913C168.616 202.913 165.863 205.714 163.189 206.343C160.514 206.972 162.009 208.577 164.998 208.577C167.987 208.577 170.268 208.577 172.392 208.577C174.516 208.577 173.189 206.767 173.1 202.992Z" fill="#263238"/>
<path d="M166.262 204.059C166.098 204.059 165.96 204.028 165.867 203.951C165.781 203.88 165.691 203.739 165.759 203.474C165.792 203.346 165.872 203.244 165.998 203.171C166.236 203.035 166.624 203.025 167.002 203.062C166.638 202.868 166.319 202.631 166.306 202.396C166.297 202.243 166.396 202.117 166.6 202.02C166.792 201.93 166.986 201.924 167.179 202.004C167.783 202.255 168.159 203.291 168.178 203.345C168.183 203.359 168.186 203.376 168.185 203.392C168.185 203.393 168.185 203.393 168.185 203.393V203.393C168.184 203.406 168.181 203.419 168.176 203.43C168.171 203.442 168.164 203.453 168.156 203.463L168.155 203.463C168.145 203.475 168.133 203.484 168.118 203.491C167.881 203.604 166.887 204.059 166.262 204.059ZM166.643 203.278C166.429 203.278 166.239 203.305 166.116 203.376C166.046 203.416 166.004 203.467 165.988 203.533C165.943 203.708 165.999 203.754 166.017 203.769C166.228 203.943 167.048 203.696 167.708 203.417C167.398 203.348 166.988 203.278 166.643 203.278ZM166.906 202.184C166.838 202.184 166.77 202.201 166.7 202.234C166.639 202.262 166.537 202.321 166.54 202.383C166.552 202.584 167.192 202.932 167.854 203.184C167.714 202.877 167.438 202.368 167.087 202.222C167.027 202.197 166.966 202.184 166.906 202.184Z" fill="#407BFF"/>
<path d="M184.375 146.21C163.793 146.246 154.462 140.776 154.462 140.776C158.032 131.431 160.685 124.49 160.685 124.49L162.435 116.25L178.435 117.485C181.94 124.105 183.595 136.445 184.375 146.21Z" fill="#263238"/>
<path d="M131.673 77.5685L130.384 83.433L131.29 84.1575L133.121 77.813L131.673 77.5685Z" fill="#407BFF"/>
<path d="M162.368 89.5375C162.368 89.5375 160.692 93.253 160.692 102.19C160.692 111.126 160.692 117.486 160.692 117.486L157.824 129.324L184.173 132.489C184.173 132.489 182.991 124.051 179.853 116.946L183.45 91.621C183.45 91.622 172.549 87.3335 162.368 89.5375Z" fill="#407BFF"/>
<path d="M183.504 91.7795C185.126 92.7655 186.495 106.056 186.495 106.056L190.926 104.108C190.926 104.108 190.672 114.045 186.678 116.655C182.684 119.265 180.572 106.544 180.572 106.544C180.572 106.544 180.146 102.785 180.835 98.906C181.733 93.852 183.504 91.7795 183.504 91.7795Z" fill="#407BFF"/>
<g opacity="0.6">
<path d="M183.504 91.7795C185.126 92.7655 186.495 106.056 186.495 106.056L190.926 104.108C190.926 104.108 190.672 114.045 186.678 116.655C182.684 119.265 180.572 106.544 180.572 106.544C180.572 106.544 180.146 102.785 180.835 98.906C181.733 93.852 183.504 91.7795 183.504 91.7795Z" fill="white"/>
</g>
<path opacity="0.2" d="M186.495 106.056L185.733 106.565L184.507 111.381C184.507 111.381 183.005 107.02 186.373 105.396L186.495 106.056Z" fill="black"/>
<path d="M170.85 92.807C174.825 92.297 176.02 90.597 176.02 90.597C174.395 89.067 174.69 86.807 175.105 85.397C175.33 84.617 175.595 84.097 175.595 84.097L170.81 84.992C170.935 85.782 170.99 86.447 170.995 87.007C171.005 87.622 170.95 88.107 170.86 88.487C170.535 89.917 169.72 89.937 169.72 89.937C168.88 91.507 170.85 92.807 170.85 92.807Z" fill="#E4897B"/>
<path opacity="0.2" d="M170.996 87.007C171.006 87.622 170.951 88.107 170.861 88.487C172.761 88.237 174.201 86.717 175.106 85.397C175.331 84.617 175.596 84.097 175.596 84.097L170.811 84.992C170.935 85.782 170.99 86.447 170.996 87.007Z" fill="black"/>
<path d="M171.94 72.2185C167.777 72.16 166.405 74.37 166.04 78.656C165.583 84.0125 166.718 87.8385 171.94 86.7665C179.032 85.311 178.854 72.3155 171.94 72.2185Z" fill="#E4897B"/>
<path d="M168.734 78.4611C168.734 78.4611 168.142 79.5406 167.498 80.1706C167.498 80.1706 167.847 80.7421 168.589 80.6571L168.734 78.4611Z" fill="#DE5753"/>
<path d="M171.287 78.1566C171.274 78.4986 171.449 78.7826 171.677 78.7911C171.905 78.7996 172.1 78.5296 172.113 78.1876C172.126 77.8456 171.951 77.5616 171.723 77.5531C171.495 77.5446 171.3 77.8151 171.287 78.1566Z" fill="#263238"/>
<path d="M171.817 77.573L171.085 77.2535C171.085 77.2535 171.432 77.893 171.817 77.573Z" fill="#263238"/>
<path d="M167.04 77.926C167.027 78.268 167.202 78.552 167.43 78.5605C167.658 78.569 167.853 78.299 167.866 77.957C167.879 77.615 167.704 77.331 167.476 77.3225C167.248 77.314 167.053 77.5845 167.04 77.926Z" fill="#263238"/>
<path d="M167.57 77.3424L166.838 77.0229C166.838 77.0229 167.184 77.6624 167.57 77.3424Z" fill="#263238"/>
<path d="M171.37 75.282C171.37 75.282 172.542 75.1465 173.167 75.937" stroke="#263238" stroke-width="0.708" stroke-miterlimit="10" stroke-linecap="round" stroke-linejoin="round"/>
<path d="M168.346 75.0635C168.346 75.0635 167.615 74.781 166.682 75.3825" stroke="#263238" stroke-width="0.708" stroke-miterlimit="10" stroke-linecap="round" stroke-linejoin="round"/>
<path d="M176.391 79.2995C176.391 79.2995 174.492 75.8515 174.824 73.2145C174.824 73.2145 166.621 69.7275 166.096 78.0965C166.096 78.0965 165.395 70.649 172.554 70.5845C179.702 70.5195 179.536 80.99 175.795 84.0575C175.795 84.0575 177.565 81.456 176.391 79.2995Z" fill="#263238"/>
<path d="M175.699 80.169C175.736 79.499 176.444 78.3745 177.689 78.528C178.977 78.687 179.555 81.3445 176.336 81.936C175.875 82.0205 175.621 81.5665 175.699 80.169Z" fill="#E4897B"/>
<path d="M169.116 82.9215C169.116 82.9215 170.854 83.3445 171.602 81.797" stroke="#263238" stroke-width="0.708" stroke-miterlimit="10" stroke-linecap="round" stroke-linejoin="round"/>
<path d="M175.595 69.9555C175.595 69.9555 166.528 67.55 164.681 75.937C164.681 75.937 165.824 75.4765 167.592 75.3355C168.441 73.782 169.511 72.9505 169.511 72.9505C168.88 73.626 168.403 74.468 168.044 75.308C168.803 75.2745 169.658 75.305 170.576 75.451C170.752 74.7205 171.024 73.9415 171.451 73.173C171.451 73.173 171.19 74.1575 171.092 75.5435C171.916 75.711 172.783 75.978 173.669 76.374C173.37 75.009 173.474 73.6925 173.474 73.6925C173.462 74.9395 173.78 75.9075 174.12 76.5865C174.39 76.72 174.661 76.8635 174.933 77.0235C174.933 77.0235 173.946 74.128 175.594 72.5555C177.244 70.9825 175.595 69.9555 175.595 69.9555Z" fill="#263238"/>
<path d="M182.182 99.466C182.035 99.6745 182.098 99.9435 182.324 100.067L186.332 102.261C186.558 102.385 186.859 102.316 187.007 102.107L192.233 94.686C192.38 94.4775 192.346 94.1535 192.121 94.03L188.113 91.8355C187.887 91.712 187.555 91.836 187.408 92.0445L182.182 99.466Z" fill="#263238"/>
<path opacity="0.5" d="M187.881 92.236L182.602 99.7275C182.453 99.9385 182.486 100.156 182.71 100.278L186.109 102.139C186.337 102.264 186.824 102.367 186.973 102.156L192.267 94.637C192.416 94.426 192.126 94.0325 191.898 93.9075L188.499 92.047C188.275 91.9245 188.03 92.025 187.881 92.236Z" fill="white"/>
<path d="M190.219 104.722L190.07 100.033C190.07 100.033 191.097 98.1721 191.154 97.6336C191.212 97.0951 189.707 94.9846 189.224 94.9126C188.741 94.8401 186.593 98.4171 186.689 99.1096C186.785 99.8021 187.764 101.051 187.764 101.051L187.296 101.697L186.496 106.057L190.219 104.722Z" fill="#E4897B"/>
<path d="M191.279 104.78L190.965 103.705L185.655 105.596L185.323 107.314L191.279 104.78Z" fill="#407BFF"/>
<path opacity="0.4" d="M170.359 93.621C170.359 93.621 168.343 101.632 169.512 115.28L168.346 125.269H169.208L170.359 115.379C170.359 115.379 169.017 101.83 171.085 93.6215L170.359 93.621Z" fill="white"/>
<path d="M168.234 87.3845C168.234 87.3845 170.771 89.1375 172.21 89.401C173.649 89.6645 178.715 87.621 178.715 87.621L178.066 90.654L178.342 91.78C178.342 91.78 173.841 94.808 170.811 94.4125C167.781 94.017 167.81 90.4565 167.81 90.4565L168.347 89.897L168.234 87.3845Z" fill="#407BFF"/>
<path opacity="0.6" d="M168.234 87.3845C168.234 87.3845 170.771 89.1375 172.21 89.401C173.649 89.6645 178.715 87.621 178.715 87.621L178.066 90.654L178.342 91.78C178.342 91.78 173.841 94.808 170.811 94.4125C167.781 94.017 167.81 90.4565 167.81 90.4565L168.347 89.897L168.234 87.3845Z" fill="white"/>
</svg>
