<svg width="60" height="60" viewBox="0 0 60 60" fill="none" xmlns="http://www.w3.org/2000/svg">
<path d="M42.5 7.49988L30 17.4999L17.5 7.49988M17 52.4999H43C47.2005 52.4999 49.3005 52.4999 50.905 51.6824C52.3162 50.9634 53.4635 49.8161 54.1825 48.4049C55 46.8004 55 44.7004 55 40.4999V29.4999C55 25.2994 55 23.1993 54.1825 21.595C53.4635 20.1837 52.3162 19.0364 50.905 18.3173C49.3005 17.4999 47.2005 17.4999 43 17.4999H17C12.7996 17.4999 10.6994 17.4999 9.09508 18.3173C7.68385 19.0364 6.5365 20.1837 5.81745 21.595C5 23.1993 5 25.2994 5 29.4999V40.4999C5 44.7004 5 46.8004 5.81745 48.4049C6.5365 49.8161 7.68385 50.9634 9.09508 51.6824C10.6994 52.4999 12.7996 52.4999 17 52.4999Z" stroke="#0018A8" stroke-width="2" stroke-linecap="round" stroke-linejoin="round"/>
</svg>
