<svg width="28" height="28" viewBox="0 0 28 28" fill="none" xmlns="http://www.w3.org/2000/svg">
<mask id="mask0_1201_1504" style="mask-type:alpha" maskUnits="userSpaceOnUse" x="0" y="0" width="28" height="28">
<rect width="28" height="28" fill="#D9D9D9"/>
</mask>
<g mask="url(#mask0_1201_1504)">
<path d="M19.4987 15.1357L13.7977 9.43434L19.4987 3.73334L25.2001 9.43434L19.4987 15.1357ZM3.7334 13.3202V5.22712H11.8265V13.3202H3.7334ZM15.5613 25.1481V17.055H23.6544V25.1481H15.5613ZM3.7334 25.1481V17.055H11.8265V25.1481H3.7334ZM5.08253 11.9714H10.4777V6.57625H5.08253V11.9714ZM19.5325 13.2784L23.3428 9.46806L19.5325 5.65772L15.7221 9.46806L19.5325 13.2784ZM16.9101 23.799H22.3052V18.4038H16.9101V23.799ZM5.08253 23.799H10.4777V18.4038H5.08253V23.799Z" fill="#0018A8"/>
</g>
</svg>
